<svg width="728" height="728" viewBox="0 0 728 728" fill="none" xmlns="http://www.w3.org/2000/svg">
<path d="M364 694.104C543.642 694.104 689.27 614.908 689.27 517.215C689.27 419.521 543.642 340.325 364 340.325C184.358 340.325 38.7296 419.521 38.7296 517.215C38.7296 614.908 184.358 694.104 364 694.104Z" fill="#F5F5F5"/>
<path d="M364 507.955C391.067 507.955 413.009 495.283 413.009 479.65C413.009 464.018 391.067 451.346 364 451.346C336.933 451.346 314.991 464.018 314.991 479.65C314.991 495.283 336.933 507.955 364 507.955Z" fill="#E0E0E0"/>
<path d="M546.772 583.594C589.559 583.594 624.245 563.569 624.245 538.866C624.245 514.163 589.559 494.138 546.772 494.138C503.984 494.138 469.298 514.163 469.298 538.866C469.298 563.569 503.984 583.594 546.772 583.594Z" fill="#E0E0E0"/>
<path d="M166.596 588.428C209.383 588.428 244.069 568.403 244.069 543.7C244.069 518.997 209.383 498.972 166.596 498.972C123.808 498.972 89.1218 518.997 89.1218 543.7C89.1218 568.403 123.808 588.428 166.596 588.428Z" fill="#E0E0E0"/>
<path d="M662.48 507.081L647.847 501.097C646.009 488.448 644.949 475.699 644.673 462.92C644.673 439.013 659.568 409.776 678.467 414.668C697.366 419.561 673.138 446.307 669.207 466.968C665.276 487.629 662.48 507.081 662.48 507.081Z" fill="#26DD16"/>
<path opacity="0.3" d="M662.48 507.081L647.847 501.097C646.009 488.448 644.949 475.699 644.673 462.92C644.673 439.013 659.568 409.776 678.467 414.668C697.366 419.561 673.138 446.307 669.207 466.968C665.276 487.629 662.48 507.081 662.48 507.081Z" fill="black"/>
<path d="M655.389 505.232C655.549 505.21 655.694 505.126 655.792 504.998C655.891 504.87 655.934 504.708 655.913 504.548C648.939 452.132 672.512 423.012 672.745 422.764C672.849 422.639 672.899 422.477 672.884 422.314C672.869 422.152 672.79 422.002 672.665 421.898C672.539 421.794 672.377 421.743 672.215 421.758C672.053 421.773 671.903 421.852 671.798 421.978C671.565 422.269 647.643 451.739 654.69 504.708C654.701 504.789 654.728 504.866 654.769 504.936C654.81 505.007 654.865 505.068 654.93 505.117C654.995 505.166 655.069 505.201 655.148 505.221C655.227 505.241 655.309 505.244 655.389 505.232Z" fill="white"/>
<path d="M669.993 510.575L662.349 507.11C660.06 495.333 660.408 483.195 663.368 471.569C668.275 452.728 684.611 441.109 692.838 443.031C702.899 445.375 703.874 454.679 700.933 461.158C697.424 468.831 673.225 489.609 669.993 510.575Z" fill="#26DD16"/>
<path opacity="0.1" d="M669.993 510.575L662.349 507.11C660.06 495.333 660.408 483.195 663.368 471.569C668.275 452.728 684.611 441.109 692.838 443.031C702.899 445.375 703.874 454.679 700.933 461.158C697.424 468.831 673.225 489.609 669.993 510.575Z" fill="black"/>
<path d="M666.018 509.367C666.182 509.349 666.332 509.267 666.435 509.139C666.539 509.01 666.588 508.847 666.571 508.683C663.135 475.428 692.153 449.86 692.459 449.613C692.57 449.494 692.631 449.338 692.631 449.176C692.631 449.014 692.57 448.858 692.459 448.739C692.402 448.681 692.334 448.635 692.259 448.603C692.184 448.572 692.104 448.556 692.022 448.556C691.941 448.556 691.86 448.572 691.785 448.603C691.71 448.635 691.642 448.681 691.585 448.739C691.28 449.001 661.796 474.947 665.276 508.872C665.311 509.035 665.408 509.178 665.546 509.27C665.685 509.363 665.854 509.397 666.018 509.367Z" fill="white"/>
<path d="M81.536 493.686L91.5824 487.949C91.5824 487.949 96.3872 461.435 92.7909 438.635C87.724 406.603 65.8986 395.522 57.9779 398.711C50.0573 401.9 48.1936 411.393 62.5061 429.913C70.9509 440.833 81.8127 463.94 81.536 493.686Z" fill="#26DD16"/>
<g opacity="0.15">
<path opacity="0.15" d="M81.536 493.686L91.5824 487.949C91.5824 487.949 96.3872 461.435 92.7909 438.635C87.724 406.603 65.8986 395.522 57.9779 398.711C50.0573 401.9 48.1936 411.393 62.5061 429.913C70.9509 440.833 81.8127 463.94 81.536 493.686Z" fill="black"/>
</g>
<path d="M85.1761 480.96H85.0741C84.9819 480.948 84.8932 480.917 84.813 480.87C84.7328 480.823 84.6629 480.76 84.6073 480.685C84.5517 480.611 84.5115 480.526 84.4892 480.436C84.4669 480.345 84.4628 480.251 84.4772 480.16C88.6122 450.151 76.5565 417.275 62.9866 404.025C62.9024 403.964 62.8323 403.885 62.7811 403.794C62.73 403.703 62.6989 403.603 62.6901 403.499C62.6813 403.395 62.6948 403.29 62.7299 403.192C62.765 403.094 62.8207 403.004 62.8934 402.93C62.9661 402.855 63.0539 402.797 63.1511 402.759C63.2482 402.721 63.3523 402.704 63.4564 402.71C63.5605 402.716 63.6622 402.744 63.7544 402.793C63.8467 402.841 63.9275 402.909 63.9913 402.991C77.7941 416.416 90.0973 449.904 85.9041 480.334C85.8793 480.509 85.7918 480.669 85.6579 480.784C85.524 480.899 85.3527 480.962 85.1761 480.96Z" fill="white"/>
<path d="M53.6973 509.774C52.1103 510.677 48.8488 508.697 47.5967 507.852C45.4489 506.372 43.7148 504.367 42.5589 502.028C41.2681 499.388 40.8305 496.411 41.3068 493.511C41.5588 491.978 41.9188 490.465 42.3842 488.983L43.6509 484.615C44.15 483.215 44.3677 481.731 44.2916 480.247C43.913 477.233 41.234 475.136 38.817 473.316C36.1234 471.307 33.3424 468.657 33.357 465.031C33.5449 462.222 34.6673 459.557 36.5456 457.46C38.2637 455.262 40.3167 453.325 41.8892 451.01C43.1217 449.385 43.7544 447.384 43.68 445.346C43.5132 444.106 43.0972 442.912 42.457 441.837C40.984 439.598 39.6984 437.241 38.6132 434.79C37.725 432.257 37.856 429.112 39.8362 427.292C40.7174 426.633 41.7213 426.158 42.789 425.893C43.8566 425.628 44.9665 425.579 46.0533 425.749C48.1207 425.992 50.1091 426.688 51.8773 427.787C57.6285 430.976 60.9045 437.79 67.0052 440.25C69.4205 441.003 71.8813 441.601 74.3725 442.041C75.6229 442.273 76.8107 442.765 77.8591 443.484C78.9075 444.204 79.7931 445.136 80.4586 446.22C82.7008 450.69 78.5512 456.193 80.1237 460.94C81.5797 465.133 85.5983 466.764 87.8842 470.535C88.8213 472.202 89.1989 474.126 88.9616 476.024C88.7584 479.235 87.974 482.383 86.6466 485.313C85.153 488.227 83.4448 491.025 81.536 493.685C81.4487 493.787 53.9448 509.6 53.6973 509.774Z" fill="#26DD16"/>
<path d="M69.9899 501.096C69.8943 501.093 69.8004 501.07 69.7135 501.03C69.6266 500.99 69.5484 500.933 69.4835 500.863C69.4186 500.792 69.3682 500.71 69.3352 500.62C69.3022 500.53 69.2872 500.435 69.2911 500.339C70.4704 471.947 57.0898 440.643 47.3637 431.471C47.2312 431.337 47.1569 431.156 47.1569 430.968C47.1569 430.78 47.2312 430.6 47.3637 430.466C47.4998 430.333 47.6827 430.258 47.8733 430.258C48.0639 430.258 48.2468 430.333 48.3829 430.466C58.24 439.711 71.9119 471.598 70.7034 500.412C70.6959 500.596 70.6174 500.77 70.4844 500.898C70.3514 501.025 70.1742 501.097 69.9899 501.096Z" fill="white"/>
<path d="M65.7384 467.535H65.52C58.7927 465.685 51.8851 464.567 44.9176 464.201C44.7245 464.201 44.5394 464.124 44.4028 463.988C44.2663 463.851 44.1896 463.666 44.1896 463.473C44.1896 463.28 44.2663 463.095 44.4028 462.958C44.5394 462.822 44.7245 462.745 44.9176 462.745C52.0086 463.114 59.0386 464.251 65.884 466.138C65.9739 466.164 66.0577 466.208 66.1305 466.268C66.2033 466.327 66.2638 466.4 66.3084 466.482C66.353 466.565 66.381 466.655 66.3906 466.748C66.4002 466.842 66.3913 466.936 66.3645 467.026C66.322 467.163 66.24 467.285 66.1285 467.375C66.0171 467.466 65.8814 467.522 65.7384 467.535Z" fill="white"/>
<path d="M585.065 529.635L571.495 528.077L567.986 500.733L584.569 505.655L585.065 529.635Z" fill="#B16668"/>
<path d="M555.333 551.941C555.137 552.48 555.057 553.054 555.097 553.626C555.137 554.197 555.297 554.754 555.566 555.261C557.022 556.95 560.778 558.93 565.904 559.294C570.81 559.643 575.178 558.988 578.047 557.168C579.294 556.523 580.362 555.579 581.154 554.421C581.947 553.262 582.44 551.925 582.589 550.529C582.866 547.748 582.589 545.054 583.885 542.914C585.181 540.773 587.059 538.691 587.482 537.614C587.986 535.755 587.986 533.795 587.482 531.936L555.333 551.941Z" fill="#263238"/>
<path d="M568.743 527.597C568.699 528.652 568.508 529.696 568.175 530.698C567.424 532.854 566.417 534.912 565.176 536.828C564.566 537.845 563.885 538.819 563.137 539.74C561.681 541.502 559.817 542.958 558.245 544.647C556.577 546.239 555.507 548.357 555.216 550.645C555.013 554.489 561.128 555.799 564.346 556.367C567.816 556.974 571.378 556.795 574.771 555.843C576.552 555.379 578.161 554.411 579.406 553.055C580.651 551.7 581.478 550.013 581.789 548.199C581.978 547.122 581.905 546.03 582.036 544.967C582.46 542.512 583.485 540.201 585.021 538.24C585.913 537.108 586.679 535.883 587.307 534.586C588.311 532.212 587.511 529.533 586.87 527.175C586.317 525.122 585.647 522.807 584.919 522.967C584.919 524.03 584.919 524.175 584.205 524.889C583.492 525.602 583.215 527.175 582.196 527.975C582.521 527.088 582.76 526.171 582.91 525.238C582.973 524.864 582.895 524.48 582.691 524.161C582.353 523.858 581.95 523.639 581.512 523.52C579.998 523.013 578.437 522.657 576.853 522.457C574.69 522.21 572.507 522.21 570.344 522.457C569.894 522.537 569.486 522.775 569.194 523.127C568.932 523.514 568.79 523.97 568.786 524.437C568.714 524.991 568.772 526.578 568.743 527.597Z" fill="#455A64"/>
<path d="M564.651 537.643C566.107 536.566 571.247 536.551 572.994 536.74C574.775 536.893 576.488 537.494 577.974 538.488C578.191 538.643 578.457 538.716 578.723 538.695C578.989 538.673 579.24 538.559 579.43 538.371C579.54 538.262 579.625 538.13 579.68 537.985C579.735 537.839 579.757 537.684 579.746 537.529C579.735 537.374 579.691 537.224 579.616 537.087C579.541 536.951 579.438 536.833 579.313 536.74C577.682 535.536 575.744 534.815 573.722 534.658C571.2 534.474 568.664 534.62 566.18 535.095C566.18 535.095 564.229 536.362 564.651 537.643Z" fill="#F5F5F5"/>
<path d="M561.361 541.632C563.166 540.57 568.641 540.715 570.403 540.904C572.149 541.083 573.817 541.721 575.236 542.754C575.455 542.906 575.72 542.977 575.985 542.956C576.251 542.935 576.501 542.822 576.692 542.637C576.803 542.528 576.888 542.396 576.943 542.251C576.997 542.105 577.02 541.95 577.009 541.795C576.998 541.64 576.953 541.489 576.879 541.353C576.804 541.217 576.701 541.099 576.576 541.006C574.188 539.769 571.582 539.007 568.903 538.764C564.535 538.458 563.472 539.332 563.472 539.332C562.971 539.534 562.521 539.845 562.156 540.243C561.791 540.641 561.519 541.116 561.361 541.632Z" fill="#F5F5F5"/>
<path d="M575.44 530.537C572.977 530.256 570.484 530.409 568.073 530.989C567.316 531.411 566.806 532.62 567.301 532.925C569.501 532.332 571.784 532.106 574.057 532.256C575.671 532.417 577.246 532.851 578.716 533.537C579.095 533.712 579.532 533.93 579.91 534.148C580.032 534.226 580.169 534.276 580.312 534.296C580.455 534.316 580.6 534.304 580.738 534.263C580.876 534.221 581.004 534.151 581.112 534.056C581.221 533.961 581.307 533.843 581.366 533.712C581.47 533.497 581.49 533.251 581.423 533.023C581.356 532.794 581.206 532.598 581.002 532.474C579.308 531.439 577.411 530.778 575.44 530.537Z" fill="#F5F5F5"/>
<path d="M534.468 517.201L521.568 513.604V487.527L537.57 488.226L534.468 517.201Z" fill="#B16668"/>
<path d="M494.312 531.164C493.948 532.288 494.016 533.508 494.501 534.586C494.982 535.576 500.209 538.531 507.256 538.051C512.476 537.676 517.502 535.917 521.816 532.955C524.495 531.179 527.29 530.844 530.785 530.654C534.279 530.465 538.851 528.703 539.623 527.073C540.016 525.612 539.975 524.069 539.506 522.632L494.312 531.164Z" fill="#263238"/>
<path d="M522.704 509.179L522.151 509.062C521.844 508.99 521.525 508.99 521.219 509.062C520.88 509.173 520.578 509.375 520.345 509.644C519.658 510.531 519.058 511.481 518.554 512.484C517.098 514.886 513.968 516.852 510.59 518.701C508.29 519.938 506.033 520.899 503.66 521.962C501.286 523.025 498.01 523.724 496.117 525.005C493.351 526.869 492.987 531.543 496.117 533.392C498.826 534.993 505.989 536.726 513.488 534.6C517.564 533.436 522.107 529.082 527.465 528.66C530.872 528.383 537.322 527.437 539.521 524.845C540.336 523.695 539.244 520.055 538.356 516.91C537.381 513.474 536.463 508.174 535.328 508.421C535.337 508.667 535.288 508.912 535.184 509.134C535.081 509.357 534.925 509.552 534.731 509.703C534.308 510.14 533.741 510.416 533.275 510.809C532.48 511.591 531.838 512.515 531.382 513.532C531.197 513.985 530.856 514.357 530.421 514.58C529.838 514.784 529.416 514.435 528.965 514.202C528.325 513.909 527.601 513.857 526.926 514.056C526.997 513.373 527.119 512.697 527.29 512.032C527.355 511.824 527.355 511.6 527.29 511.392C527.208 511.18 527.053 511.005 526.854 510.897C525.606 510.04 524.192 509.455 522.704 509.179Z" fill="#455A64"/>
<path d="M513.822 516.793C514.066 516.322 514.424 515.92 514.865 515.625C515.305 515.33 515.813 515.15 516.341 515.104C517.885 514.813 520.622 515.963 522.326 517.361C522.488 517.491 522.616 517.658 522.698 517.849C522.781 518.04 522.815 518.249 522.797 518.456C522.78 518.663 522.712 518.863 522.599 519.037C522.487 519.212 522.332 519.356 522.151 519.458C521.922 519.587 521.658 519.641 521.397 519.613C521.136 519.584 520.89 519.474 520.695 519.297C518.816 517.603 516.351 516.705 513.822 516.793Z" fill="#F5F5F5"/>
<path d="M509.003 519.487C509.341 519.009 509.788 518.62 510.308 518.352C510.827 518.083 511.403 517.943 511.988 517.943C514.382 518.048 516.681 518.91 518.554 520.404C518.708 520.532 518.828 520.694 518.905 520.879C518.982 521.063 519.013 521.263 518.996 521.461C518.978 521.66 518.913 521.852 518.806 522.02C518.699 522.188 518.553 522.328 518.38 522.428C518.153 522.564 517.888 522.622 517.625 522.593C517.362 522.564 517.115 522.45 516.924 522.268C515.894 521.244 514.648 520.463 513.278 519.982C511.908 519.5 510.447 519.331 509.003 519.487Z" fill="#F5F5F5"/>
<path d="M503.776 521.904C504.16 521.464 504.635 521.113 505.168 520.874C505.701 520.636 506.279 520.515 506.863 520.521C509.168 520.663 511.369 521.529 513.153 522.996C513.306 523.125 513.426 523.289 513.503 523.474C513.579 523.66 513.61 523.861 513.593 524.06C513.576 524.26 513.511 524.453 513.404 524.622C513.297 524.792 513.151 524.933 512.978 525.034C512.751 525.171 512.486 525.229 512.223 525.2C511.96 525.171 511.714 525.056 511.522 524.874C510.549 523.814 509.342 522.993 507.998 522.478C506.654 521.962 505.209 521.766 503.776 521.904Z" fill="#F5F5F5"/>
<path d="M582.094 347.067C582.982 373.959 583.041 432.199 583.041 432.199C583.317 435.548 583.609 441.488 583.856 453.544C584.22 471.016 585.065 514.157 585.065 514.157C585.065 514.157 576.722 518.074 569.049 514.885C569.049 514.885 558.391 454.228 556.207 436.931C554.299 421.832 550.645 386.422 550.645 386.422L545.607 431.369C545.607 431.369 545.607 443.017 544.923 453.296C544.355 461.304 536.58 502.553 536.58 502.553C531.502 503.902 526.139 503.725 521.161 502.043C521.161 502.043 520.462 438.722 520.316 431.369C520.156 423.012 522.311 332.652 522.311 332.652L582.094 347.067Z" fill="#455A64"/>
<path d="M550.674 386.423L548.752 371.178C542.545 369.592 536.676 366.899 531.425 363.229C531.425 363.229 535.124 368.179 545.985 373.421L548.432 387.253L545.665 431.369L550.674 386.423Z" fill="#37474F"/>
<path d="M521.627 271.603C517.695 276.757 497.472 304.508 497.472 304.508L478.791 290.036C474.423 286.614 473.127 282.129 470.39 279.028C467.653 275.927 464.653 275.184 461.581 272.593C458.509 270.001 457.33 268.035 456.281 270.248C455.233 272.462 458.625 276.32 459.193 277.252C459.761 278.184 463.27 280.411 458.64 280.164C454.01 279.916 445.099 274.631 442.944 273.656C440.789 272.68 440.731 275.344 441.75 277.092C442.77 278.839 442.26 283.702 443.454 286.832C444.648 289.963 446.744 291.885 451.011 293.996C454.985 295.976 464.653 297.214 467.798 299.194C474.7 306.27 487.716 319.476 491.007 321.922C495.535 325.285 499.918 328.387 506.848 321.718C513.779 315.05 533.857 288.885 533.857 288.885L538.007 264.002C531.192 263.755 526.373 265.385 521.627 271.603Z" fill="#B16668"/>
<path d="M497.472 304.508C500.034 306.401 502.699 310.653 502.946 312.56C502.916 310.753 502.513 308.971 501.761 307.328C501.009 305.684 499.926 304.214 498.578 303.009L497.472 304.508Z" fill="#9A4A4D"/>
<path d="M539.608 263.391C539.608 263.391 529.999 263.275 525.776 266.23C521.554 269.186 518.423 273.51 511.566 283.484C505.552 292.22 502.64 296.413 502.64 296.413C506.577 302.236 512.308 306.613 518.962 308.877L536.9 286.658L539.608 263.391Z" fill="#37474F"/>
<path d="M558.201 262.925C563.647 263.449 571.305 263.507 576.692 264.061C580.434 265.604 587.656 271.894 587.117 276.378C585.108 293.137 581.046 320.612 581.046 320.612L582.385 349.732C574.887 357.215 539.798 360.142 521.714 348.174C521.714 348.174 522.296 295.874 523.549 287.022C525.776 271.166 527.727 265.284 535.91 263.886C544.093 262.488 558.201 262.925 558.201 262.925Z" fill="#FF3242"/>
<path d="M589.039 272.025C592.971 277.18 613.209 304.931 613.209 304.931L631.904 290.458C636.272 287.022 637.568 282.538 640.305 279.451C643.042 276.364 646.042 275.607 649.114 273.016C652.186 270.424 653.365 268.458 654.414 270.657C655.462 272.855 652.07 276.743 651.502 277.675C650.934 278.607 647.425 280.834 652.055 280.587C656.685 280.339 665.581 275.039 667.751 274.064C669.92 273.088 669.949 275.753 668.945 277.5C667.94 279.247 668.42 284.125 667.241 287.255C666.062 290.386 663.951 292.293 659.684 294.419C655.71 296.399 646.042 297.636 642.897 299.617C635.995 306.678 622.979 319.899 619.688 322.33C615.16 325.694 610.777 328.795 603.847 322.141C596.916 315.487 581.075 294.768 581.075 294.768L572.688 264.425C579.488 264.178 584.307 265.808 589.039 272.025Z" fill="#B16668"/>
<path d="M613.209 304.93C610.646 306.823 607.982 311.075 607.734 312.982C607.762 311.172 608.165 309.388 608.917 307.742C609.669 306.095 610.753 304.622 612.102 303.416L613.209 304.93Z" fill="#9A4A4D"/>
<path d="M571.728 263.697C571.728 263.697 580.362 263.158 584.904 266.609C588.996 269.753 592.184 273.889 599.115 283.862C605.128 292.598 608.04 296.791 608.04 296.791C604.095 302.612 598.36 306.988 591.704 309.255L579.488 294.2C573.125 286.133 566.821 273.859 571.728 263.697Z" fill="#37474F"/>
<path d="M559.555 223.497C559.584 226.837 558.622 230.111 556.79 232.904C554.958 235.697 552.339 237.885 549.264 239.189C546.189 240.494 542.796 240.858 539.514 240.234C536.232 239.611 533.209 238.028 530.827 235.687C528.445 233.345 526.81 230.35 526.13 227.079C525.45 223.809 525.756 220.41 527.007 217.313C528.259 214.216 530.401 211.56 533.162 209.68C535.923 207.8 539.18 206.782 542.52 206.753C544.738 206.733 546.938 207.151 548.995 207.982C551.051 208.813 552.924 210.041 554.506 211.596C556.088 213.151 557.348 215.002 558.214 217.044C559.081 219.086 559.536 221.279 559.555 223.497Z" fill="#263238"/>
<path d="M571.975 235.407C571.975 235.407 569.34 248.293 568.262 250.404C567.545 251.715 566.351 252.7 564.928 253.156L565.03 244.1L571.975 235.407Z" fill="#263238"/>
<path d="M568.379 217.018C569.333 216.896 570.304 216.993 571.215 217.304C572.126 217.614 572.954 218.129 573.635 218.809C575.906 221.095 574.712 228.317 571.975 235.407L566.821 236.048L568.379 217.018Z" fill="#263238"/>
<path d="M565.277 236.061C566.311 236.673 567.767 234.605 569.034 233.324C570.301 232.043 574.436 230.121 576.561 234.474C578.687 238.827 574.814 244.841 571.553 245.889C565.918 247.724 565.03 244.098 565.03 244.098L564.797 265.094C557.866 274.165 538.371 273.568 546.408 264.104V257.901C543.898 258.322 541.35 258.473 538.807 258.352C534.643 257.755 532.008 254.494 530.697 250.01C528.615 242.817 527.785 236.993 529.387 222.768C531.134 207.189 549.232 206.868 559.06 212.94C568.888 219.011 565.277 236.061 565.277 236.061Z" fill="#B16668"/>
<path d="M565.292 237.794C565.802 237.794 567.753 234.504 569.034 233.324C570.796 231.679 568.379 217.017 568.379 217.017C568.984 215.716 569.182 214.263 568.948 212.847C568.715 211.432 568.059 210.12 567.068 209.082C564.608 206.418 561.172 203.171 550.106 204.568C542.2 205.573 533.624 208.121 526.65 204.772C526.029 207.043 526.099 209.447 526.851 211.677C527.603 213.908 529.003 215.863 530.872 217.294C530.872 217.294 533.406 218.895 540.03 219.638C546.138 220.04 552.271 219.869 558.347 219.128C560.269 218.852 560.691 220.701 561.769 225.782C562.715 230.223 563.545 237.78 565.292 237.794Z" fill="#263238"/>
<path d="M568.379 218.153L574.596 214.746C574.394 214.325 574.109 213.95 573.757 213.643C573.406 213.336 572.995 213.104 572.551 212.961C572.107 212.818 571.638 212.767 571.174 212.811C570.709 212.855 570.259 212.993 569.849 213.217C569.016 213.693 568.398 214.471 568.124 215.39C567.851 216.31 567.942 217.299 568.379 218.153Z" fill="#263238"/>
<path d="M546.364 257.902C546.364 257.902 555.624 255.951 558.842 254.203C560.739 253.195 562.287 251.637 563.283 249.733C562.813 251.63 561.966 253.413 560.793 254.975C558.449 258.033 546.393 260.362 546.393 260.362L546.364 257.902Z" fill="#9A4A4D"/>
<path d="M545.621 234.577C545.618 234.824 545.663 235.071 545.755 235.301C545.846 235.531 545.983 235.741 546.156 235.918C546.329 236.096 546.536 236.237 546.764 236.334C546.992 236.431 547.237 236.482 547.485 236.484C547.872 236.498 548.255 236.397 548.583 236.192C548.912 235.986 549.171 235.688 549.328 235.334C549.485 234.979 549.532 234.587 549.464 234.205C549.395 233.824 549.214 233.472 548.943 233.195C548.672 232.918 548.325 232.729 547.945 232.651C547.566 232.574 547.172 232.612 546.814 232.761C546.457 232.909 546.152 233.162 545.939 233.486C545.727 233.809 545.616 234.189 545.621 234.577Z" fill="#263238"/>
<path d="M551.14 228.185L547.005 226.307C546.764 226.872 546.751 227.509 546.968 228.084C547.185 228.658 547.615 229.128 548.169 229.393C548.443 229.515 548.738 229.579 549.038 229.584C549.337 229.589 549.634 229.533 549.911 229.42C550.189 229.307 550.44 229.14 550.651 228.928C550.862 228.715 551.028 228.463 551.14 228.185Z" fill="#263238"/>
<path d="M533.449 225.898L529.853 228.723C530.023 228.968 530.242 229.175 530.495 229.332C530.749 229.489 531.032 229.591 531.327 229.634C531.622 229.676 531.923 229.657 532.21 229.578C532.498 229.499 532.766 229.362 532.998 229.174C533.475 228.788 533.788 228.234 533.872 227.626C533.956 227.017 533.804 226.4 533.449 225.898Z" fill="#263238"/>
<path d="M531.28 234.125C531.297 234.473 531.416 234.808 531.622 235.089C531.828 235.37 532.112 235.584 532.438 235.704C532.765 235.825 533.12 235.847 533.459 235.768C533.798 235.688 534.106 235.511 534.345 235.258C534.584 235.005 534.744 234.688 534.804 234.345C534.864 234.002 534.822 233.649 534.683 233.33C534.544 233.01 534.314 232.739 534.023 232.549C533.731 232.359 533.39 232.259 533.042 232.262C532.803 232.267 532.568 232.32 532.351 232.417C532.133 232.514 531.936 232.653 531.772 232.826C531.609 233 531.481 233.204 531.396 233.427C531.312 233.65 531.272 233.887 531.28 234.125Z" fill="#263238"/>
<path d="M540.919 232.626L539.87 243.764L534.119 241.551L540.919 232.626Z" fill="#9A4A4D"/>
<path d="M544.078 247.943C544.075 248.298 544.178 248.646 544.373 248.942C544.568 249.239 544.847 249.47 545.173 249.608C545.5 249.746 545.861 249.784 546.209 249.716C546.558 249.649 546.878 249.479 547.13 249.229C547.382 248.979 547.554 248.66 547.624 248.313C547.695 247.965 547.66 247.604 547.525 247.276C547.39 246.948 547.16 246.667 546.865 246.47C546.571 246.272 546.224 246.167 545.869 246.167C545.397 246.167 544.943 246.354 544.608 246.686C544.272 247.019 544.082 247.471 544.078 247.943Z" fill="#9A4A4D"/>
<path d="M589.534 129.322C592.311 129.941 594.987 130.945 597.484 132.307C599.872 133.593 602.012 135.294 603.803 137.33C605.526 139.304 606.798 141.629 607.531 144.144C608.297 146.811 608.357 149.631 607.705 152.327C607.274 154.468 606.423 156.502 605.201 158.311C604.103 159.868 602.784 161.256 601.284 162.432C599.817 163.571 598.253 164.579 596.611 165.446L591.98 167.892C590.584 168.621 589.258 169.479 588.02 170.454C586.902 171.303 586.044 172.448 585.545 173.76C585.294 174.344 584.885 174.848 584.366 175.216C584.116 175.406 583.827 175.538 583.519 175.601C583.212 175.664 582.894 175.657 582.589 175.58L575.775 174.124C575.448 174.055 575.138 173.921 574.863 173.731C574.588 173.541 574.354 173.298 574.174 173.017C573.983 172.753 573.857 172.449 573.807 172.127C573.756 171.806 573.782 171.477 573.882 171.168C574.45 169.05 575.44 167.069 576.794 165.344C578.014 163.822 579.423 162.461 580.988 161.296C582.498 160.191 584.101 159.216 585.778 158.384C587.438 157.554 588.981 156.753 590.408 155.967C591.713 155.278 592.938 154.448 594.063 153.492C595.043 152.666 595.724 151.541 595.999 150.289C596.251 149.196 596.234 148.058 595.95 146.972C595.666 145.887 595.123 144.887 594.368 144.057C592.486 142 589.969 140.631 587.219 140.17C582.133 139.034 577.833 140.747 574.319 145.309C573.982 145.809 573.552 146.239 573.052 146.576C572.782 146.714 572.487 146.796 572.185 146.819C571.882 146.841 571.578 146.803 571.291 146.707L564.011 145.091C563.754 145.041 563.51 144.941 563.292 144.796C563.075 144.651 562.888 144.464 562.744 144.246C562.586 144.023 562.478 143.768 562.431 143.499C562.383 143.229 562.395 142.952 562.467 142.688C563.08 140.451 564.229 138.396 565.816 136.704C567.597 134.738 569.712 133.102 572.062 131.87C574.638 130.518 577.416 129.594 580.289 129.133C583.354 128.594 586.494 128.658 589.534 129.322ZM581.847 181.069C582.166 181.137 582.468 181.27 582.734 181.461C582.999 181.651 583.223 181.894 583.39 182.175C583.569 182.447 583.691 182.752 583.749 183.073C583.806 183.393 583.798 183.722 583.725 184.039L581.978 191.93C581.831 192.56 581.446 193.109 580.902 193.459C580.359 193.81 579.7 193.935 579.066 193.809L571.349 192.105C571.031 192.037 570.731 191.905 570.465 191.717C570.2 191.53 569.976 191.29 569.806 191.013C569.624 190.742 569.501 190.437 569.443 190.116C569.385 189.796 569.395 189.466 569.471 189.149L571.218 181.243C571.364 180.613 571.75 180.065 572.294 179.715C572.837 179.364 573.496 179.239 574.13 179.365L581.847 181.069Z" fill="#30003C"/>
<path d="M612.423 203.564C614.349 203.247 616.31 203.208 618.247 203.448C620.109 203.659 621.919 204.202 623.59 205.05C625.187 205.866 626.587 207.019 627.696 208.427C628.872 209.937 629.63 211.73 629.895 213.625C630.197 215.1 630.197 216.621 629.895 218.095C629.592 219.378 629.101 220.61 628.439 221.75C627.79 222.849 627.05 223.891 626.226 224.866L623.882 227.632C623.176 228.46 622.543 229.346 621.989 230.282C621.495 231.114 621.243 232.067 621.261 233.034C621.258 233.488 621.127 233.932 620.882 234.315C620.771 234.498 620.62 234.655 620.442 234.773C620.263 234.891 620.06 234.968 619.848 234.999L615.087 235.786C614.627 235.858 614.157 235.748 613.777 235.48C613.59 235.358 613.434 235.195 613.32 235.003C613.207 234.811 613.139 234.596 613.122 234.373C612.922 232.881 613.037 231.364 613.457 229.918C613.834 228.621 614.388 227.381 615.102 226.234C615.783 225.136 616.558 224.099 617.417 223.133C618.276 222.172 619.048 221.269 619.776 220.396C620.432 219.619 621.003 218.775 621.479 217.877C621.896 217.097 622.045 216.202 621.901 215.329C621.783 214.562 621.48 213.835 621.018 213.211C620.557 212.587 619.95 212.085 619.251 211.747C617.526 210.904 615.566 210.668 613.689 211.077C611.992 211.328 610.413 212.095 609.167 213.276C607.922 214.456 607.071 215.991 606.73 217.673C606.637 218.084 606.469 218.474 606.235 218.823C605.952 219.133 605.561 219.321 605.143 219.347L600.076 220.177C599.716 220.237 599.347 220.159 599.042 219.959C598.883 219.856 598.748 219.719 598.647 219.558C598.547 219.397 598.483 219.216 598.46 219.027C598.284 217.437 598.499 215.827 599.086 214.339C599.718 212.618 600.655 211.025 601.852 209.636C603.158 208.112 604.702 206.809 606.424 205.778C608.261 204.657 610.298 203.906 612.423 203.564ZM620.737 238.785C620.96 238.748 621.188 238.755 621.408 238.808C621.628 238.86 621.836 238.957 622.018 239.091C622.2 239.22 622.354 239.385 622.472 239.575C622.589 239.765 622.668 239.977 622.702 240.197L623.605 245.701C623.642 245.924 623.635 246.153 623.582 246.373C623.53 246.593 623.433 246.8 623.299 246.982C623.172 247.166 623.007 247.322 622.817 247.44C622.627 247.557 622.414 247.635 622.193 247.667L616.805 248.555C616.584 248.591 616.359 248.583 616.141 248.53C615.923 248.478 615.719 248.382 615.539 248.249C615.352 248.123 615.194 247.959 615.073 247.769C614.953 247.579 614.873 247.365 614.84 247.143L613.937 241.624C613.87 241.171 613.986 240.709 614.259 240.341C614.532 239.972 614.94 239.727 615.393 239.659L620.737 238.785Z" fill="#30003C"/>
<g opacity="0.2">
<path opacity="0.2" d="M612.423 203.564C614.349 203.247 616.31 203.208 618.247 203.448C620.109 203.659 621.919 204.202 623.59 205.05C625.187 205.866 626.587 207.019 627.696 208.427C628.872 209.937 629.63 211.73 629.895 213.625C630.197 215.1 630.197 216.621 629.895 218.095C629.592 219.378 629.101 220.61 628.439 221.75C627.79 222.849 627.05 223.891 626.226 224.866L623.882 227.632C623.176 228.46 622.543 229.346 621.989 230.282C621.495 231.114 621.243 232.067 621.261 233.034C621.258 233.488 621.127 233.932 620.882 234.315C620.771 234.498 620.62 234.655 620.442 234.773C620.263 234.891 620.06 234.968 619.848 234.999L615.087 235.786C614.627 235.858 614.157 235.748 613.777 235.48C613.59 235.358 613.434 235.195 613.32 235.003C613.207 234.811 613.139 234.596 613.122 234.373C612.922 232.881 613.037 231.364 613.457 229.918C613.834 228.621 614.388 227.381 615.102 226.234C615.783 225.136 616.558 224.099 617.417 223.133C618.276 222.172 619.048 221.269 619.776 220.396C620.432 219.619 621.003 218.775 621.479 217.877C621.896 217.097 622.045 216.202 621.901 215.329C621.783 214.562 621.48 213.835 621.018 213.211C620.557 212.587 619.95 212.085 619.251 211.747C617.526 210.904 615.566 210.668 613.689 211.077C611.992 211.328 610.413 212.095 609.167 213.276C607.922 214.456 607.071 215.991 606.73 217.673C606.637 218.084 606.469 218.474 606.235 218.823C605.952 219.133 605.561 219.321 605.143 219.347L600.076 220.177C599.716 220.237 599.347 220.159 599.042 219.959C598.883 219.856 598.748 219.719 598.647 219.558C598.547 219.397 598.483 219.216 598.46 219.027C598.284 217.437 598.499 215.827 599.086 214.339C599.718 212.618 600.655 211.025 601.852 209.636C603.158 208.112 604.702 206.809 606.424 205.778C608.261 204.657 610.298 203.906 612.423 203.564ZM620.737 238.785C620.96 238.748 621.188 238.755 621.408 238.808C621.628 238.86 621.836 238.957 622.018 239.091C622.2 239.22 622.354 239.385 622.472 239.575C622.589 239.765 622.668 239.977 622.702 240.197L623.605 245.701C623.642 245.924 623.635 246.153 623.582 246.373C623.53 246.593 623.433 246.8 623.299 246.982C623.172 247.166 623.007 247.322 622.817 247.44C622.627 247.557 622.414 247.635 622.193 247.667L616.805 248.555C616.584 248.591 616.359 248.583 616.141 248.53C615.923 248.478 615.719 248.382 615.539 248.249C615.352 248.123 615.194 247.959 615.073 247.769C614.953 247.579 614.873 247.365 614.84 247.143L613.937 241.624C613.87 241.171 613.986 240.709 614.259 240.341C614.532 239.972 614.94 239.727 615.393 239.659L620.737 238.785Z" fill="black"/>
</g>
<path d="M662.072 219.187C662.505 219.502 662.797 219.974 662.887 220.502C662.977 221.029 662.857 221.571 662.553 222.012L658.709 227.399C658.394 227.831 657.922 228.124 657.394 228.213C656.867 228.303 656.325 228.183 655.884 227.879L650.614 224.137C650.396 223.985 650.212 223.791 650.072 223.566C649.932 223.34 649.839 223.089 649.798 222.827C649.722 222.317 649.841 221.796 650.133 221.371L653.977 215.969C654.289 215.535 654.76 215.242 655.287 215.154C655.8 215.077 656.322 215.202 656.743 215.503L662.072 219.187ZM684.32 182.656C686.221 183.997 687.917 185.605 689.358 187.432C690.749 189.17 691.819 191.142 692.517 193.256C693.185 195.276 693.408 197.416 693.173 199.531C692.899 201.783 692.047 203.925 690.697 205.748C689.692 207.222 688.405 208.484 686.912 209.461C685.584 210.285 684.141 210.908 682.631 211.31C681.167 211.701 679.671 211.964 678.161 212.096L673.88 212.46C672.602 212.578 671.336 212.802 670.095 213.13C668.984 213.423 667.977 214.018 667.183 214.848C666.801 215.22 666.33 215.486 665.814 215.62C665.564 215.679 665.304 215.682 665.052 215.63C664.8 215.577 664.564 215.469 664.358 215.314L659.699 212.009C659.254 211.689 658.952 211.209 658.855 210.669C658.799 210.415 658.803 210.151 658.866 209.899C658.929 209.646 659.05 209.412 659.219 209.213C660.302 207.793 661.665 206.608 663.223 205.734C664.625 204.965 666.123 204.387 667.678 204.015C669.17 203.655 670.689 203.421 672.221 203.317C673.677 203.229 675.133 203.113 676.472 202.982C677.675 202.878 678.862 202.639 680.01 202.268C681.012 201.963 681.883 201.333 682.485 200.477C683.027 199.736 683.379 198.873 683.511 197.965C683.643 197.057 683.551 196.13 683.243 195.265C682.483 193.119 681.028 191.289 679.108 190.067C675.642 187.592 671.857 187.509 667.751 189.819C667.336 190.084 666.878 190.271 666.397 190.373C666.147 190.39 665.896 190.358 665.658 190.278C665.421 190.199 665.202 190.072 665.013 189.907L660.063 186.383C659.703 186.138 659.452 185.762 659.364 185.335C659.322 185.117 659.327 184.892 659.38 184.675C659.433 184.459 659.532 184.257 659.67 184.083C660.823 182.594 662.322 181.409 664.038 180.632C666.007 179.721 668.122 179.164 670.284 178.987C672.652 178.794 675.036 178.98 677.346 179.54C679.854 180.106 682.225 181.165 684.32 182.656Z" fill="#30003C"/>
<g opacity="0.6">
<path opacity="0.6" d="M662.072 219.187C662.505 219.502 662.797 219.974 662.887 220.502C662.977 221.029 662.857 221.571 662.553 222.012L658.709 227.399C658.394 227.831 657.922 228.124 657.394 228.213C656.867 228.303 656.325 228.183 655.884 227.879L650.614 224.137C650.396 223.985 650.212 223.791 650.072 223.566C649.932 223.34 649.839 223.089 649.798 222.827C649.722 222.317 649.841 221.796 650.133 221.371L653.977 215.969C654.289 215.535 654.76 215.242 655.287 215.154C655.8 215.077 656.322 215.202 656.743 215.503L662.072 219.187ZM684.32 182.656C686.221 183.997 687.917 185.605 689.358 187.432C690.749 189.17 691.819 191.142 692.517 193.256C693.185 195.276 693.408 197.416 693.173 199.531C692.899 201.783 692.047 203.925 690.697 205.748C689.692 207.222 688.405 208.484 686.912 209.461C685.584 210.285 684.141 210.908 682.631 211.31C681.167 211.701 679.671 211.964 678.161 212.096L673.88 212.46C672.602 212.578 671.336 212.802 670.095 213.13C668.984 213.423 667.977 214.018 667.183 214.848C666.801 215.22 666.33 215.486 665.814 215.62C665.564 215.679 665.304 215.682 665.052 215.63C664.8 215.577 664.564 215.469 664.358 215.314L659.699 212.009C659.254 211.689 658.952 211.209 658.855 210.669C658.799 210.415 658.803 210.151 658.866 209.899C658.929 209.646 659.05 209.412 659.219 209.213C660.302 207.793 661.665 206.608 663.223 205.734C664.625 204.965 666.123 204.387 667.678 204.015C669.17 203.655 670.689 203.421 672.221 203.317C673.677 203.229 675.133 203.113 676.472 202.982C677.675 202.878 678.862 202.639 680.01 202.268C681.012 201.963 681.883 201.333 682.485 200.477C683.027 199.736 683.379 198.873 683.511 197.965C683.643 197.057 683.551 196.13 683.243 195.265C682.483 193.119 681.028 191.289 679.108 190.067C675.642 187.592 671.857 187.509 667.751 189.819C667.336 190.084 666.878 190.271 666.397 190.373C666.147 190.39 665.896 190.358 665.658 190.278C665.421 190.199 665.202 190.072 665.013 189.907L660.063 186.383C659.703 186.138 659.452 185.762 659.364 185.335C659.322 185.117 659.327 184.892 659.38 184.675C659.433 184.459 659.532 184.257 659.67 184.083C660.823 182.594 662.322 181.409 664.038 180.632C666.007 179.721 668.122 179.164 670.284 178.987C672.652 178.794 675.036 178.98 677.346 179.54C679.854 180.106 682.225 181.165 684.32 182.656Z" fill="white"/>
</g>
<path d="M192.891 507.446C192.745 503.078 195.89 460.388 195.89 460.388L175.099 475.472C179.365 500.923 180.282 506.936 180.355 511.1C180.267 511.447 180.228 511.805 180.238 512.163C180.238 517.113 185.844 519.778 190.197 523.083C193.897 525.976 197.838 528.548 201.976 530.771C205.136 532.358 211.571 532.503 212.358 530.465C207.058 526.417 199.356 520.36 195.133 515.745C193.124 513.532 193.051 511.784 192.891 507.446Z" fill="#FFA8A7"/>
<path d="M221.399 535.81C221.635 536.489 221.677 537.221 221.52 537.923C221.363 538.625 221.014 539.27 220.511 539.785C216.693 542.538 211.94 543.668 207.291 542.93C200.68 542.07 197.099 540.192 194.463 537.979C191.828 535.766 188.115 532.65 185.116 531.995C182.731 531.541 180.463 530.61 178.447 529.258C177.559 528.399 177.676 524.584 177.676 524.584L221.399 535.81Z" fill="#263238"/>
<path d="M180.311 509.893C180.066 509.9 179.832 509.993 179.648 510.155C179.465 510.317 179.344 510.539 179.306 510.781C179.103 511.829 178.884 514.887 178.447 516.605C177.772 519.642 177.556 522.764 177.807 525.865C178.171 527.831 182.684 529.185 185.582 530.233C188.989 531.716 192.151 533.709 194.958 536.144C199.01 539.174 203.846 540.978 208.892 541.342C213.988 541.342 219.725 539.653 221.05 537.294C222.666 534.382 221.399 532.679 213.843 529.17C212.387 528.515 207.393 525.53 205.675 524.453C201.044 521.541 196.458 517.478 194.318 512.324C194.145 511.694 193.766 511.14 193.24 510.752C192.782 510.554 192.273 510.503 191.784 510.606C190.522 510.79 189.295 511.163 188.144 511.713C187.14 512.193 185.698 512.761 185.713 514.057C185.744 514.506 185.842 514.947 186.004 515.367C186.091 515.644 186.164 515.993 186.004 516.153C185.844 516.314 185.494 516.153 185.291 515.95C184.55 515.191 183.873 514.373 183.267 513.503C182.909 513.058 182.504 512.653 182.058 512.295C181.613 512.042 181.185 511.76 180.777 511.45C180.224 511.057 180.34 510.504 180.311 509.893Z" fill="#455A64"/>
<path d="M194.958 536.216C193.633 535.139 192.236 534.076 190.838 533.144C190.838 533.144 199.72 538.546 203.301 536.056C203.966 535.635 204.452 534.983 204.667 534.226C204.882 533.468 204.81 532.658 204.466 531.95C204.466 531.339 210.115 528.703 212.358 528.441C212.984 528.791 213.508 529.067 213.814 529.213C221.37 532.722 222.637 534.411 221.021 537.338C219.696 539.696 215.546 541.545 208.965 541.545C204.684 541.633 198.016 538.721 194.958 536.216Z" fill="#37474F"/>
<path d="M203.84 530.189C208.543 532.067 206.534 532.941 205.223 533.101C203.913 533.261 196.007 528.733 191.173 524.86C186.339 520.987 182.976 516.517 181.112 515.061C180.413 514.522 179.656 513.853 178.986 513.227C179.117 512.193 179.219 511.247 179.306 510.751C179.344 510.509 179.465 510.288 179.648 510.126C179.832 509.964 180.066 509.871 180.311 509.863C180.311 510.475 180.224 511.043 180.69 511.494C181.097 511.804 181.525 512.086 181.971 512.339C182.416 512.696 182.821 513.102 183.179 513.547C183.785 514.417 184.462 515.235 185.203 515.993C190.443 521.882 196.771 526.702 203.84 530.189Z" fill="#263238"/>
<path d="M204.888 532.446C204.781 532.442 204.678 532.401 204.597 532.329C204.55 532.292 204.51 532.246 204.481 532.194C204.452 532.142 204.433 532.084 204.426 532.024C204.419 531.965 204.425 531.904 204.441 531.847C204.458 531.789 204.486 531.735 204.524 531.689C205.632 530.539 206.973 529.64 208.457 529.052C209.942 528.464 211.535 528.201 213.129 528.282C213.254 528.296 213.369 528.359 213.447 528.457C213.526 528.556 213.564 528.681 213.551 528.806C213.537 528.927 213.475 529.038 213.38 529.114C213.285 529.19 213.163 529.226 213.042 529.214C211.602 529.154 210.166 529.395 208.825 529.921C207.484 530.448 206.267 531.248 205.252 532.271C205.208 532.325 205.152 532.368 205.09 532.399C205.027 532.429 204.958 532.445 204.888 532.446Z" fill="#F5F5F5"/>
<path d="M200.797 529.985C200.686 529.99 200.577 529.954 200.491 529.883C200.408 529.794 200.362 529.677 200.362 529.556C200.362 529.434 200.408 529.317 200.491 529.228C201.601 528.082 202.943 527.187 204.427 526.602C205.911 526.017 207.503 525.755 209.096 525.835C209.22 525.849 209.333 525.911 209.411 526.008C209.489 526.105 209.525 526.229 209.511 526.352C209.498 526.476 209.436 526.589 209.339 526.667C209.242 526.745 209.118 526.781 208.994 526.767C207.554 526.704 206.117 526.943 204.775 527.47C203.434 527.997 202.217 528.799 201.205 529.825C201.155 529.883 201.092 529.928 201.021 529.956C200.95 529.984 200.873 529.994 200.797 529.985Z" fill="#F5F5F5"/>
<path d="M196.691 527.524C196.585 527.525 196.482 527.489 196.4 527.422C196.314 527.335 196.265 527.217 196.265 527.094C196.265 526.972 196.314 526.854 196.4 526.767C197.51 525.622 198.852 524.727 200.336 524.142C201.82 523.557 203.412 523.295 205.005 523.374C205.066 523.38 205.126 523.397 205.18 523.426C205.235 523.454 205.283 523.494 205.322 523.541C205.361 523.588 205.391 523.643 205.409 523.702C205.427 523.761 205.433 523.823 205.427 523.884C205.422 523.945 205.404 524.005 205.375 524.059C205.347 524.114 205.308 524.162 205.26 524.201C205.213 524.24 205.158 524.27 205.099 524.288C205.041 524.306 204.979 524.312 204.918 524.306C203.477 524.243 202.04 524.482 200.698 525.009C199.357 525.536 198.14 526.338 197.128 527.364C197.074 527.424 197.006 527.47 196.929 527.498C196.853 527.526 196.771 527.535 196.691 527.524Z" fill="#F5F5F5"/>
<path d="M192.891 524.802C192.785 524.803 192.682 524.767 192.6 524.7C192.555 524.658 192.52 524.607 192.496 524.551C192.471 524.495 192.459 524.434 192.459 524.373C192.459 524.311 192.471 524.251 192.496 524.194C192.52 524.138 192.555 524.087 192.6 524.045C193.708 522.898 195.05 522.001 196.534 521.416C198.019 520.831 199.611 520.57 201.205 520.652C201.326 520.667 201.436 520.729 201.513 520.824C201.589 520.919 201.625 521.041 201.612 521.162C201.598 521.283 201.536 521.394 201.441 521.47C201.346 521.546 201.224 521.582 201.103 521.57C199.663 521.513 198.228 521.755 196.887 522.281C195.546 522.808 194.329 523.607 193.313 524.627C193.264 524.69 193.199 524.739 193.125 524.77C193.051 524.801 192.97 524.812 192.891 524.802Z" fill="#F5F5F5"/>
<path d="M189.178 522.079C189.073 522.074 188.972 522.039 188.887 521.977C188.801 521.89 188.752 521.772 188.752 521.649C188.752 521.527 188.801 521.409 188.887 521.322C190.088 520.072 191.558 519.113 193.185 518.517C194.813 517.922 196.554 517.706 198.278 517.886C198.34 517.889 198.4 517.905 198.455 517.933C198.51 517.961 198.558 518.001 198.596 518.049C198.635 518.097 198.663 518.153 198.678 518.212C198.694 518.272 198.696 518.334 198.686 518.395C198.671 518.516 198.61 518.627 198.514 518.703C198.419 518.779 198.298 518.815 198.176 518.803C196.609 518.648 195.028 518.845 193.547 519.379C192.066 519.913 190.723 520.771 189.615 521.89C189.564 521.955 189.497 522.007 189.421 522.04C189.344 522.073 189.261 522.087 189.178 522.079Z" fill="#F5F5F5"/>
<path d="M153.725 479.826L132.744 479.447C133.049 493.454 135.277 508.99 135.656 522.123C135.656 524.598 135.656 541.342 136.529 546.438C137.985 554.082 147.012 553.048 147.493 548.476C147.973 543.904 146.91 524.35 146.94 522.268C146.852 513.853 150.798 499.627 152.88 484.5C152.967 483.815 153.623 480.554 153.725 479.826Z" fill="#FFA8A7"/>
<path d="M150.9 551.65C151.29 555.154 150.789 558.7 149.444 561.959C148.778 563.253 147.704 564.292 146.387 564.913C145.071 565.534 143.586 565.704 142.164 565.395C139.063 564.944 134.971 563.284 133.719 559.571C132.533 556.151 132.116 552.512 132.496 548.913L150.9 551.65Z" fill="#263238"/>
<path d="M135.597 520.521C134.36 520.739 134.593 526.781 134.476 532.853C134.345 539.376 132.7 542.229 132.54 547.573C132.35 553.688 132.947 556.309 135.452 559.774C137.956 563.24 145.775 566.035 148.934 560.444C151.511 555.887 151.162 551.155 150.274 545.156C149.386 539.157 148.687 534.615 148.454 529.868C148.221 525.121 148.119 520.914 146.998 520.521C146.998 521.19 146.998 522.049 146.998 522.705C146.998 523.36 147.1 525.617 146.401 525.762C146.293 525.2 146.23 524.631 146.212 524.059C146.244 523.53 146.072 523.008 145.731 522.603C145.31 522.292 144.798 522.128 144.275 522.137C143.028 521.996 141.774 521.928 140.519 521.933C139.893 521.933 139.252 521.933 138.64 522.035C138.102 522.076 137.575 522.209 137.082 522.428C136.937 522.49 136.807 522.581 136.699 522.697C136.591 522.812 136.508 522.949 136.456 523.098C136.413 523.329 136.413 523.566 136.456 523.797C136.507 524.212 136.507 524.633 136.456 525.049C136.456 525.238 136.325 525.471 136.136 525.442C135.947 525.413 135.918 525.238 135.903 525.092C135.816 524.364 135.903 523.826 135.816 522.981C135.816 522.588 135.816 522.049 135.816 521.656C135.816 521.263 135.612 520.914 135.597 520.521Z" fill="#455A64"/>
<path d="M132.642 545.826C132.642 546.714 132.452 552.553 134.098 553.427C135.743 554.3 136.384 549.757 136.384 549.757C136.384 549.757 140.242 548.141 146.299 550.092C146.095 551.053 147.289 554.053 148.818 553.237C150.347 552.422 150.274 545.768 150.274 545.681C151.104 551.505 151.366 556.018 148.818 560.445C145.658 566.036 137.81 563.211 135.335 559.775C132.86 556.339 132.263 553.689 132.423 547.573C132.496 546.962 132.598 546.394 132.642 545.826Z" fill="#37474F"/>
<path d="M136.864 550.093C137.053 552.277 134.84 551.767 134.432 548.637C134.025 545.506 134.986 538.095 134.432 532.795C134.549 526.724 134.316 520.681 135.554 520.463C135.546 520.536 135.546 520.609 135.554 520.681L135.699 523.753C135.67 524.19 135.67 524.628 135.699 525.064C136.107 529.519 136.354 538.168 136.369 542.274C136.395 544.887 136.56 547.497 136.864 550.093Z" fill="#263238"/>
<path d="M145.6 550.092C145.885 547.515 146.026 544.924 146.022 542.331C146.022 538.255 146.284 529.708 146.692 525.223C146.85 524.394 146.913 523.549 146.881 522.705C146.881 522.093 146.881 521.249 146.881 520.666C146.881 520.666 146.881 520.579 146.881 520.521C147.697 520.826 147.988 523.229 148.163 526.257C148.163 528.019 148.163 530.203 148.002 532.853C147.449 538.153 148.41 545.666 148.002 548.738C147.595 551.81 145.454 552.276 145.6 550.092Z" fill="#263238"/>
<path d="M146.459 550.253H146.299C143.153 549.167 139.733 549.167 136.587 550.253C136.53 550.275 136.469 550.286 136.407 550.284C136.346 550.282 136.286 550.269 136.229 550.244C136.173 550.219 136.123 550.183 136.08 550.138C136.038 550.094 136.005 550.041 135.983 549.984C135.961 549.926 135.951 549.865 135.952 549.804C135.954 549.742 135.968 549.682 135.993 549.626C136.018 549.57 136.054 549.519 136.098 549.477C136.143 549.435 136.195 549.401 136.253 549.38C139.609 548.181 143.277 548.181 146.634 549.38C146.691 549.4 146.743 549.433 146.788 549.474C146.832 549.516 146.868 549.566 146.892 549.622C146.917 549.678 146.93 549.738 146.93 549.799C146.931 549.86 146.919 549.92 146.896 549.976C146.86 550.062 146.799 550.134 146.721 550.184C146.643 550.233 146.551 550.257 146.459 550.253Z" fill="#F5F5F5"/>
<path d="M147.056 545.419C147.003 545.431 146.948 545.431 146.896 545.419C143.359 544.32 139.571 544.32 136.034 545.419C135.976 545.439 135.914 545.448 135.852 545.444C135.791 545.441 135.73 545.425 135.675 545.398C135.619 545.371 135.569 545.333 135.529 545.287C135.488 545.24 135.457 545.186 135.437 545.127C135.417 545.07 135.408 545.009 135.412 544.949C135.416 544.888 135.431 544.828 135.459 544.774C135.486 544.72 135.524 544.671 135.57 544.632C135.616 544.593 135.67 544.563 135.728 544.545C139.465 543.355 143.479 543.355 147.216 544.545C147.319 544.583 147.404 544.656 147.458 544.75C147.513 544.845 147.532 544.956 147.513 545.063C147.494 545.171 147.438 545.268 147.354 545.338C147.271 545.408 147.165 545.447 147.056 545.448V545.419Z" fill="#F5F5F5"/>
<path d="M135.845 540.846C135.756 540.844 135.669 540.817 135.594 540.768C135.52 540.719 135.46 540.651 135.423 540.57C135.373 540.458 135.37 540.331 135.414 540.216C135.457 540.102 135.544 540.009 135.655 539.958C139.334 538.512 143.418 538.486 147.114 539.886C147.171 539.906 147.224 539.939 147.268 539.98C147.313 540.022 147.348 540.072 147.373 540.128C147.397 540.184 147.41 540.244 147.411 540.305C147.411 540.366 147.4 540.426 147.376 540.482C147.331 540.596 147.243 540.686 147.131 540.735C147.02 540.784 146.893 540.788 146.779 540.745C146.779 540.745 141.072 538.502 136.049 540.745C135.989 540.794 135.92 540.828 135.845 540.846Z" fill="#F5F5F5"/>
<path d="M135.743 536.566C135.655 536.567 135.569 536.542 135.494 536.496C135.419 536.45 135.359 536.383 135.321 536.304C135.27 536.194 135.265 536.068 135.306 535.954C135.347 535.84 135.43 535.746 135.539 535.692C137.364 534.86 139.343 534.419 141.349 534.396C143.355 534.374 145.343 534.771 147.187 535.561C147.242 535.586 147.292 535.622 147.333 535.667C147.374 535.711 147.406 535.764 147.426 535.821C147.446 535.878 147.455 535.938 147.452 535.999C147.448 536.059 147.432 536.119 147.405 536.173C147.38 536.228 147.345 536.278 147.3 536.319C147.255 536.36 147.203 536.391 147.146 536.412C147.089 536.432 147.028 536.441 146.968 536.437C146.907 536.434 146.848 536.418 146.794 536.391C145.064 535.675 143.207 535.317 141.335 535.34C139.463 535.362 137.615 535.765 135.903 536.522C135.852 536.546 135.798 536.56 135.743 536.566Z" fill="#F5F5F5"/>
<path d="M135.641 531.776C135.534 531.777 135.43 531.742 135.346 531.676C135.262 531.61 135.204 531.518 135.18 531.414C135.156 531.31 135.169 531.201 135.215 531.105C135.262 531.009 135.34 530.932 135.437 530.887C140.984 528.15 146.969 530.771 147.216 530.887C147.274 530.909 147.327 530.943 147.37 530.987C147.414 531.03 147.448 531.083 147.47 531.141C147.492 531.198 147.502 531.26 147.498 531.322C147.495 531.384 147.478 531.444 147.449 531.499C147.398 531.61 147.306 531.697 147.191 531.741C147.077 531.784 146.95 531.781 146.838 531.732C146.838 531.732 141.014 529.184 135.859 531.732C135.792 531.766 135.716 531.782 135.641 531.776Z" fill="#F5F5F5"/>
<path d="M139.645 343.616C132.248 364.102 133.544 376.959 134.811 398.435C135.976 418.12 137.825 435.461 137.825 435.461C137.534 438.955 132.671 445.769 132.001 461.203C131.786 472.07 132.273 482.94 133.457 493.744C133.457 493.744 143.139 497.282 151.322 493.744C151.322 493.744 159.694 456.777 161.98 438.708C163.96 422.939 167.425 402.788 167.425 402.788L174.705 438.635C173.282 443.452 172.552 448.448 172.536 453.471C172.536 461.902 176.453 485.343 176.453 485.343C176.453 485.343 187.3 488.852 194.172 482.752C194.172 482.752 196.895 449.016 197.856 436.16C199.137 419.008 197.273 371.994 193.153 347.926L139.645 343.616Z" fill="#455A64"/>
<path d="M167.513 402.731L170.541 375.765C170.541 375.765 184.097 373.96 190.241 368.18C188.478 370.936 186.129 373.27 183.36 375.014C180.592 376.759 177.473 377.87 174.225 378.27L169.857 403.371L174.807 438.577L167.513 402.731Z" fill="#37474F"/>
<path d="M201.03 323.626C194.434 316.841 182.524 301.495 182.524 301.495L175.797 278.199C177.301 278.277 178.808 278.277 180.311 278.199C187.591 278.68 189.731 279.306 194.26 284.256C197.856 288.202 211.571 306.926 216.332 313.231L228.985 297.113C232.028 292.526 231.533 287.387 233.106 283.645C234.678 279.903 237.226 278.257 239.264 274.909C241.303 271.56 241.783 269.318 243.458 271.05C245.132 272.783 243.196 277.442 242.948 278.505C242.701 279.568 240.138 282.727 244.404 281.082C248.67 279.437 255.251 271.647 256.94 270.06C258.629 268.473 259.532 270.934 259.153 272.885C258.775 274.836 260.609 279.233 259.94 282.451C259.523 285.687 257.913 288.652 255.426 290.765C252.354 293.851 244.841 297.651 241.9 301.714C238.959 305.776 232.683 318.399 228.796 326C223.918 335.668 219.769 338.856 214.236 335.595C208.703 332.333 203.461 326.145 201.03 323.626Z" fill="#FFA8A7"/>
<path d="M177.938 277.952C181.661 277.58 185.419 278.078 188.916 279.408C192.862 281.184 195.541 284.999 199.399 290.167C203.258 295.336 210.144 304.378 210.144 304.378C210.144 304.378 208.281 312.226 195.992 319.273L175.928 298.612L177.938 277.952Z" fill="#37474F"/>
<path d="M216.332 313.216C213.932 315.48 212.324 318.456 211.746 321.704C211.746 321.704 210.29 317.031 215.255 311.774L216.332 313.216Z" fill="#F28F8F"/>
<path d="M192.469 319.316C201.423 311.949 198.467 302.354 195.206 295.889C188.668 282.975 181.869 277.893 179.03 277.937L161.223 278.112C152.72 279.276 146.139 278.694 144.086 279.174C138.844 280.412 138.728 284.722 138.524 290.298C138.305 296.413 135.175 295.38 136.762 305.484C138.634 309.24 140.277 313.106 141.683 317.06C142.644 320.554 145.352 326.116 143.911 331.765C143.358 333.949 141.873 336.133 139.645 342.117C137.119 348.844 135.242 355.796 134.039 362.88C134.039 362.88 139.237 361.671 145.149 355.381C145.149 355.381 153.229 366.2 172.667 365.108C192.833 363.972 194.609 353.46 194.609 353.46L191.522 334.532C191.988 326.888 192.192 324.121 192.469 319.316Z" fill="#FF3242"/>
<path opacity="0.1" d="M180.835 317.41C180.835 317.41 173.555 323.234 165.008 320.438C162.628 319.724 160.469 318.413 158.739 316.629C157.008 314.845 155.763 312.647 155.122 310.246C155.122 310.246 154.394 319.928 165.14 323.044C168.014 323.916 171.093 323.839 173.92 322.824C176.747 321.809 179.172 319.911 180.835 317.41Z" fill="black"/>
<path d="M129.861 269.623C127.225 267.701 113.029 286.702 119.669 291.463C126.308 296.224 133.384 282.727 131.957 276.35C130.53 269.973 129.861 269.623 129.861 269.623Z" fill="#37474F"/>
<path d="M116.975 260.188C120.528 255.267 122.945 251.554 126.192 247.332C128.026 244.929 129.205 243.226 130.967 240.765C132.19 239.076 132.904 237.649 134.272 237.111C135.8 236.438 137.166 235.445 138.276 234.199C138.956 233.411 139.584 232.579 140.155 231.709C142.207 228.867 144.659 226.337 147.435 224.196C150.347 221.939 153.535 220.192 156.505 218.037C158.267 216.756 160.16 214.644 157.961 212.737C157.278 212.186 156.467 211.815 155.603 211.66C150.303 210.597 145.716 212.504 140.562 213.916C138.321 214.527 136.13 215.311 134.01 216.261C132.958 216.688 131.976 217.272 131.098 217.993C129.879 219.267 128.893 220.746 128.186 222.361C125.929 226.511 121.168 230.209 117.834 233.456C113.917 237.271 110.423 240.736 105.953 244.973C101.935 248.759 97.9888 252.253 94.3051 256.388C91.2621 259.795 92.4414 262.416 92.8491 263.304C95.4699 268.458 98.3237 270.278 101.76 273.496C102.896 274.544 104.046 275.578 105.196 276.612C109.651 280.63 114.107 284.387 118.737 288.26C123.687 292.337 125.726 294.317 130.137 298.277C132.921 300.834 135.241 303.854 136.995 307.202C144.639 308.469 152.152 296.777 145.6 283.106C144.522 280.895 142.892 278.999 140.868 277.602C132.802 271.851 116.975 260.188 116.975 260.188Z" fill="#FFA8A7"/>
<path d="M116.975 260.188C114.59 263.216 111.386 265.495 107.744 266.755C107.744 266.755 112.622 267.92 119.174 261.819L116.975 260.188Z" fill="#F28F8F"/>
<path d="M144.697 279.058C142.906 277.82 138.553 275.185 129.861 269.623C129.861 269.623 131.2 272.433 129.089 279.495C126.978 286.556 122.522 291.026 119.727 291.536C119.727 291.536 124.59 295.38 129.074 299.719C133.559 304.057 137.243 307.13 139.834 312.167C139.834 312.167 146.241 310.522 147.697 299.66C148.716 292.045 148.104 283.106 144.697 279.058Z" fill="#455A64"/>
<path d="M193.328 244.085C194.608 241.38 195.171 238.391 194.965 235.406C194.758 232.42 193.789 229.538 192.148 227.035C186.63 219.187 177.326 215.387 167.047 215.504H163.858C149.983 215.737 137.374 227.647 137.126 241.056C137.126 250.491 137.126 259.213 142.324 265.648C147.114 271.632 154.584 273.598 160.888 274.559C172.944 276.394 186.485 274.996 191.959 266.784C191.959 266.784 184.679 268.24 185.596 260.698C185.727 259.504 184.592 258.193 182.597 256.839C183.994 254.419 185.639 252.15 187.504 250.069C189.557 248.016 191.93 246.866 193.328 244.085Z" fill="#263238"/>
<path d="M189.731 250.972C189.659 265.022 185.16 268.56 182.903 269.609C180.646 270.657 176.22 270.104 171.924 269.478L172.07 277.908C172.07 277.908 177.093 282.989 176.802 286.862C176.511 290.735 169.114 291.23 163.509 287.605C160.421 285.56 157.62 283.112 155.18 280.325C154.715 279.786 154.452 279.101 154.438 278.388L154.088 258.572C154.088 258.572 151.788 261.091 147.595 258.325C146.689 257.771 145.908 257.035 145.302 256.163C144.695 255.292 144.277 254.304 144.073 253.262C143.869 252.22 143.884 251.147 144.117 250.111C144.349 249.075 144.795 248.099 145.425 247.244C146.018 246.669 146.729 246.229 147.51 245.958C148.29 245.687 149.121 245.591 149.942 245.675C150.764 245.76 151.558 246.024 152.266 246.449C152.975 246.873 153.582 247.448 154.045 248.133C155.326 250.52 155.21 252.209 156.957 251.933C158.704 251.656 158.777 249.763 158.893 248.409C159.01 247.055 158.893 246.618 159.068 244.842C163.218 243.954 167.513 238.174 167.993 233.951C170.804 235.334 173.903 236.032 177.035 235.99C181.68 235.669 184.082 234.737 186.368 231.389C186.913 232.155 187.349 232.993 187.664 233.878C188.311 235.671 188.798 237.518 189.12 239.397C189.638 243.232 189.843 247.103 189.731 250.972Z" fill="#FFA8A7"/>
<path d="M171.924 269.477C167.396 268.953 158.063 266.449 156.549 262.809C157.161 264.656 158.325 266.272 159.883 267.439C162.708 269.768 171.968 272.287 171.968 272.287L171.924 269.477Z" fill="#F28F8F"/>
<path d="M176.482 261.906C176.49 262.273 176.39 262.633 176.193 262.942C175.997 263.251 175.713 263.495 175.378 263.642C175.042 263.79 174.671 263.834 174.31 263.77C173.949 263.706 173.616 263.537 173.352 263.283C173.088 263.029 172.905 262.702 172.827 262.345C172.748 261.987 172.778 261.614 172.912 261.273C173.046 260.932 173.279 260.639 173.58 260.43C173.881 260.221 174.237 260.107 174.604 260.101C175.091 260.093 175.563 260.278 175.915 260.617C176.266 260.955 176.47 261.418 176.482 261.906Z" fill="#B16668"/>
<path d="M174.108 248.074C174.132 248.332 174.105 248.593 174.028 248.84C173.951 249.088 173.825 249.318 173.659 249.517C173.492 249.716 173.288 249.88 173.058 250C172.828 250.119 172.576 250.192 172.318 250.214C171.919 250.257 171.518 250.179 171.164 249.992C170.81 249.804 170.52 249.516 170.332 249.162C170.143 248.809 170.064 248.408 170.106 248.009C170.147 247.611 170.306 247.234 170.563 246.927C170.82 246.62 171.163 246.396 171.548 246.286C171.933 246.175 172.342 246.181 172.723 246.305C173.104 246.428 173.439 246.662 173.686 246.977C173.933 247.293 174.08 247.675 174.108 248.074Z" fill="#263238"/>
<path d="M187.242 247.245C187.278 247.719 187.125 248.189 186.817 248.552C186.509 248.914 186.07 249.141 185.596 249.182C185.357 249.211 185.115 249.188 184.886 249.116C184.656 249.043 184.445 248.922 184.267 248.76C184.089 248.598 183.948 248.4 183.853 248.179C183.758 247.958 183.712 247.719 183.718 247.478C183.694 247.242 183.717 247.004 183.787 246.778C183.856 246.551 183.97 246.341 184.122 246.159C184.274 245.977 184.461 245.827 184.672 245.719C184.882 245.61 185.113 245.545 185.349 245.527C185.827 245.507 186.293 245.676 186.648 245.998C187.002 246.319 187.215 246.767 187.242 247.245Z" fill="#263238"/>
<path d="M178.171 245.424L179.568 257.159L185.582 254.655L178.171 245.424Z" fill="#F28F8F"/>
<path d="M167.091 243.007L170.585 239.688C171.02 240.172 171.252 240.805 171.233 241.455C171.214 242.106 170.946 242.724 170.483 243.182C170.253 243.401 169.98 243.57 169.682 243.68C169.384 243.79 169.067 243.838 168.749 243.822C168.432 243.806 168.121 243.725 167.836 243.585C167.551 243.445 167.297 243.248 167.091 243.007Z" fill="#263238"/>
<path d="M184.577 238.61L188.45 241.522C188.272 241.785 188.042 242.009 187.774 242.18C187.506 242.35 187.206 242.464 186.892 242.515C186.578 242.565 186.258 242.551 185.95 242.473C185.642 242.395 185.353 242.255 185.101 242.061C184.594 241.659 184.258 241.079 184.161 240.439C184.064 239.799 184.212 239.145 184.577 238.61Z" fill="#263238"/>
<path d="M128.754 131.957C131.546 131.425 134.4 131.298 137.228 131.579C139.931 131.816 142.569 132.536 145.018 133.705C147.367 134.826 149.444 136.446 151.104 138.451C152.854 140.598 154.018 143.161 154.482 145.891C154.918 148.034 154.918 150.243 154.482 152.385C154.09 154.25 153.423 156.046 152.501 157.714C151.607 159.337 150.569 160.877 149.4 162.315C148.235 163.771 147.129 165.111 146.095 166.406C145.106 167.626 144.229 168.932 143.474 170.309C142.78 171.531 142.442 172.923 142.499 174.327C142.507 174.98 142.341 175.623 142.018 176.191C141.866 176.459 141.656 176.691 141.405 176.869C141.153 177.048 140.866 177.169 140.562 177.225L133.704 178.52C133.379 178.585 133.043 178.584 132.718 178.516C132.393 178.449 132.085 178.316 131.812 178.127C131.528 177.965 131.288 177.735 131.113 177.458C130.937 177.182 130.833 176.867 130.807 176.54C130.473 174.386 130.582 172.186 131.127 170.076C131.645 168.195 132.404 166.389 133.384 164.703C134.332 163.097 135.419 161.577 136.631 160.16C137.84 158.704 138.932 157.394 139.936 156.113C140.86 154.962 141.66 153.717 142.324 152.4C142.895 151.256 143.074 149.957 142.834 148.701C142.64 147.595 142.18 146.553 141.492 145.665C140.805 144.777 139.911 144.07 138.888 143.605C136.351 142.453 133.501 142.181 130.792 142.834C125.687 143.804 122.411 147.076 120.965 152.647C120.837 153.235 120.611 153.796 120.295 154.307C119.891 154.774 119.322 155.066 118.708 155.122L111.428 156.506C110.925 156.595 110.407 156.497 109.972 156.229C109.743 156.078 109.549 155.881 109.401 155.65C109.253 155.419 109.155 155.16 109.113 154.889C108.798 152.593 109.048 150.254 109.841 148.075C110.665 145.559 111.927 143.208 113.568 141.13C115.408 138.855 117.601 136.889 120.062 135.306C122.714 133.636 125.667 132.499 128.754 131.957ZM142.047 182.553C142.695 182.442 143.36 182.585 143.904 182.955C144.447 183.324 144.825 183.89 144.959 184.534L146.415 192.483C146.482 192.802 146.481 193.131 146.413 193.449C146.346 193.768 146.213 194.068 146.022 194.333C145.843 194.603 145.612 194.836 145.342 195.016C145.072 195.196 144.769 195.32 144.45 195.381L136.689 196.837C136.368 196.904 136.037 196.903 135.716 196.835C135.396 196.768 135.092 196.634 134.826 196.444C134.555 196.265 134.322 196.034 134.142 195.764C133.962 195.493 133.838 195.19 133.777 194.871L132.321 186.922C132.26 186.602 132.265 186.273 132.335 185.955C132.405 185.637 132.539 185.337 132.729 185.072C132.903 184.797 133.133 184.562 133.404 184.382C133.675 184.201 133.981 184.079 134.301 184.024L142.047 182.553Z" fill="#30003C"/>
<path d="M202.748 164.761C204.465 165.714 206.035 166.91 207.407 168.314C208.742 169.629 209.822 171.179 210.596 172.886C211.338 174.518 211.72 176.291 211.717 178.084C211.715 179.995 211.213 181.872 210.261 183.529C209.548 184.857 208.583 186.034 207.422 186.995C206.381 187.803 205.229 188.455 204 188.931C202.806 189.398 201.574 189.758 200.316 190.008L196.764 190.707C195.698 190.912 194.655 191.219 193.648 191.625C192.742 191.961 191.95 192.546 191.362 193.314C191.076 193.666 190.698 193.933 190.27 194.085C190.069 194.161 189.854 194.19 189.64 194.173C189.426 194.155 189.219 194.091 189.032 193.983L184.825 191.625C184.415 191.401 184.112 191.024 183.98 190.576C183.909 190.364 183.887 190.137 183.917 189.915C183.948 189.693 184.029 189.481 184.155 189.295C184.93 188.008 185.961 186.893 187.183 186.019C188.291 185.245 189.495 184.619 190.765 184.155C191.983 183.722 193.234 183.391 194.507 183.165C195.774 182.947 196.953 182.728 198.06 182.495C199.058 182.287 200.034 181.98 200.972 181.578C201.781 181.221 202.455 180.614 202.894 179.846C203.276 179.17 203.489 178.412 203.514 177.636C203.54 176.86 203.377 176.089 203.039 175.39C202.208 173.656 200.818 172.251 199.093 171.401C197.608 170.542 195.894 170.163 194.184 170.314C192.475 170.465 190.854 171.139 189.542 172.245C189.217 172.509 188.847 172.711 188.45 172.842C188.033 172.911 187.606 172.818 187.256 172.58L182.772 170.076C182.454 169.897 182.215 169.606 182.102 169.26C182.045 169.08 182.028 168.889 182.05 168.7C182.073 168.512 182.135 168.331 182.233 168.168C183.083 166.815 184.247 165.686 185.625 164.878C187.195 163.931 188.921 163.27 190.721 162.927C192.693 162.54 194.714 162.476 196.706 162.738C198.831 163.017 200.883 163.705 202.748 164.761ZM187.402 197.449C187.599 197.558 187.773 197.706 187.913 197.884C188.053 198.061 188.157 198.265 188.217 198.482C188.282 198.697 188.302 198.923 188.277 199.145C188.252 199.368 188.182 199.583 188.072 199.778L185.349 204.656C185.128 205.053 184.759 205.346 184.322 205.472C183.886 205.597 183.417 205.545 183.019 205.326L178.258 202.661C178.058 202.557 177.882 202.411 177.744 202.232C177.606 202.054 177.508 201.847 177.457 201.627C177.388 201.414 177.364 201.189 177.386 200.966C177.409 200.743 177.478 200.527 177.588 200.331L180.311 195.454C180.421 195.258 180.57 195.087 180.747 194.949C180.925 194.812 181.128 194.711 181.345 194.653C181.559 194.585 181.785 194.563 182.008 194.588C182.231 194.613 182.447 194.685 182.641 194.799L187.402 197.449Z" fill="#30003C"/>
<g opacity="0.2">
<path opacity="0.2" d="M202.748 164.761C204.465 165.714 206.035 166.91 207.407 168.314C208.742 169.629 209.822 171.179 210.596 172.886C211.338 174.518 211.72 176.291 211.717 178.084C211.715 179.995 211.213 181.872 210.261 183.529C209.548 184.857 208.583 186.034 207.422 186.995C206.381 187.803 205.229 188.455 204 188.931C202.806 189.398 201.574 189.758 200.316 190.008L196.764 190.707C195.698 190.912 194.655 191.219 193.648 191.625C192.742 191.961 191.95 192.546 191.362 193.314C191.076 193.666 190.698 193.933 190.27 194.085C190.069 194.161 189.854 194.19 189.64 194.173C189.426 194.155 189.219 194.091 189.032 193.983L184.825 191.625C184.415 191.401 184.112 191.024 183.98 190.576C183.909 190.364 183.887 190.137 183.917 189.915C183.948 189.693 184.029 189.481 184.155 189.295C184.93 188.008 185.961 186.893 187.183 186.019C188.291 185.245 189.495 184.619 190.765 184.155C191.983 183.722 193.234 183.391 194.507 183.165C195.774 182.947 196.953 182.728 198.06 182.495C199.058 182.287 200.034 181.98 200.972 181.578C201.781 181.221 202.455 180.614 202.894 179.846C203.276 179.17 203.489 178.412 203.514 177.636C203.54 176.86 203.377 176.089 203.039 175.39C202.208 173.656 200.818 172.251 199.093 171.401C197.608 170.542 195.894 170.163 194.184 170.314C192.475 170.465 190.854 171.139 189.542 172.245C189.217 172.509 188.847 172.711 188.45 172.842C188.033 172.911 187.606 172.818 187.256 172.58L182.772 170.076C182.454 169.897 182.215 169.606 182.102 169.26C182.045 169.08 182.028 168.889 182.05 168.7C182.073 168.512 182.135 168.331 182.233 168.168C183.083 166.815 184.247 165.686 185.625 164.878C187.195 163.931 188.921 163.27 190.721 162.927C192.693 162.54 194.714 162.476 196.706 162.738C198.831 163.017 200.883 163.705 202.748 164.761ZM187.402 197.449C187.599 197.558 187.773 197.706 187.913 197.884C188.053 198.061 188.157 198.265 188.217 198.482C188.282 198.697 188.302 198.923 188.277 199.145C188.252 199.368 188.182 199.583 188.072 199.778L185.349 204.656C185.128 205.053 184.759 205.346 184.322 205.472C183.886 205.597 183.417 205.545 183.019 205.326L178.258 202.661C178.058 202.557 177.882 202.411 177.744 202.232C177.606 202.054 177.508 201.847 177.457 201.627C177.388 201.414 177.364 201.189 177.386 200.966C177.409 200.743 177.478 200.527 177.588 200.331L180.311 195.454C180.421 195.258 180.57 195.087 180.747 194.949C180.925 194.812 181.128 194.711 181.345 194.653C181.559 194.585 181.785 194.563 182.008 194.588C182.231 194.613 182.447 194.685 182.641 194.799L187.402 197.449Z" fill="black"/>
</g>
<path d="M100.187 218.225C100.381 218.042 100.61 217.9 100.86 217.807C101.111 217.715 101.377 217.674 101.643 217.687C101.917 217.69 102.186 217.749 102.436 217.859C102.687 217.969 102.912 218.128 103.099 218.327L107.584 223.19C107.768 223.389 107.912 223.622 108.006 223.876C108.1 224.13 108.143 224.4 108.132 224.671C108.121 224.941 108.057 225.207 107.943 225.453C107.829 225.699 107.667 225.919 107.467 226.102L102.721 230.47C102.522 230.655 102.29 230.798 102.035 230.892C101.781 230.986 101.511 231.029 101.241 231.018C100.97 231.008 100.704 230.943 100.458 230.829C100.213 230.715 99.9918 230.554 99.8088 230.354L95.3243 225.491C95.138 225.293 94.993 225.061 94.8978 224.807C94.8026 224.552 94.7592 224.282 94.7701 224.01C94.7809 223.739 94.8458 223.473 94.961 223.227C95.0762 222.981 95.2393 222.761 95.4408 222.579L100.187 218.225ZM69.029 188.887C70.7315 187.296 72.6536 185.957 74.7365 184.912C76.7143 183.913 78.8538 183.272 81.0555 183.019C83.1691 182.786 85.3081 183.004 87.3309 183.66C89.48 184.394 91.4016 185.673 92.9074 187.373C94.1673 188.653 95.1575 190.173 95.8194 191.843C96.3534 193.307 96.6674 194.843 96.7512 196.4C96.8343 197.916 96.7856 199.436 96.6056 200.943C96.4163 202.399 96.2416 203.855 96.0814 205.209C95.9234 206.484 95.8796 207.77 95.9504 209.053C95.9988 210.205 96.3723 211.321 97.0278 212.27C97.31 212.706 97.4709 213.208 97.4938 213.726C97.5064 213.982 97.4605 214.236 97.3596 214.471C97.2586 214.706 97.1053 214.914 96.9114 215.08L92.7181 218.968C92.3204 219.329 91.7987 219.522 91.2621 219.507C90.9959 219.516 90.7312 219.462 90.4905 219.348C90.2497 219.234 90.0399 219.064 89.8789 218.851C88.7139 217.497 87.8326 215.923 87.2872 214.221C86.8312 212.693 86.5767 211.112 86.5301 209.519C86.4846 207.98 86.5723 206.441 86.7922 204.918C87.0106 203.462 87.1853 202.006 87.3309 200.695C87.4613 199.49 87.4613 198.275 87.3309 197.07C87.2359 196.032 86.8008 195.054 86.0933 194.289C85.4777 193.607 84.7053 193.084 83.8429 192.767C82.9804 192.45 82.0538 192.348 81.1429 192.469C78.8962 192.759 76.8082 193.783 75.2024 195.381C72.0769 198.293 71.2178 201.986 72.6253 206.461C72.7979 206.927 72.8867 207.42 72.8874 207.917C72.8513 208.162 72.7671 208.398 72.6397 208.61C72.5123 208.822 72.3441 209.007 72.1448 209.155L67.6749 213.29C67.3625 213.591 66.9443 213.759 66.5101 213.755C66.2877 213.752 66.0687 213.7 65.8677 213.605C65.6668 213.51 65.4887 213.372 65.3453 213.202C64.1075 211.77 63.2423 210.055 62.8264 208.208C62.3324 206.095 62.219 203.911 62.4915 201.758C62.7905 199.398 63.469 197.102 64.5008 194.959C65.5997 192.659 67.138 190.596 69.029 188.887Z" fill="#30003C"/>
<g opacity="0.6">
<path opacity="0.6" d="M100.187 218.225C100.381 218.042 100.61 217.9 100.86 217.807C101.111 217.715 101.377 217.674 101.643 217.687C101.917 217.69 102.186 217.749 102.436 217.859C102.687 217.969 102.912 218.128 103.099 218.327L107.584 223.19C107.768 223.389 107.912 223.622 108.006 223.876C108.1 224.13 108.143 224.4 108.132 224.671C108.121 224.941 108.057 225.207 107.943 225.453C107.829 225.699 107.667 225.919 107.467 226.102L102.721 230.47C102.522 230.655 102.29 230.798 102.035 230.892C101.781 230.986 101.511 231.029 101.241 231.018C100.97 231.008 100.704 230.943 100.458 230.829C100.213 230.715 99.9918 230.554 99.8088 230.354L95.3243 225.491C95.138 225.293 94.993 225.061 94.8978 224.807C94.8026 224.552 94.7592 224.282 94.7701 224.01C94.7809 223.739 94.8458 223.473 94.961 223.227C95.0762 222.981 95.2393 222.761 95.4408 222.579L100.187 218.225ZM69.029 188.887C70.7315 187.296 72.6536 185.957 74.7365 184.912C76.7143 183.913 78.8538 183.272 81.0555 183.019C83.1691 182.786 85.3081 183.004 87.3309 183.66C89.48 184.394 91.4016 185.673 92.9074 187.373C94.1673 188.653 95.1575 190.173 95.8194 191.843C96.3534 193.307 96.6674 194.843 96.7512 196.4C96.8343 197.916 96.7856 199.436 96.6056 200.943C96.4163 202.399 96.2416 203.855 96.0814 205.209C95.9234 206.484 95.8796 207.77 95.9504 209.053C95.9988 210.205 96.3723 211.321 97.0278 212.27C97.31 212.706 97.4709 213.208 97.4938 213.726C97.5064 213.982 97.4605 214.236 97.3596 214.471C97.2586 214.706 97.1053 214.914 96.9114 215.08L92.7181 218.968C92.3204 219.329 91.7987 219.522 91.2621 219.507C90.9959 219.516 90.7312 219.462 90.4905 219.348C90.2497 219.234 90.0399 219.064 89.8789 218.851C88.7139 217.497 87.8326 215.923 87.2872 214.221C86.8312 212.693 86.5767 211.112 86.5301 209.519C86.4846 207.98 86.5723 206.441 86.7922 204.918C87.0106 203.462 87.1853 202.006 87.3309 200.695C87.4613 199.49 87.4613 198.275 87.3309 197.07C87.2359 196.032 86.8008 195.054 86.0933 194.289C85.4777 193.607 84.7053 193.084 83.8429 192.767C82.9804 192.45 82.0538 192.348 81.1429 192.469C78.8962 192.759 76.8082 193.783 75.2024 195.381C72.0769 198.293 71.2178 201.986 72.6253 206.461C72.7979 206.927 72.8867 207.42 72.8874 207.917C72.8513 208.162 72.7671 208.398 72.6397 208.61C72.5123 208.822 72.3441 209.007 72.1448 209.155L67.6749 213.29C67.3625 213.591 66.9443 213.759 66.5101 213.755C66.2877 213.752 66.0687 213.7 65.8677 213.605C65.6668 213.51 65.4887 213.372 65.3453 213.202C64.1075 211.77 63.2423 210.055 62.8264 208.208C62.3324 206.095 62.219 203.911 62.4915 201.758C62.7905 199.398 63.469 197.102 64.5008 194.959C65.5997 192.659 67.138 190.596 69.029 188.887Z" fill="white"/>
</g>
<path d="M396.673 319.81C392.523 317.437 375.051 307.332 369.111 303.896C367.931 303.226 367.189 302.789 367.13 302.746C364.177 301.099 360.726 300.582 357.419 301.29C354.581 301.866 351.862 302.925 349.382 304.42C348.974 304.653 348.566 304.93 348.173 305.192C341.461 309.429 335.695 316.097 330.891 325.27C325.998 334.205 323.373 344.204 323.247 354.39C323.247 364.038 325.819 370.809 330.963 374.701C331.484 375.089 332.029 375.444 332.594 375.764C337.413 378.501 361.583 392.508 362.122 392.814H362.253C361.658 392.488 361.089 392.118 360.549 391.707C355.395 387.825 352.823 381.059 352.832 371.411C352.959 361.225 355.584 351.225 360.476 342.291C365.553 332.584 371.712 325.629 378.953 321.426C385.845 317.446 391.795 316.927 396.804 319.868L396.673 319.81Z" fill="#FF3242"/>
<path opacity="0.4" d="M396.804 319.898C391.795 316.986 385.845 317.501 378.953 321.441C372.226 325.324 366.427 331.633 361.554 340.369L331.968 323.232C336.54 315.064 341.942 309.051 348.159 305.134C348.552 304.887 348.96 304.595 349.367 304.363C351.845 302.865 354.565 301.811 357.404 301.247C360.711 300.531 364.165 301.048 367.116 302.703L369.096 303.853C375.036 307.275 392.508 317.379 396.658 319.752L396.804 319.898Z" fill="black"/>
<path opacity="0.3" d="M362.253 392.77H362.122C361.583 392.464 337.37 378.458 332.594 375.72C332.029 375.4 331.484 375.045 330.963 374.657C325.819 370.775 323.247 364.009 323.247 354.361C323.37 344.174 325.995 334.174 330.891 325.241C331.24 324.557 331.604 323.887 331.983 323.246L361.554 340.325C361.19 340.966 360.826 341.635 360.476 342.305C355.584 351.24 352.959 361.239 352.832 371.425C352.832 381.074 355.405 387.839 360.549 391.722C361.091 392.113 361.66 392.463 362.253 392.77Z" fill="black"/>
<path d="M383.772 69.9613C398.129 61.6621 410.349 58.1338 420.435 59.3762C424.539 59.8666 428.502 61.1841 432.083 63.2492C431.982 63.1963 431.885 63.138 431.791 63.0745C428.326 61.1234 407.447 49.0823 402.671 46.2722C399.028 44.143 394.982 42.7944 390.79 42.3119C380.695 41.0791 368.47 44.6027 354.114 52.8825C331.788 65.7632 313.831 84.6912 300.242 109.666C286.652 134.642 279.931 160.136 280.076 186.15L309.648 203.229C309.444 177.196 316.166 151.696 329.813 126.731C343.461 101.765 361.447 82.8421 383.772 69.9613Z" fill="#FF3242"/>
<path opacity="0.2" d="M431.85 63.0882C428.321 61.1228 424.444 59.8618 420.435 59.3754C410.359 58.133 398.138 61.6613 383.772 69.9605C361.447 82.8316 343.49 101.76 329.9 126.745C329.333 127.778 328.779 128.827 328.241 129.86L298.596 112.752C299.135 111.719 299.688 110.67 300.256 109.637C313.904 84.6807 331.861 65.7527 354.128 52.8525C368.504 44.5631 380.729 41.0395 390.805 42.282C394.998 42.7694 399.044 44.123 402.686 46.2569C407.505 49.0961 428.384 61.1517 431.85 63.0882Z" fill="black"/>
<path opacity="0.3" d="M328.168 129.831C315.637 153.797 309.468 178.253 309.662 203.199L280.091 186.12C279.906 161.164 286.075 136.708 298.596 112.752L328.168 129.831Z" fill="black"/>
<path d="M403.865 118.358C398.497 115.504 391.329 116.62 382.36 121.707C382.057 127.043 380.958 132.304 379.099 137.315C376.856 143.353 370.334 155.806 359.53 174.676C348.338 194.186 340.243 212.818 335.244 230.572C330.286 248.1 327.768 266.228 327.76 284.444L327.906 293.515L348.086 305.163L357.492 310.594L357.331 301.508V301.392C357.364 283.235 359.882 265.168 364.815 247.694C369.814 229.941 377.914 211.314 389.116 191.813C399.91 172.943 406.428 160.485 408.67 154.438C410.909 148.459 412.053 142.126 412.048 135.743C412.048 127.055 409.32 121.26 403.865 118.358Z" fill="#FF3242"/>
<path opacity="0.3" d="M405.773 160.975C402.434 167.925 396.881 178.185 389.116 191.755C377.905 211.265 369.805 229.897 364.815 247.651C359.876 265.138 357.358 283.22 357.331 301.392V301.625L357.492 310.71L348.086 305.294L327.906 293.646L327.76 284.561C327.769 266.345 330.287 248.217 335.244 230.688C340.243 212.935 348.338 194.303 359.53 174.793C367.295 161.203 372.857 150.948 376.216 144.027L405.773 160.975Z" fill="black"/>
<path opacity="0.4" d="M412.048 135.743C412.051 142.106 410.912 148.418 408.685 154.379C408.059 156.083 407.083 158.281 405.773 160.975L376.216 143.911C377.507 141.212 378.477 139.014 379.128 137.315C380.987 132.304 382.086 127.043 382.389 121.707C391.358 116.62 398.527 115.504 403.894 118.358C409.262 121.212 411.98 127.007 412.048 135.743Z" fill="black"/>
<path d="M349.688 180.078L309.662 203.199C309.458 177.166 316.18 151.666 329.828 126.701C343.475 101.735 361.433 82.8071 383.7 69.9167C398.056 61.6175 410.277 58.0891 420.362 59.3315C430.447 60.574 438.518 66.1019 444.575 75.9154C450.642 85.7288 453.675 97.9689 453.675 112.636C453.615 121.151 452.639 129.635 450.763 137.941C448.494 147.877 445.432 157.615 441.605 167.061C439.159 173.234 433.301 184.63 424.031 201.248C415.169 217.089 409.616 227.868 407.374 233.586C404.885 240.372 403.038 247.377 401.856 254.508C400.093 265.167 399.12 275.942 398.944 286.744L357.55 310.652L357.39 301.566C357.398 283.35 359.917 265.223 364.874 247.694C369.873 229.941 377.973 211.314 389.174 191.813C399.968 172.943 406.486 160.485 408.728 154.437C410.948 148.455 412.072 142.123 412.048 135.742C412.048 127.006 409.325 121.212 403.88 118.358C398.434 115.504 391.125 116.698 381.952 121.94C372.576 127.356 364.883 135.48 358.875 146.313C352.999 156.607 349.837 168.226 349.688 180.078Z" fill="#FF3242"/>
<path d="M378.88 321.528C386.306 317.228 392.644 316.961 397.896 320.728C403.147 324.494 405.773 331.196 405.773 340.835C405.614 351.076 402.939 361.122 397.983 370.086C392.8 379.938 386.534 386.985 379.186 391.227C371.838 395.469 365.597 395.644 360.462 391.751C355.317 387.869 352.745 381.098 352.745 371.44C352.872 361.254 355.497 351.255 360.389 342.32C365.485 332.633 371.649 325.702 378.88 321.528Z" fill="#FF3242"/>
</svg>
