<svg width="1060" height="769" viewBox="0 0 1060 769" fill="none" xmlns="http://www.w3.org/2000/svg">
<path d="M929.041 145.618C930.108 152.845 929.011 160.226 925.889 166.828C922.767 173.429 917.761 178.954 911.504 182.703C905.248 186.451 898.022 188.255 890.741 187.885C883.461 187.515 876.454 184.988 870.607 180.625C864.761 176.262 860.338 170.258 857.898 163.374C855.458 156.49 855.112 149.035 856.902 141.954C858.692 134.872 862.539 128.482 867.956 123.593C873.372 118.704 880.114 115.535 887.329 114.489C896.977 113.089 906.785 115.58 914.604 121.415C922.423 127.25 927.614 135.953 929.041 145.618Z" fill="#F5F5F5"/>
<path d="M920.386 146.879C921.199 152.386 920.364 158.01 917.987 163.041C915.609 168.071 911.796 172.282 907.029 175.14C902.263 177.997 896.758 179.373 891.21 179.094C885.663 178.815 880.323 176.892 875.867 173.57C871.41 170.248 868.037 165.675 866.175 160.431C864.313 155.187 864.045 149.507 865.405 144.11C866.765 138.713 869.693 133.842 873.817 130.114C877.941 126.385 883.076 123.966 888.572 123.163C895.929 122.081 903.413 123.971 909.38 128.419C915.346 132.866 919.305 139.507 920.386 146.879Z" fill="#EBEBEB"/>
<path d="M920.248 146.003C919.729 144.971 919.318 143.889 919.02 142.773C917.266 137.849 914.211 133.495 910.18 130.177C908.306 128.654 906.243 127.382 904.042 126.393C902.861 125.843 901.64 125.386 900.389 125.024C899.087 124.645 897.758 124.362 896.414 124.178C895.025 123.995 893.625 123.913 892.225 123.932C890.779 123.978 889.338 124.121 887.912 124.363C886.49 124.622 885.09 124.987 883.723 125.455C882.39 125.906 881.096 126.467 879.855 127.131C878.655 127.764 877.505 128.489 876.418 129.3C875.366 130.062 874.376 130.905 873.456 131.822C871.733 133.518 870.237 135.431 869.005 137.513C867.933 139.335 867.064 141.269 866.411 143.28C865.485 146.221 865.014 149.286 865.015 152.37C865.136 153.52 865.136 154.68 865.015 155.83C864.507 154.763 864.235 153.599 864.217 152.416C863.882 149.207 864.142 145.964 864.984 142.85C866.255 138.171 868.696 133.894 872.074 130.423C873.027 129.425 874.053 128.499 875.144 127.654C877.513 125.838 880.155 124.411 882.97 123.425C884.445 122.926 885.953 122.53 887.482 122.241C889.004 121.982 890.543 121.833 892.086 121.795C893.601 121.772 895.116 121.875 896.614 122.102C898.066 122.303 899.498 122.627 900.895 123.071C902.234 123.479 903.537 123.994 904.793 124.609C907.124 125.719 909.292 127.142 911.239 128.839C912.952 130.31 914.487 131.977 915.812 133.806C917.679 136.439 919.042 139.396 919.833 142.527C920.216 143.643 920.357 144.828 920.248 146.003Z" fill="#E0E0E0"/>
<path d="M898.164 167.058L898.931 171.903L894.619 172.595L893.867 167.889C890.014 168.36 886.107 167.742 882.587 166.105L884.121 160.46C886.87 161.791 889.915 162.385 892.961 162.183L891.81 154.969C886.838 154.57 881.252 153.831 880.254 147.649C879.533 143.035 882.218 138.62 888.894 136.744L888.142 131.946L892.439 131.253L893.191 135.975C896.315 135.642 899.472 136.063 902.399 137.205L901.095 142.85C898.877 142.005 896.515 141.603 894.143 141.666L895.309 149.017C900.282 149.371 905.791 150.125 906.758 156.215C907.448 160.752 904.793 165.166 898.164 167.058ZM890.797 148.602L889.815 142.45C887.621 143.327 886.915 144.726 887.145 146.157C887.375 147.587 888.802 148.371 890.797 148.664V148.602ZM899.867 157.83C899.637 156.292 898.256 155.692 896.291 155.339L897.243 161.306C899.315 160.537 900.097 159.276 899.867 157.892V157.83Z" fill="#E0E0E0"/>
<path d="M814.31 152.155C816.158 164.694 814.253 177.502 808.835 188.956C803.417 200.411 794.73 209.996 783.873 216.5C773.016 223.004 760.478 226.134 747.846 225.493C735.213 224.852 723.054 220.469 712.909 212.9C702.763 205.331 695.086 194.915 690.85 182.971C686.613 171.027 686.008 158.092 689.111 145.803C692.214 133.514 698.885 122.424 708.28 113.937C717.675 105.45 729.371 99.9468 741.889 98.1246C758.642 95.6652 775.683 99.9759 789.265 110.108C802.846 120.241 811.855 135.365 814.31 152.155Z" fill="#F5F5F5"/>
<path d="M799.254 154.339C800.661 163.892 799.209 173.65 795.082 182.376C790.955 191.103 784.337 198.406 776.067 203.363C767.797 208.319 758.245 210.706 748.621 210.222C738.997 209.737 729.733 206.402 722 200.64C714.267 194.877 708.414 186.946 705.18 177.848C701.947 168.751 701.478 158.897 703.834 149.533C706.19 140.169 711.264 131.715 718.415 125.242C725.566 118.768 734.472 114.566 744.006 113.166C750.332 112.23 756.78 112.552 762.982 114.114C769.183 115.677 775.016 118.45 780.147 122.274C785.279 126.098 789.607 130.898 792.886 136.4C796.165 141.902 798.329 147.998 799.254 154.339Z" fill="#EBEBEB"/>
<path d="M799.024 152.831C798.733 152.831 798.226 150.801 796.906 147.202C795.083 142.168 792.494 137.448 789.233 133.206C786.969 130.318 784.396 127.688 781.56 125.362C778.309 122.719 774.735 120.502 770.924 118.764C768.867 117.824 766.744 117.037 764.571 116.411C762.317 115.72 760.013 115.205 757.68 114.873C755.265 114.543 752.828 114.399 750.39 114.442C745.361 114.523 740.376 115.411 735.627 117.072C733.331 117.888 731.104 118.886 728.967 120.056C726.885 121.154 724.89 122.409 722.997 123.809C721.177 125.152 719.454 126.622 717.84 128.207C714.871 131.156 712.292 134.474 710.167 138.081C708.311 141.246 706.803 144.603 705.67 148.094C704.059 153.203 703.241 158.53 703.246 163.889C703.246 167.703 703.491 169.841 703.246 169.887C703 169.933 702.309 167.872 701.849 163.966C701.261 158.389 701.714 152.751 703.184 147.34C705.365 139.226 709.593 131.811 715.462 125.808C717.144 124.053 718.966 122.438 720.91 120.979C722.895 119.457 724.993 118.089 727.186 116.888C729.498 115.623 731.911 114.553 734.399 113.689C736.958 112.802 739.579 112.108 742.241 111.612C744.909 111.157 747.608 110.905 750.314 110.859C752.942 110.817 755.57 110.987 758.171 111.366C760.682 111.729 763.161 112.289 765.584 113.043C767.902 113.755 770.164 114.639 772.352 115.688C776.399 117.622 780.167 120.095 783.555 123.04C786.474 125.604 789.081 128.505 791.32 131.683C794.566 136.249 796.934 141.381 798.303 146.817C799.224 150.616 799.239 152.8 799.024 152.831Z" fill="#E0E0E0"/>
<path d="M760.688 189.39L762.023 197.788L754.55 198.972L753.245 190.805C745.771 191.543 738.282 190.359 733.663 187.729L736.302 177.917C741.067 180.254 746.354 181.314 751.649 180.993L749.639 168.473C741.014 167.781 731.299 166.489 729.581 155.769C728.322 147.818 732.987 140.082 744.59 136.837L743.254 128.516L750.744 127.316L752.048 135.483C757.447 134.923 762.901 135.656 767.963 137.621L765.799 147.449C761.955 145.963 757.855 145.257 753.736 145.373L755.762 158.123C764.387 158.738 773.948 160.045 775.636 170.611C776.802 178.409 772.198 186.099 760.688 189.39ZM747.904 157.446L746.216 146.803C742.395 148.341 741.167 150.771 741.612 153.247C742.057 155.723 744.451 156.877 747.904 157.446ZM763.666 173.456C763.251 170.826 760.842 169.75 757.45 169.135L759.108 179.485C762.729 178.07 764.049 175.856 763.666 173.456Z" fill="#E0E0E0"/>
<path d="M249.184 370.289C250.253 377.515 249.159 384.897 246.04 391.5C242.92 398.102 237.916 403.629 231.661 407.379C225.406 411.13 218.181 412.936 210.901 412.57C203.62 412.203 196.613 409.679 190.764 405.319C184.916 400.958 180.49 394.956 178.048 388.073C175.605 381.19 175.255 373.736 177.043 366.654C178.83 359.571 182.674 353.18 188.088 348.289C193.502 343.397 200.243 340.225 207.456 339.175C217.104 337.771 226.914 340.258 234.736 346.09C242.558 351.922 247.754 360.624 249.184 370.289Z" fill="#F5F5F5"/>
<path d="M240.513 371.55C241.327 377.057 240.492 382.683 238.114 387.714C235.737 392.745 231.922 396.956 227.155 399.814C222.388 402.672 216.882 404.047 211.334 403.767C205.786 403.487 200.445 401.563 195.989 398.239C191.533 394.916 188.161 390.342 186.3 385.096C184.439 379.851 184.173 374.17 185.535 368.773C186.898 363.376 189.828 358.505 193.954 354.778C198.08 351.051 203.217 348.634 208.715 347.834C216.068 346.761 223.547 348.655 229.509 353.101C235.47 357.547 239.428 364.183 240.513 371.55Z" fill="#EBEBEB"/>
<path d="M240.375 370.659C239.857 369.623 239.45 368.535 239.162 367.413C238.104 364.513 236.602 361.794 234.712 359.354C233.413 357.69 231.936 356.174 230.307 354.833C228.434 353.305 226.371 352.028 224.169 351.034C222.989 350.486 221.768 350.034 220.516 349.68C219.216 349.292 217.887 349.009 216.541 348.834C215.153 348.643 213.753 348.561 212.352 348.588C210.906 348.621 209.465 348.759 208.039 349.004C203.878 349.734 199.943 351.424 196.545 353.941C195.497 354.712 194.507 355.561 193.583 356.478C191.86 358.169 190.364 360.077 189.132 362.153C188.063 363.977 187.194 365.911 186.539 367.921C185.611 370.866 185.14 373.937 185.142 377.026C185.272 378.176 185.272 379.337 185.142 380.486C184.637 379.418 184.365 378.254 184.344 377.072C184.007 373.858 184.267 370.609 185.111 367.49C185.703 365.349 186.542 363.284 187.613 361.338C188.871 359.093 190.419 357.025 192.217 355.186C193.165 354.178 194.191 353.248 195.286 352.403C197.666 350.607 200.306 349.186 203.113 348.188C204.59 347.675 206.103 347.274 207.64 346.989C209.163 346.733 210.701 346.589 212.244 346.558C213.784 346.535 215.324 346.632 216.848 346.85C218.294 347.059 219.721 347.383 221.115 347.819C222.45 348.234 223.753 348.748 225.013 349.357C229.39 351.435 233.154 354.615 235.94 358.585C237.806 361.218 239.169 364.175 239.96 367.306C240.324 368.384 240.465 369.524 240.375 370.659Z" fill="#E0E0E0"/>
<path d="M218.291 391.744L219.058 396.574L214.746 397.266L213.994 392.559C210.147 393.058 206.238 392.461 202.714 390.837L204.249 385.177C206.999 386.517 210.053 387.111 213.104 386.9L211.937 379.686C206.98 379.302 201.379 378.564 200.397 372.381C199.66 367.767 202.346 363.337 209.037 361.476L208.27 356.678L212.582 355.986L213.334 360.692C216.457 360.357 219.615 360.779 222.542 361.923L221.238 367.582C219.024 366.722 216.659 366.319 214.285 366.398L215.452 373.734C220.424 374.088 225.934 374.842 226.9 380.932C227.576 385.423 224.921 389.837 218.291 391.744ZM210.925 373.288L209.942 367.136C207.748 368.028 207.042 369.413 207.272 370.843C207.502 372.273 208.93 373.042 210.925 373.35V373.288ZM220.01 382.516C219.764 380.978 218.383 380.394 216.419 380.04L217.37 385.992C219.457 385.223 220.225 383.947 220.01 382.562V382.516Z" fill="#E0E0E0"/>
<path d="M186.094 289.052C182.091 291.597 177.424 292.895 172.685 292.78C167.945 292.666 163.347 291.146 159.47 288.411C155.594 285.676 152.614 281.85 150.908 277.417C149.203 272.984 148.848 268.144 149.888 263.509C150.929 258.874 153.319 254.652 156.755 251.379C160.19 248.106 164.518 245.927 169.19 245.12C173.862 244.313 178.667 244.913 182.999 246.844C187.33 248.775 190.992 251.951 193.521 255.969C195.201 258.63 196.342 261.597 196.877 264.7C197.413 267.802 197.334 270.98 196.644 274.052C195.955 277.124 194.668 280.03 192.858 282.604C191.047 285.177 188.749 287.368 186.094 289.052Z" fill="#F5F5F5"/>
<path d="M183.04 284.223C179.987 286.16 176.429 287.147 172.817 287.057C169.204 286.967 165.699 285.805 162.746 283.719C159.793 281.632 157.523 278.714 156.225 275.334C154.927 271.955 154.659 268.265 155.454 264.732C156.25 261.2 158.073 257.983 160.693 255.489C163.313 252.995 166.613 251.337 170.174 250.723C173.735 250.109 177.398 250.568 180.699 252.041C184 253.515 186.791 255.936 188.718 259C191.302 263.099 192.155 268.06 191.09 272.79C190.025 277.52 187.13 281.632 183.04 284.223Z" fill="#EBEBEB"/>
<path d="M183.531 283.915C183.531 283.822 184.099 283.33 185.065 282.377C186.51 280.981 187.727 279.367 188.672 277.594C190.072 274.989 190.81 272.078 190.82 269.119C190.837 268.27 190.786 267.422 190.667 266.581C190.549 265.707 190.364 264.843 190.114 263.998C189.858 263.118 189.535 262.259 189.148 261.429C188.352 259.732 187.29 258.175 186.002 256.815C185.384 256.145 184.712 255.527 183.991 254.97C183.302 254.399 182.568 253.884 181.797 253.432C181.083 252.971 180.334 252.57 179.556 252.232C178.077 251.65 176.53 251.262 174.952 251.078C173.59 250.94 172.217 250.94 170.854 251.078C168.862 251.285 166.915 251.804 165.084 252.616C164.424 252.981 163.73 253.28 163.012 253.508C163.012 253.508 163.565 252.878 164.839 252.124C166.652 251.076 168.646 250.377 170.716 250.063C172.152 249.833 173.61 249.776 175.059 249.894C176.734 250.038 178.381 250.41 179.955 251.001C180.813 251.314 181.644 251.694 182.441 252.14C183.274 252.587 184.07 253.101 184.82 253.678C186.403 254.908 187.781 256.382 188.902 258.046C189.482 258.891 189.995 259.781 190.437 260.706C190.849 261.602 191.193 262.527 191.465 263.475C191.721 264.392 191.906 265.328 192.017 266.274C192.134 267.181 192.175 268.097 192.14 269.011C192.098 270.691 191.83 272.357 191.342 273.964C190.909 275.358 190.312 276.695 189.562 277.947C188.495 279.759 187.1 281.355 185.449 282.654C184.904 283.203 184.251 283.632 183.531 283.915Z" fill="#E0E0E0"/>
<path d="M165.207 276.317L162.537 278.055L161.002 275.671L163.595 273.979C162.278 271.82 161.602 269.328 161.646 266.797L165.391 266.213C165.327 268.207 165.782 270.184 166.711 271.949L170.686 269.35C169.611 266.274 168.568 262.752 171.975 260.537C174.492 258.892 177.852 259.307 180.722 262.798L183.362 261.076L184.897 263.46L182.303 265.151C183.318 266.917 183.902 268.899 184.007 270.934L180.293 271.657C180.22 270.11 179.839 268.594 179.172 267.197L175.121 269.842C176.226 272.918 177.239 276.379 173.878 278.563C171.407 280.178 168.077 279.762 165.207 276.317ZM174.169 267.089L177.546 264.875C176.441 263.798 175.428 263.752 174.645 264.259C173.862 264.767 173.816 265.797 174.169 267.074V267.089ZM171.1 274.933C171.929 274.379 171.929 273.395 171.622 272.134L168.338 274.287C169.381 275.302 170.348 275.41 171.1 274.918V274.933Z" fill="#E0E0E0"/>
<path d="M828.72 90.9576C824.717 93.5027 820.05 94.8003 815.311 94.6862C810.572 94.5721 805.973 93.0513 802.096 90.3165C798.22 87.5816 795.24 83.7556 793.535 79.3228C791.829 74.89 791.474 70.0497 792.515 65.4146C793.555 60.7795 795.945 56.5581 799.381 53.2847C802.817 50.0113 807.144 47.8331 811.816 47.0259C816.488 46.2186 821.294 46.8186 825.625 48.7499C829.956 50.6812 833.618 53.857 836.148 57.8752C837.83 60.5356 838.972 63.5021 839.509 66.6052C840.045 69.7082 839.967 72.8869 839.277 75.9595C838.587 79.032 837.3 81.9382 835.488 84.5117C833.677 87.0852 831.377 89.2756 828.72 90.9576Z" fill="#F5F5F5"/>
<path d="M825.651 86.128C822.599 88.0696 819.041 89.06 815.428 88.9738C811.814 88.8875 808.307 87.7285 805.351 85.6436C802.395 83.5586 800.123 80.6414 798.823 77.2615C797.522 73.8816 797.252 70.1909 798.046 66.6568C798.84 63.1228 800.662 59.9043 803.282 57.409C805.903 54.9138 809.203 53.2539 812.765 52.6396C816.328 52.0253 819.992 52.4843 823.294 53.9583C826.595 55.4324 829.387 57.8553 831.314 60.9202C833.898 65.0156 834.753 69.9721 833.691 74.6994C832.629 79.4268 829.737 83.5377 825.651 86.128Z" fill="#EBEBEB"/>
<path d="M826.111 85.8205C826.111 85.7282 826.679 85.236 827.646 84.2825C829.09 82.8872 830.308 81.2731 831.252 79.4993C831.911 78.2923 832.426 77.0122 832.787 75.685C833.194 74.1801 833.41 72.63 833.431 71.071C833.46 70.1929 833.424 69.3139 833.324 68.4411C833.206 67.5669 833.021 66.7031 832.772 65.8572C832.519 64.9762 832.196 64.1173 831.805 63.2888C831.407 62.4346 830.945 61.6119 830.423 60.828C829.91 60.054 829.341 59.3189 828.72 58.6286C828.098 57.9526 827.42 57.3301 826.694 56.7677C826.008 56.1932 825.274 55.6786 824.5 55.2297C823.765 54.8051 823.001 54.435 822.213 54.1223C820.736 53.5383 819.188 53.1555 817.609 52.9842C816.247 52.8305 814.873 52.8305 813.511 52.9842C811.52 53.1916 809.573 53.7106 807.741 54.5222C807.085 54.8951 806.391 55.1942 805.669 55.4142C805.669 55.4142 806.222 54.7836 807.496 54.03C809.315 53.0086 811.308 52.3358 813.373 52.046C814.809 51.8137 816.268 51.762 817.716 51.8922C819.391 52.0296 821.038 52.397 822.612 52.9842C823.47 53.2964 824.301 53.677 825.098 54.1223C826.805 55.0644 828.357 56.2625 829.702 57.6751C830.38 58.3946 831.001 59.166 831.559 59.9821C832.138 60.8282 832.651 61.7177 833.094 62.6428C833.501 63.5385 833.84 64.464 834.107 65.4112C834.37 66.3267 834.555 67.2632 834.659 68.2104C834.776 69.1179 834.817 70.0336 834.782 70.948C834.74 72.6273 834.471 74.2932 833.984 75.9004C833.548 77.3278 832.94 78.6965 832.173 79.9761C831.101 81.753 829.712 83.3171 828.075 84.5901C827.512 85.1308 826.843 85.5496 826.111 85.8205Z" fill="#E0E0E0"/>
<path d="M807.787 78.223L805.117 79.9763L803.582 77.5924L806.176 75.9006C804.841 73.7397 804.144 71.2442 804.165 68.7028L807.91 68.1183C807.853 70.1122 808.307 72.0875 809.23 73.8551L813.205 71.2559C812.13 68.1799 811.087 64.6578 814.494 62.4431C817.01 60.7974 820.371 61.2127 823.241 64.704L825.942 63.0583L827.477 65.4422L824.883 67.134C825.894 68.9064 826.473 70.8932 826.571 72.9323L822.873 73.6398C822.789 72.0978 822.404 70.5874 821.737 69.1949L817.686 71.8249C818.791 74.9009 819.804 78.3614 816.443 80.5454C813.987 82.0834 810.672 81.6681 807.787 78.223ZM816.75 68.995L820.126 66.7957C819.021 65.7037 818.008 65.6575 817.225 66.1651C816.443 66.6726 816.443 67.6723 816.75 68.9796V68.995ZM813.68 76.8388C814.509 76.2851 814.509 75.3008 814.202 74.055L810.918 76.1928C811.961 77.1925 812.913 77.3156 813.68 76.9003V76.8388Z" fill="#E0E0E0"/>
<path d="M1090.01 723.414C1090.01 723.629 859.644 723.814 575.531 723.814C291.418 723.814 60.9877 723.629 60.9877 723.414C60.9877 723.198 291.31 723.014 575.531 723.014C859.751 723.014 1090.01 723.183 1090.01 723.414Z" fill="#263238"/>
<path d="M1026.69 207.076H442.414C440.018 207.076 437.646 207.549 435.433 208.468C433.22 209.388 431.21 210.735 429.516 212.433C427.823 214.131 426.481 216.148 425.565 218.366C424.65 220.585 424.18 222.962 424.182 225.363V638.947C424.182 643.792 426.103 648.44 429.522 651.866C432.941 655.293 437.578 657.218 442.414 657.218H666.659C666.659 657.218 680.932 701.42 636.703 724.306H846.384C846.384 724.306 796.492 707.142 809.291 657.218H1026.69C1031.53 657.218 1036.16 655.293 1039.58 651.866C1043 648.44 1044.92 643.792 1044.92 638.947V225.363C1044.93 222.962 1044.46 220.585 1043.54 218.366C1042.63 216.148 1041.28 214.131 1039.59 212.433C1037.9 210.735 1035.89 209.388 1033.67 208.468C1031.46 207.549 1029.09 207.076 1026.69 207.076Z" fill="#263238"/>
<path d="M742.349 613.662C750.298 625.043 737.868 637.516 726.496 629.549C726.118 629.281 725.791 628.948 725.529 628.565C717.595 617.184 730.026 604.742 741.382 612.693C741.756 612.96 742.083 613.287 742.349 613.662Z" fill="#455A64"/>
<path d="M449.12 214.659H1020.02C1023.96 214.659 1027.75 216.231 1030.54 219.029C1033.33 221.827 1034.9 225.621 1034.9 229.578V581.564H434.311V229.578C434.311 225.634 435.868 221.851 438.644 219.056C441.419 216.26 445.185 214.68 449.12 214.659Z" fill="white"/>
<path d="M504.829 297.48H485.123V517.968H504.829V297.48Z" fill="#FF3242"/>
<path d="M542.858 372.365H523.153V517.968H542.858V372.365Z" fill="#FF3242"/>
<path d="M580.887 324.888H561.182V519.091H580.887V324.888Z" fill="#FF3242"/>
<path d="M618.931 306H599.226V517.968H618.931V306Z" fill="#FF3242"/>
<path d="M656.96 376.856H637.255V517.968H656.96V376.856Z" fill="#FF3242"/>
<path d="M694.989 404.525H675.284V517.968H694.989V404.525Z" fill="#FF3242"/>
<path d="M733.018 320.119H713.313V517.968H733.018V320.119Z" fill="#FF3242"/>
<path d="M771.047 355.786H751.342V517.968H771.047V355.786Z" fill="#FF3242"/>
<path d="M809.092 327.287H789.386V517.968H809.092V327.287Z" fill="#FF3242"/>
<path d="M847.121 388.053H827.416V517.968H847.121V388.053Z" fill="#FF3242"/>
<path d="M922.979 320.119H903.274V517.968H922.979V320.119Z" fill="#FF3242"/>
<path d="M1003.75 447.42H984.044V515.123H1003.75V447.42Z" fill="#FF3242"/>
<path d="M964.369 388.053H944.664V517.968H964.369V388.053Z" fill="#FF3242"/>
<path d="M885.15 363.337H865.445V517.967H885.15V363.337Z" fill="#FF3242"/>
<path d="M1009.27 325.595C1008.69 325.543 1008.12 325.451 1007.55 325.318L1002.54 324.287C999.83 323.707 997.094 323.271 994.341 322.98C990.602 322.457 986.836 322.144 983.061 322.042C972.711 321.695 962.356 322.583 952.215 324.687C938.81 327.57 925.917 332.464 913.971 339.206C899.495 347.379 886.413 357.814 875.22 370.12C863.158 383.377 852.983 399.757 842.578 417.09C832.173 434.424 821.369 453.033 805.884 469.09C798.139 477.387 788.99 484.245 778.859 489.345C773.601 491.904 767.978 493.626 762.192 494.452C756.312 495.236 750.342 495.033 744.528 493.852C732.834 491.268 722.475 485.116 713.758 477.687C705.208 470.306 697.558 461.937 690.968 452.756C677.739 434.916 668.347 415.691 658.295 398.173C648.243 380.655 638.16 364.168 625.653 351.325C619.73 345.073 612.932 339.716 605.472 335.423C601.966 333.395 598.319 331.622 594.561 330.116C590.928 328.772 587.211 327.668 583.434 326.81C570.076 323.753 556.162 324.145 542.996 327.948C533.052 330.799 523.664 335.323 515.234 341.328C509.962 345.213 505.08 349.602 500.654 354.432L497.232 358.231C496.858 358.684 496.447 359.106 496.004 359.492C496.305 358.992 496.654 358.523 497.048 358.093L500.286 354.094C504.609 349.108 509.438 344.588 514.696 340.606C523.139 334.409 532.589 329.725 542.627 326.764C555.977 322.746 570.13 322.216 583.741 325.226C598.888 328.302 614.327 336.976 626.927 349.987C639.526 362.999 650.023 379.502 660.029 397.096C670.035 414.691 679.581 433.808 692.672 451.418C699.173 460.475 706.714 468.734 715.139 476.026C723.672 483.301 733.739 489.238 744.943 491.714C750.5 492.836 756.204 493.028 761.824 492.283C767.389 491.483 772.799 489.828 777.861 487.377C787.783 482.385 796.745 475.673 804.334 467.552C819.604 451.818 830.285 433.239 840.844 416.029C851.402 398.819 861.592 382.193 873.87 368.874C885.25 356.497 898.528 346.02 913.203 337.837C925.32 331.101 938.393 326.262 951.969 323.488C962.21 321.447 972.663 320.672 983.092 321.181C986.892 321.337 990.679 321.722 994.433 322.334C997.193 322.682 999.93 323.195 1002.63 323.872L1007.6 325.118C1008.17 325.232 1008.73 325.392 1009.27 325.595Z" fill="#263238"/>
<path d="M463.469 533.332C463.024 533.332 462.656 470.459 462.656 392.913C462.656 315.367 463.024 252.493 463.469 252.493C463.914 252.493 464.283 315.351 464.283 392.913C464.283 470.474 463.884 533.332 463.469 533.332Z" fill="#263238"/>
<path d="M1003.67 533.332C1003.67 533.778 885.503 534.132 739.709 534.132C593.916 534.132 475.747 533.778 475.747 533.332C475.747 532.886 593.916 532.517 739.709 532.517C885.503 532.517 1003.67 532.886 1003.67 533.332Z" fill="#263238"/>
<path d="M513.223 550.681C513.223 551.127 506.686 551.496 498.613 551.496C490.541 551.496 483.988 551.127 483.988 550.681C483.988 550.235 490.525 549.866 498.613 549.866C506.701 549.866 513.223 550.235 513.223 550.681Z" fill="#263238"/>
<path d="M561.688 551.558C561.688 552.019 553.861 552.373 544.224 552.373C534.586 552.373 526.744 552.019 526.744 551.558C526.744 551.096 534.57 550.758 544.224 550.758C553.877 550.758 561.688 551.112 561.688 551.558Z" fill="#263238"/>
<path d="M603.124 551.558C603.124 552.019 595.297 552.373 585.659 552.373C576.022 552.373 568.18 552.019 568.18 551.558C568.18 551.096 576.006 550.758 585.659 550.758C595.312 550.758 603.124 551.112 603.124 551.558Z" fill="#263238"/>
<path d="M644.437 551.558C644.437 552.019 636.61 552.373 626.973 552.373C617.335 552.373 609.493 552.019 609.493 551.558C609.493 551.096 617.32 550.758 626.973 550.758C636.626 550.758 644.437 551.112 644.437 551.558Z" fill="#263238"/>
<path d="M685.796 551.558C685.796 552.019 677.985 552.373 668.332 552.373C658.679 552.373 650.852 552.019 650.852 551.558C650.852 551.096 658.679 550.758 668.332 550.758C677.985 550.758 685.796 551.112 685.796 551.558Z" fill="#263238"/>
<path d="M727.171 551.558C727.171 552.019 719.344 552.373 709.691 552.373C700.038 552.373 692.227 552.019 692.227 551.558C692.227 551.096 700.038 550.758 709.691 550.758C719.344 550.758 727.171 551.112 727.171 551.558Z" fill="#263238"/>
<path d="M768.53 551.558C768.53 552.019 760.704 552.373 751.051 552.373C741.398 552.373 733.586 552.019 733.586 551.558C733.586 551.096 741.398 550.758 751.051 550.758C760.704 550.758 768.53 551.112 768.53 551.558Z" fill="#263238"/>
<path d="M809.89 551.558C809.89 552.019 802.063 552.373 792.41 552.373C782.757 552.373 774.945 552.019 774.945 551.558C774.945 551.096 782.772 550.758 792.41 550.758C802.048 550.758 809.89 551.112 809.89 551.558Z" fill="#263238"/>
<path d="M851.249 551.558C851.249 552.019 843.422 552.373 833.784 552.373C824.147 552.373 816.304 552.019 816.304 551.558C816.304 551.096 824.131 550.758 833.784 550.758C843.437 550.758 851.249 551.112 851.249 551.558Z" fill="#263238"/>
<path d="M892.608 551.558C892.608 552.019 884.781 552.373 875.144 552.373C865.506 552.373 857.664 552.019 857.664 551.558C857.664 551.096 865.491 550.758 875.144 550.758C884.797 550.758 892.608 551.112 892.608 551.558Z" fill="#263238"/>
<path d="M931.082 551.573C931.082 552.035 923.256 552.388 913.603 552.388C903.95 552.388 896.138 552.035 896.138 551.573C896.138 551.112 903.965 550.773 913.603 550.773C923.24 550.773 931.082 551.127 931.082 551.573Z" fill="#263238"/>
<path d="M969.557 551.589C969.557 552.035 961.73 552.404 952.077 552.404C942.424 552.404 934.612 552.035 934.612 551.589C934.612 551.143 942.424 550.789 952.077 550.789C961.73 550.789 969.557 551.143 969.557 551.589Z" fill="#263238"/>
<path d="M1008.02 551.604C1008.02 552.05 1000.19 552.419 990.551 552.419C980.913 552.419 973.071 552.05 973.071 551.604C973.071 551.158 980.898 550.789 990.551 550.789C1000.2 550.789 1008.02 551.158 1008.02 551.604Z" fill="#263238"/>
<path d="M664.511 400.142C664.511 399.803 666.935 400.649 667.703 403.956C668.194 405.865 667.976 407.887 667.089 409.647C666.492 410.806 665.459 411.68 664.219 412.077C662.874 412.455 661.433 412.284 660.214 411.6C659.109 410.982 658.202 410.063 657.596 408.95C656.991 407.837 656.712 406.575 656.791 405.309C656.863 404.314 657.145 403.346 657.619 402.468C658.093 401.591 658.747 400.824 659.538 400.219C660.057 399.794 660.664 399.491 661.314 399.331C661.965 399.171 662.643 399.159 663.298 399.296C664.219 399.573 664.526 400.019 664.465 400.111C664.403 400.203 662.47 399.496 660.536 401.418C659.474 402.469 658.858 403.891 658.817 405.386C658.81 406.252 659.032 407.103 659.461 407.854C659.89 408.606 660.509 409.229 661.257 409.662C661.591 409.871 661.964 410.009 662.353 410.07C662.742 410.13 663.14 410.111 663.521 410.013C663.903 409.915 664.26 409.741 664.573 409.501C664.885 409.261 665.146 408.96 665.339 408.616C666.072 407.28 666.362 405.745 666.168 404.233C665.907 401.418 664.342 400.403 664.511 400.142Z" fill="#263238"/>
<path d="M923.777 327.594C923.777 327.471 924.407 327.271 925.496 327.594C927.001 328.159 928.25 329.252 929.01 330.67C929.619 331.703 930.01 332.85 930.158 334.041C930.306 335.231 930.208 336.44 929.87 337.591C929.471 339.094 928.601 340.43 927.388 341.402C926.176 342.373 924.684 342.93 923.133 342.989C922.3 342.951 921.486 342.732 920.747 342.347C920.007 341.962 919.36 341.42 918.851 340.759C917.957 339.636 917.337 338.32 917.04 336.914C916.746 335.753 916.692 334.544 916.882 333.362C917.072 332.18 917.502 331.049 918.145 330.039C920.57 326.61 923.562 326.779 923.455 326.963C923.593 327.286 921.092 327.763 919.48 330.762C918.627 332.497 918.457 334.49 919.005 336.345C919.526 338.375 921.092 340.698 923.21 340.713C924.292 340.625 925.323 340.212 926.168 339.529C927.014 338.846 927.635 337.925 927.952 336.883C928.551 335.059 928.436 333.074 927.629 331.331C926.816 329.676 925.454 328.355 923.777 327.594Z" fill="#263238"/>
<path d="M700.253 102.754H304.908V411.108H700.253V102.754Z" fill="white"/>
<path d="M700.253 411.108C700.253 408.032 700.115 288.837 699.885 102.754L700.253 103.123H304.954L305.399 102.677C305.399 213.828 305.399 318.951 305.399 411.031L305 410.631L700.345 411.031L305 411.431H304.601V411.031C304.601 318.951 304.601 213.828 304.601 102.677V102.231H305.092H700.391H700.76V102.6C700.407 288.837 700.268 408.032 700.253 411.108Z" fill="#263238"/>
<path d="M388.194 143.265H324.198V146.833H388.194V143.265Z" fill="#263238"/>
<path d="M355.828 151.616H324.198V155.184H355.828V151.616Z" fill="#263238"/>
<path d="M372.264 366.797H360.677V370.15H372.264V366.797Z" fill="#263238"/>
<path d="M401.73 384.7H386.905V388.053H401.73V384.7Z" fill="#263238"/>
<path d="M453.34 384.7H438.516V388.053H453.34V384.7Z" fill="#263238"/>
<path d="M504.951 384.7H490.126V388.053H504.951V384.7Z" fill="#263238"/>
<path d="M556.562 384.7H541.737V388.053H556.562V384.7Z" fill="#263238"/>
<path d="M608.173 384.7H593.348V388.053H608.173V384.7Z" fill="#263238"/>
<path d="M659.784 384.7H644.959V388.053H659.784V384.7Z" fill="#263238"/>
<path d="M372.264 322.088H360.677V325.441H372.264V322.088Z" fill="#263238"/>
<path d="M372.264 237.929H360.677V241.282H372.264V237.929Z" fill="#263238"/>
<path d="M372.264 195.633H360.677V198.986H372.264V195.633Z" fill="#263238"/>
<path d="M372.863 280.008H361.276V283.361H372.863V280.008Z" fill="#263238"/>
<path d="M659.37 370.151C659.37 370.151 658.955 370.151 658.126 370.151H654.474L640.447 370.227L588.867 370.366L418.657 370.474H377.927V370.074C377.927 313.029 378.034 262.829 378.065 226.871C378.065 208.907 378.157 194.573 378.188 184.576C378.188 179.639 378.188 175.809 378.188 173.194C378.188 171.902 378.188 170.934 378.188 170.241C378.188 169.549 378.188 169.242 378.188 169.242C378.188 169.242 378.188 169.58 378.188 170.241C378.188 170.903 378.188 171.902 378.188 173.194C378.188 175.809 378.188 179.639 378.188 184.576C378.188 194.511 378.188 208.907 378.311 226.871C378.311 262.829 378.387 312.999 378.449 370.074L378.05 369.674H418.657L588.867 369.797L640.447 369.92L654.474 369.997H658.126L659.37 370.151Z" fill="#263238"/>
<path d="M662.638 281.685C662.638 281.9 601.497 282.085 526.053 282.085C450.609 282.085 389.468 281.9 389.468 281.685C389.468 281.47 450.593 281.285 526.053 281.285C601.513 281.285 662.638 281.454 662.638 281.685Z" fill="#263238"/>
<path d="M662.638 239.605C662.638 239.821 601.497 240.005 526.053 240.005C450.609 240.005 389.468 239.821 389.468 239.605C389.468 239.39 450.593 239.206 526.053 239.206C601.513 239.206 662.638 239.39 662.638 239.605Z" fill="#263238"/>
<path d="M662.638 197.31C662.638 197.541 601.497 197.71 526.053 197.71C450.609 197.71 389.468 197.541 389.468 197.31C389.468 197.079 450.593 196.91 526.053 196.91C601.513 196.91 662.638 197.095 662.638 197.31Z" fill="#263238"/>
<path d="M662.638 323.765C662.638 323.98 601.497 324.165 526.053 324.165C450.609 324.165 389.468 323.98 389.468 323.765C389.468 323.549 450.593 323.365 526.053 323.365C601.513 323.365 662.638 323.549 662.638 323.765Z" fill="#263238"/>
<path d="M392.353 361.092V323.765L415.572 287.606L431.333 299.726L463.669 249.387L482.745 262.844L509.279 216.397L530.765 234.007L563.223 172.425L598.06 241.282L626.144 206.83L659.308 197.31V361.092H392.353Z" fill="#455A64"/>
<path d="M662.638 184.053C662.444 184.066 662.249 184.066 662.055 184.053H660.321H653.599L628.139 184.16L628.308 184.068L601.021 219.934L600.914 220.057H600.76H532.468L532.805 219.873L504.092 267.766C494.316 284.069 484.847 299.833 475.9 314.721L475.608 315.229L475.271 314.752L438.255 263.798H438.792L405.152 316.521L395.775 331.101C394.701 332.762 393.872 334.038 393.289 334.915C392.706 335.792 392.414 336.207 392.414 336.207C392.414 336.207 392.675 335.746 393.212 334.869L395.606 331.009C397.739 327.61 400.855 322.642 404.814 316.321L438.27 263.46L438.531 263.06L438.823 263.444L475.915 314.337H475.271L503.371 267.397L532.115 219.504L532.222 219.319H532.529L600.822 219.396L600.576 219.519L628.032 183.93V183.837H628.139L653.599 183.945H660.321H662.055L662.638 184.053Z" fill="#263238"/>
<path d="M449.657 275.594C449.679 276.118 449.543 276.637 449.268 277.083C448.993 277.53 448.591 277.884 448.114 278.099C447.637 278.315 447.106 278.383 446.59 278.294C446.074 278.205 445.597 277.963 445.219 277.6C444.841 277.237 444.58 276.769 444.47 276.256C444.36 275.743 444.405 275.209 444.6 274.722C444.795 274.235 445.131 273.818 445.565 273.524C445.998 273.229 446.51 273.072 447.033 273.072C447.714 273.059 448.373 273.318 448.864 273.79C449.356 274.263 449.641 274.911 449.657 275.594Z" fill="#263238"/>
<path d="M528.478 230.7C528.499 231.225 528.364 231.745 528.088 232.191C527.812 232.638 527.409 232.992 526.931 233.207C526.453 233.422 525.921 233.489 525.405 233.399C524.889 233.309 524.411 233.066 524.034 232.701C523.657 232.336 523.397 231.867 523.288 231.353C523.18 230.839 523.227 230.304 523.425 229.817C523.622 229.331 523.961 228.915 524.396 228.622C524.832 228.33 525.345 228.176 525.869 228.178C526.206 228.172 526.54 228.232 526.853 228.356C527.167 228.479 527.453 228.663 527.695 228.898C527.937 229.132 528.131 229.412 528.265 229.721C528.4 230.03 528.472 230.363 528.478 230.7Z" fill="#263238"/>
<path d="M587.102 222.226C588.551 222.226 589.726 221.096 589.726 219.703C589.726 218.31 588.551 217.181 587.102 217.181C585.653 217.181 584.478 218.31 584.478 219.703C584.478 221.096 585.653 222.226 587.102 222.226Z" fill="#263238"/>
<path d="M321.436 115.442C321.436 116.051 321.256 116.645 320.919 117.151C320.581 117.657 320.102 118.051 319.541 118.284C318.98 118.517 318.363 118.578 317.768 118.459C317.172 118.34 316.625 118.047 316.196 117.617C315.767 117.187 315.475 116.639 315.356 116.042C315.238 115.446 315.299 114.827 315.531 114.265C315.763 113.703 316.157 113.223 316.661 112.885C317.166 112.547 317.76 112.366 318.367 112.366C319.181 112.366 319.961 112.69 320.537 113.267C321.113 113.844 321.436 114.626 321.436 115.442Z" fill="#263238"/>
<path d="M330.276 115.442C330.276 116.051 330.096 116.645 329.758 117.151C329.421 117.657 328.942 118.051 328.381 118.284C327.82 118.517 327.203 118.578 326.608 118.459C326.012 118.34 325.465 118.047 325.036 117.617C324.607 117.187 324.314 116.639 324.196 116.042C324.078 115.446 324.138 114.827 324.371 114.265C324.603 113.703 324.996 113.223 325.501 112.885C326.006 112.547 326.599 112.366 327.206 112.366C328.02 112.366 328.801 112.69 329.377 113.267C329.952 113.844 330.276 114.626 330.276 115.442Z" fill="#263238"/>
<path d="M339.161 115.442C339.161 116.051 338.981 116.645 338.644 117.151C338.307 117.657 337.827 118.051 337.267 118.284C336.706 118.517 336.089 118.578 335.493 118.459C334.898 118.34 334.351 118.047 333.922 117.617C333.492 117.187 333.2 116.639 333.082 116.042C332.963 115.446 333.024 114.827 333.256 114.265C333.489 113.703 333.882 113.223 334.387 112.885C334.891 112.547 335.485 112.366 336.092 112.366C336.906 112.366 337.687 112.69 338.262 113.267C338.838 113.844 339.161 114.626 339.161 115.442Z" fill="#263238"/>
<path d="M699.931 127.454C699.931 127.669 611.595 127.854 502.649 127.854C393.703 127.854 305.399 127.654 305.399 127.454C305.399 127.254 393.719 127.054 502.695 127.054C611.672 127.054 699.931 127.223 699.931 127.454Z" fill="#263238"/>
<path d="M61.2639 594.545L69.5664 624.428C71.8499 632.543 77.0297 639.534 84.1206 644.071C91.2115 648.608 99.719 650.375 108.025 649.036C108.025 649.036 123.74 671.491 130.447 675.182L136.493 723.06H172.358L175.198 703.666C200.975 714.513 228.837 719.477 256.765 718.2C302.176 715.785 313.057 702.451 313.057 702.451L318.489 723.06H359.005L365.665 670.338C365.665 670.338 415.235 626.105 402.497 574.597C402.497 574.597 438.163 550.189 426.07 515.43L418.811 512.154C418.811 512.154 407.316 532.748 395.223 536.993C395.223 536.993 362.688 432.163 240.221 440.653C240.221 440.653 199.353 438.838 160.649 457.002C160.649 457.002 117.678 434.593 85.6804 450.942C85.6804 450.942 85.0819 487.854 103.206 509.124C103.206 509.124 87.4913 544.268 86.325 551.542L81.6443 553.419C73.7879 556.553 67.3628 562.484 63.6016 570.074C59.8404 577.663 59.0079 586.378 61.2639 594.545Z" fill="#FF3242"/>
<path d="M147.896 549.512C147.896 551.499 147.308 553.441 146.207 555.092C145.106 556.744 143.541 558.031 141.709 558.791C139.878 559.551 137.863 559.75 135.919 559.363C133.975 558.975 132.19 558.019 130.788 556.614C129.387 555.21 128.432 553.42 128.046 551.472C127.659 549.524 127.857 547.504 128.616 545.669C129.374 543.834 130.659 542.265 132.307 541.162C133.955 540.058 135.892 539.469 137.874 539.469C140.532 539.469 143.081 540.527 144.961 542.411C146.84 544.294 147.896 546.849 147.896 549.512Z" fill="#263238"/>
<g opacity="0.6">
<path opacity="0.6" d="M194.059 467.26L198.555 479.903C198.555 479.903 253.051 463.646 288.18 479.903L293.137 467.26C293.137 467.26 250.35 447.405 194.059 467.26Z" fill="black"/>
</g>
<path d="M297.557 485.701C297.211 485.529 296.878 485.334 296.559 485.117C295.914 484.701 294.948 484.132 293.705 483.409C290.166 481.394 286.452 479.705 282.609 478.365C276.908 476.387 271.012 475.026 265.022 474.304C257.678 473.446 250.279 473.168 242.892 473.474C235.495 473.683 228.114 474.274 220.777 475.243C214.792 476.015 208.9 477.391 203.19 479.349C199.346 480.678 195.652 482.41 192.171 484.517C189.7 486.055 188.442 486.993 188.38 486.916C188.66 486.644 188.963 486.397 189.286 486.178C190.154 485.485 191.061 484.843 192.002 484.255C195.451 482.03 199.143 480.209 203.006 478.826C208.726 476.772 214.647 475.328 220.67 474.52C228.034 473.516 235.447 472.915 242.876 472.72C250.301 472.411 257.738 472.709 265.114 473.612C271.149 474.383 277.082 475.812 282.808 477.873C286.654 479.278 290.355 481.055 293.858 483.179C295.101 483.948 296.037 484.578 296.636 485.024C296.96 485.225 297.268 485.452 297.557 485.701Z" fill="#263238"/>
<g opacity="0.2">
<path opacity="0.2" d="M84.1918 581.257C83.6143 579.695 82.6969 578.281 81.5061 577.119C80.9022 576.547 80.1442 576.165 79.326 576.021C78.5077 575.876 77.6651 575.974 76.9021 576.304C75.7376 577.229 74.925 578.527 74.6001 579.98C72.5774 589.135 74.1667 598.719 79.0353 606.726C79.3645 607.286 79.8081 607.77 80.3371 608.147C80.866 608.523 81.4684 608.783 82.1047 608.91C84.8517 609.387 86.2943 606.88 86.9696 604.603C89.2869 596.929 87.476 588.577 84.1918 581.257Z" fill="black"/>
</g>
<path d="M106.199 605.972C106.122 605.21 106.122 604.442 106.199 603.68C106.25 602.784 106.25 601.885 106.199 600.989C106.199 599.943 106.199 598.743 106.199 597.421C106.199 596.098 106.061 594.668 105.861 593.13C105.662 591.592 105.416 589.961 105.125 588.239C103.72 580.803 100.99 573.681 97.0677 567.214C96.1315 565.676 95.2874 564.323 94.3513 563.092C93.4152 561.862 92.5711 560.693 91.727 559.663C90.883 558.632 90.0849 557.771 89.3943 556.987C88.7037 556.202 88.0745 555.556 87.5527 555.033C86.9931 554.521 86.4796 553.96 86.0181 553.357C86.6539 553.79 87.2497 554.279 87.7983 554.818C88.4804 555.403 89.131 556.025 89.7473 556.679C90.6082 557.51 91.4228 558.388 92.1874 559.309C93.0622 560.309 93.9983 561.416 94.9191 562.693C95.8399 563.969 96.7607 565.353 97.7276 566.83C99.7205 570.073 101.425 573.485 102.823 577.027C104.163 580.606 105.19 584.296 105.892 588.054C106.153 589.792 106.444 591.438 106.552 593.007C106.659 594.575 106.767 596.083 106.797 597.344C106.828 598.605 106.797 599.882 106.797 600.943C106.781 601.843 106.714 602.741 106.598 603.634C106.528 604.423 106.395 605.205 106.199 605.972Z" fill="#263238"/>
<path d="M117.203 584.44C117.049 584.44 116.466 581.902 114.762 578.011C113.759 575.745 112.585 573.56 111.248 571.475C109.575 568.978 107.696 566.627 105.631 564.446C103.513 562.278 101.213 560.297 98.7558 558.525C96.7348 557.099 94.6053 555.833 92.3869 554.741C88.5963 552.88 86.0334 552.188 86.0948 552.034C86.7084 552.096 87.3116 552.236 87.8904 552.449C88.5956 552.633 89.2878 552.865 89.9622 553.142C90.8718 553.456 91.7633 553.82 92.6325 554.234C94.9194 555.271 97.112 556.506 99.1855 557.925C101.706 559.688 104.054 561.686 106.199 563.892C108.316 566.135 110.212 568.576 111.862 571.182C113.197 573.312 114.342 575.556 115.284 577.888C115.714 578.872 115.99 579.811 116.266 580.61C116.504 581.295 116.699 581.993 116.85 582.702C117.041 583.264 117.159 583.848 117.203 584.44Z" fill="#263238"/>
<path d="M75.4442 579.826C75.3793 579.546 75.3938 579.254 75.486 578.982C75.5782 578.711 75.7445 578.47 75.966 578.288C76.4583 577.797 77.1021 577.488 77.7923 577.411C78.2511 577.366 78.7143 577.414 79.1544 577.552C79.5946 577.689 80.0029 577.913 80.3551 578.211C81.9381 579.85 83.12 581.835 83.8081 584.009C85.8972 589.106 86.941 594.572 86.8775 600.082C87.0463 602.364 86.6289 604.651 85.6651 606.726C85.2749 607.421 84.687 607.984 83.9764 608.342C83.2657 608.701 82.4645 608.84 81.675 608.74C80.5393 608.525 80.1403 607.879 80.2324 607.895C80.6991 608.183 81.2227 608.367 81.767 608.433C82.4753 608.466 83.1782 608.296 83.7929 607.941C84.4075 607.587 84.908 607.064 85.2354 606.433C86.0743 604.428 86.4064 602.246 86.2022 600.082C86.192 597.382 85.9299 594.689 85.4195 592.038C84.9198 589.387 84.1801 586.787 83.2096 584.271C82.5814 582.188 81.5078 580.267 80.0636 578.642C79.5523 578.162 78.8841 577.884 78.1837 577.862C77.4833 577.839 76.7987 578.073 76.2576 578.519C75.8547 578.857 75.5697 579.315 75.4442 579.826Z" fill="#263238"/>
<path d="M152.577 586.917C152.577 586.917 152.822 587.209 153.098 587.839C153.452 588.731 153.679 589.668 153.774 590.623C153.96 592.215 153.82 593.829 153.363 595.364C152.905 596.9 152.139 598.326 151.111 599.555C150.084 600.783 148.816 601.788 147.387 602.508C145.958 603.229 144.398 603.648 142.801 603.742C141.845 603.816 140.884 603.754 139.946 603.558C139.286 603.404 138.949 603.265 138.949 603.204C140.211 603.289 141.477 603.289 142.739 603.204C145.759 602.881 148.536 601.398 150.488 599.066C152.439 596.735 153.413 593.736 153.206 590.7C153.073 589.427 152.863 588.164 152.577 586.917Z" fill="#263238"/>
<path d="M146.898 524.997C143.73 523.708 140.408 522.839 137.015 522.413C133.599 522.252 130.177 522.552 126.84 523.305C127.71 522.751 128.68 522.375 129.695 522.198C132.108 521.607 134.6 521.41 137.076 521.613C139.553 521.822 141.979 522.435 144.259 523.428C145.228 523.782 146.124 524.314 146.898 524.997Z" fill="#263238"/>
<path d="M315.88 458.632L315.497 458.509L314.376 458.078L310.095 456.371L307.025 455.11C305.89 454.664 304.631 454.264 303.296 453.803C300.595 452.911 297.587 451.727 294.088 450.85L288.686 449.312C286.814 448.804 284.819 448.435 282.762 447.974C278.695 446.959 274.245 446.344 269.595 445.575C259.422 444.237 249.157 443.723 238.902 444.037C228.672 444.48 218.495 445.751 208.469 447.835C203.865 448.927 199.491 449.881 195.501 451.188C193.506 451.803 191.526 452.311 189.7 452.972L184.421 454.879C181.029 456.002 178.113 457.402 175.489 458.494C174.185 459.063 172.957 459.555 171.867 460.032L168.89 461.57L164.747 463.6L163.672 464.107C163.555 464.181 163.425 464.234 163.289 464.261C163.289 464.261 163.396 464.261 163.626 464.046L164.67 463.461L168.752 461.293L171.699 459.755C172.788 459.217 174.016 458.694 175.305 458.109C177.914 456.986 180.83 455.541 184.221 454.372L189.501 452.419C191.342 451.742 193.307 451.219 195.317 450.573C199.323 449.235 203.712 448.266 208.316 447.143C218.377 445.01 228.597 443.709 238.871 443.252C249.13 442.964 259.395 443.514 269.564 444.898C274.245 445.682 278.695 446.328 282.793 447.359C284.834 447.851 286.845 448.235 288.717 448.774L294.119 450.312C297.587 451.219 300.595 452.449 303.327 453.388C304.662 453.864 305.92 454.295 307.056 454.741L310.125 456.079L314.346 457.94L315.435 458.448C315.773 458.555 315.896 458.617 315.88 458.632Z" fill="white"/>
<path d="M334.128 468.829C332.457 468.566 330.837 468.047 329.324 467.291C327.707 466.767 326.184 465.988 324.812 464.984C326.487 465.249 328.112 465.768 329.631 466.522C331.24 467.052 332.757 467.83 334.128 468.829Z" fill="white"/>
<path d="M79.0353 561.232C79.0353 561.37 77.6388 561.955 75.5209 563.293C69.9911 566.819 65.882 572.19 63.9189 578.458C63.1822 580.857 62.9981 582.41 62.8446 582.395C62.7813 582.029 62.7813 581.654 62.8446 581.288C62.9308 580.273 63.1106 579.269 63.3817 578.288C64.2197 575.049 65.6972 572.011 67.7269 569.353C69.7565 566.696 72.2972 564.473 75.1987 562.816C76.0667 562.305 76.9814 561.877 77.9304 561.54C78.2777 561.373 78.6518 561.268 79.0353 561.232Z" fill="white"/>
<path d="M173.31 714.079C173.31 714.079 173.034 713.709 172.389 713.217C171.425 712.54 170.242 712.249 169.074 712.402C168.178 712.496 167.317 712.798 166.558 713.284C165.798 713.77 165.163 714.426 164.7 715.201C163.553 717.286 163.021 719.654 163.166 722.03H162.46C162.584 720.82 162.446 719.598 162.057 718.446C161.668 717.295 161.036 716.24 160.204 715.355C159.276 714.396 158.083 713.736 156.779 713.462C155.474 713.188 154.117 713.312 152.883 713.817C152.093 714.155 151.398 714.685 150.862 715.359C150.327 716.033 149.966 716.83 149.814 717.677C149.626 718.468 149.629 719.293 149.824 720.082C150.019 720.872 150.4 721.603 150.934 722.215L150.305 722.599C149.49 719.662 148.003 716.955 145.962 714.694C145.157 713.842 144.147 713.211 143.03 712.861C141.912 712.511 140.724 712.454 139.578 712.694C138.839 712.904 138.157 713.276 137.58 713.785C137.004 714.293 136.549 714.924 136.248 715.632C136.065 716.164 135.952 716.717 135.91 717.278C135.76 716.707 135.797 716.103 136.017 715.555C136.291 714.775 136.743 714.069 137.338 713.495C137.932 712.921 138.652 712.494 139.44 712.248C140.672 711.943 141.962 711.964 143.183 712.309C144.405 712.654 145.516 713.312 146.407 714.217C148.566 716.517 150.144 719.302 151.011 722.338L151.64 724.06L150.397 722.707C149.773 722.009 149.326 721.171 149.093 720.264C148.861 719.356 148.85 718.406 149.062 717.493C149.244 716.513 149.666 715.594 150.29 714.818C150.914 714.042 151.721 713.434 152.638 713.048C154.022 712.481 155.543 712.342 157.006 712.649C158.47 712.956 159.808 713.695 160.848 714.771C161.746 715.742 162.424 716.897 162.838 718.154C163.251 719.412 163.389 720.745 163.242 722.061H162.537C162.407 719.563 163.01 717.083 164.271 714.924C164.834 714.027 165.609 713.282 166.527 712.756C167.321 712.336 168.194 712.084 169.09 712.018C170.345 711.901 171.595 712.282 172.573 713.079C172.897 713.347 173.15 713.69 173.31 714.079Z" fill="#263238"/>
<path d="M387.15 711.125L384.511 722.26C384.511 722.26 366.325 745.93 360.723 744.761C357.04 744.008 361.567 737.84 368.397 719.861L369.931 712.448L387.15 711.125Z" fill="#455A64"/>
<path d="M359.987 741.316C360.206 741.721 360.543 742.048 360.954 742.254C361.523 742.501 362.15 742.586 362.764 742.499C363.379 742.412 363.958 742.157 364.437 741.762C367.618 739.085 370.637 736.219 373.476 733.18C376.837 729.643 379.615 726.228 381.656 723.721L383.974 720.722C384.204 720.43 384.419 720.169 384.603 719.907C384.675 719.807 384.758 719.714 384.848 719.63C384.776 719.731 384.694 719.823 384.603 719.907L384.02 720.769C383.513 721.507 382.746 722.553 381.779 723.844C379.241 727.168 376.526 730.351 373.645 733.38C370.78 736.448 367.703 739.311 364.437 741.947C363.83 742.375 363.121 742.635 362.381 742.7C361.822 742.732 361.264 742.61 360.769 742.347C360.454 742.186 360.188 741.941 360.002 741.639C359.98 741.533 359.975 741.424 359.987 741.316Z" fill="#263238"/>
<path d="M362.55 733.626C363.036 733.431 363.567 733.372 364.084 733.456C365.302 733.577 366.474 733.982 367.507 734.641C368.578 735.257 369.443 736.177 369.993 737.286C370.241 737.734 370.377 738.235 370.392 738.747C370.392 738.747 370.223 738.194 369.793 737.394C369.206 736.37 368.359 735.521 367.338 734.933C366.342 734.292 365.223 733.868 364.054 733.687C363.554 733.64 363.052 733.62 362.55 733.626Z" fill="#263238"/>
<path d="M379.769 728.121C379.661 727.956 379.583 727.774 379.538 727.582C379.387 727.078 379.27 726.564 379.185 726.044C378.929 724.306 379.224 722.53 380.03 720.969C380.826 719.401 382.122 718.145 383.713 717.4C384.198 717.17 384.716 717.014 385.247 716.939C385.435 716.908 385.627 716.908 385.815 716.939C385.136 717.118 384.474 717.354 383.835 717.647C382.334 718.425 381.116 719.657 380.352 721.169C379.583 722.676 379.268 724.376 379.446 726.06C379.569 727.321 379.815 728.105 379.769 728.121Z" fill="#263238"/>
<path d="M385.999 713.017C385.999 713.017 385.662 714.555 385.324 716.57C385.183 717.78 384.863 718.962 384.373 720.077C384.373 720.077 384.664 718.539 385.002 716.508C385.148 715.299 385.485 714.121 385.999 713.017Z" fill="#263238"/>
<path d="M368.151 721.43C368.914 721.218 369.721 721.218 370.484 721.43C371.267 721.552 371.997 721.899 372.586 722.43C372.586 722.522 371.635 722.03 370.407 721.753C369.179 721.476 368.166 721.538 368.151 721.43Z" fill="#263238"/>
<path d="M367.783 723.337C368.418 723.11 369.112 723.11 369.747 723.337C370.417 723.434 371.028 723.773 371.466 724.29C371.466 724.367 370.683 723.891 369.671 723.66C368.658 723.429 367.798 723.444 367.783 723.337Z" fill="#263238"/>
<path d="M366.325 725.736C366.627 725.55 366.966 725.43 367.317 725.385C367.669 725.34 368.027 725.37 368.366 725.474C368.717 725.525 369.052 725.652 369.349 725.846C369.646 726.04 369.897 726.296 370.085 726.597C369.522 726.257 368.919 725.988 368.289 725.797C367.64 725.696 366.98 725.675 366.325 725.736Z" fill="#263238"/>
<path d="M369.41 720.63C369.41 720.63 370.238 720.415 371.543 719.908C372.298 719.606 373.031 719.251 373.737 718.846C374.121 718.616 374.535 718.354 374.934 718.077C375.333 717.801 375.717 717.401 375.702 716.97C375.686 716.539 375.149 716.293 374.735 716.401C374.303 716.551 373.917 716.81 373.615 717.155C372.939 717.785 372.372 718.385 371.911 718.908C370.975 719.954 370.469 720.646 370.376 720.615C370.455 720.428 370.558 720.252 370.683 720.092C370.898 719.769 371.236 719.308 371.681 718.754C372.207 718.121 372.765 717.515 373.354 716.939C373.689 716.549 374.124 716.257 374.612 716.093C374.759 716.047 374.913 716.033 375.066 716.053C375.218 716.073 375.364 716.126 375.494 716.207C375.624 716.289 375.734 716.399 375.818 716.528C375.902 716.657 375.956 716.802 375.978 716.955C375.948 717.239 375.852 717.512 375.697 717.753C375.542 717.993 375.334 718.194 375.088 718.339C374.684 718.62 374.264 718.876 373.829 719.108C373.109 719.513 372.354 719.853 371.573 720.123C371.047 720.308 370.509 720.457 369.962 720.569C369.624 720.646 369.41 720.661 369.41 720.63Z" fill="#263238"/>
<path d="M370.361 720.399C370.214 719.729 370.101 719.051 370.023 718.369C369.908 717.644 369.701 716.936 369.41 716.262C369.235 715.874 369.008 715.511 368.734 715.185C368.458 714.878 368.028 714.601 367.691 714.801C367.353 715.001 367.307 715.508 367.353 715.924C367.422 716.341 367.54 716.749 367.706 717.139C368.007 717.804 368.406 718.421 368.888 718.969C369.732 719.907 370.422 720.353 370.422 720.399C370.422 720.445 370.238 720.399 369.947 720.122C369.529 719.831 369.138 719.501 368.78 719.138C368.252 718.587 367.816 717.953 367.491 717.262C367.306 716.844 367.172 716.405 367.092 715.954C367.028 715.692 367.042 715.418 367.132 715.163C367.222 714.909 367.384 714.687 367.599 714.524C367.852 714.425 368.131 714.415 368.39 714.496C368.65 714.577 368.874 714.744 369.026 714.97C369.322 715.322 369.565 715.716 369.747 716.139C370.038 716.842 370.229 717.582 370.315 718.338C370.392 718.969 370.422 719.492 370.438 719.876C370.436 720.053 370.41 720.229 370.361 720.399Z" fill="#263238"/>
<path d="M474.212 716.293L474.289 701.436L446.588 701.098L446.204 722.86L447.923 722.999C455.596 723.522 486.888 725.09 492.029 723.599C497.769 721.907 474.212 716.293 474.212 716.293Z" fill="#455A64"/>
<path d="M445.821 722.199H446.296L447.678 722.306L452.711 722.583C456.978 722.799 462.871 722.998 469.378 723.091C475.885 723.183 481.778 723.091 486.044 723.091L491.093 722.952H492.459H492.935H492.459H491.093H486.044C481.793 722.952 475.9 722.952 469.393 722.952C462.886 722.952 457.008 722.691 452.742 722.552L447.693 722.368H446.327L445.821 722.199Z" fill="#263238"/>
<path d="M483.221 723.429C483.458 722.598 483.782 721.794 484.187 721.03C484.699 720.332 485.286 719.693 485.937 719.123C485.07 719.422 484.347 720.037 483.911 720.846C483.369 721.591 483.123 722.512 483.221 723.429Z" fill="#263238"/>
<path d="M475.087 719.169C475.163 719.169 475.562 718.739 475.961 718.108C476.36 717.477 476.652 716.924 476.575 716.862C476.499 716.801 476.1 717.293 475.685 717.923C475.271 718.554 474.995 719.108 475.087 719.169Z" fill="#263238"/>
<path d="M472.846 717.938C472.846 718.015 473.353 717.723 473.828 717.308C474.304 716.893 474.657 716.477 474.596 716.4C474.534 716.324 474.089 716.631 473.613 717.046C473.138 717.462 472.785 717.877 472.846 717.938Z" fill="#263238"/>
<path d="M471.465 715.294C471.924 715.472 472.417 715.545 472.908 715.509C473.423 715.581 473.948 715.534 474.442 715.371C473.954 715.182 473.428 715.114 472.908 715.171C472.423 715.107 471.931 715.149 471.465 715.294Z" fill="#263238"/>
<path d="M470.989 713.447C471.47 713.759 472.028 713.929 472.601 713.939C473.167 714.043 473.752 713.968 474.273 713.724C473.745 713.648 473.211 713.618 472.677 713.632C472.122 713.515 471.557 713.453 470.989 713.447Z" fill="#263238"/>
<path d="M476.054 716.708C476.643 716.806 477.244 716.806 477.834 716.708C478.48 716.647 479.118 716.518 479.737 716.323C480.116 716.219 480.482 716.069 480.826 715.877C481.043 715.764 481.208 715.571 481.287 715.339C481.317 715.206 481.309 715.067 481.263 714.939C481.217 714.811 481.134 714.699 481.026 714.616C480.348 714.273 479.572 714.175 478.83 714.341C478.089 714.506 477.428 714.924 476.959 715.524C476.678 715.871 476.474 716.275 476.36 716.708C476.32 716.864 476.32 717.028 476.36 717.185C476.544 716.627 476.825 716.107 477.189 715.647C477.598 715.183 478.13 714.847 478.724 714.678C479.072 714.56 479.441 714.514 479.808 714.543C480.175 714.572 480.531 714.675 480.857 714.847C481.133 715.062 481.026 715.385 480.704 715.57C480.384 715.748 480.044 715.887 479.691 715.985C479.09 716.188 478.474 716.342 477.849 716.446C476.729 716.708 476.054 716.708 476.054 716.708Z" fill="#263238"/>
<path d="M476.514 716.847C476.739 716.473 476.816 716.029 476.729 715.601C476.685 715.134 476.527 714.685 476.268 714.294C476.116 714.017 475.895 713.785 475.625 713.62C475.356 713.456 475.049 713.364 474.734 713.355C474.552 713.396 474.392 713.505 474.287 713.659C474.181 713.813 474.138 714.001 474.166 714.186C474.207 714.47 474.306 714.742 474.458 714.986C474.687 715.383 474.965 715.75 475.286 716.078C475.561 716.401 475.908 716.654 476.299 716.816C476.299 716.816 475.946 716.493 475.47 715.909C475.184 715.579 474.937 715.218 474.734 714.832C474.488 714.447 474.335 713.771 474.734 713.694C475.133 713.617 475.639 714.109 475.9 714.463C476.146 714.813 476.313 715.211 476.391 715.632C476.465 716.033 476.506 716.439 476.514 716.847Z" fill="#263238"/>
<path d="M446.496 714.586C446.496 714.586 447.279 714.586 448.537 714.678C450.171 714.879 451.715 715.541 452.989 716.586C454.264 717.632 455.215 719.018 455.735 720.584C456.149 721.784 456.18 722.583 456.241 722.583C456.271 722.395 456.271 722.203 456.241 722.014C456.21 721.492 456.117 720.976 455.965 720.476C455.489 718.835 454.527 717.376 453.206 716.294C451.885 715.212 450.268 714.557 448.568 714.417C448.057 714.368 447.543 714.368 447.033 714.417C446.845 714.439 446.663 714.497 446.496 714.586Z" fill="#263238"/>
<path d="M449.519 703.051C449.295 704.945 449.187 706.85 449.197 708.757C449.085 710.663 449.085 712.573 449.197 714.479C449.411 712.579 449.513 710.669 449.504 708.757C449.616 706.857 449.621 704.952 449.519 703.051Z" fill="#263238"/>
<path d="M459.801 720.077C461.128 720.392 462.489 720.542 463.853 720.523C465.215 720.616 466.583 720.523 467.92 720.246C467.92 720.154 466.094 720.246 463.868 720.246C461.643 720.246 459.817 719.969 459.801 720.077Z" fill="#263238"/>
<path d="M454.369 720C454.292 720 454.507 720.384 454.691 720.799C454.875 721.215 454.967 721.584 455.059 721.584C455.151 721.584 455.213 721.153 455.059 720.661C454.906 720.169 454.43 719.923 454.369 720Z" fill="#263238"/>
<path d="M452.343 717.416C452.343 717.416 452.45 717.77 452.742 718.062C453.034 718.354 453.31 718.539 453.371 718.477C453.433 718.416 453.264 718.123 452.988 717.831C452.711 717.539 452.42 717.339 452.343 717.416Z" fill="#263238"/>
<path d="M449.427 716.201C449.427 716.293 449.811 716.293 450.225 716.447C450.639 716.601 450.916 716.816 450.992 716.754C451.069 716.693 450.839 716.308 450.333 716.124C449.826 715.939 449.396 716.124 449.427 716.201Z" fill="#263238"/>
<path d="M447.34 715.632C447.34 715.709 447.463 715.862 447.693 715.955C447.923 716.047 448.138 716.047 448.169 715.955C448.199 715.862 448.046 715.724 447.831 715.632C447.616 715.539 447.386 715.539 447.34 715.632Z" fill="#263238"/>
<path d="M492.981 431.809L482.33 710.664L439.083 711.571L446.266 469.967L397.647 713.417H356.534L409.495 432.378L492.981 431.809Z" fill="#263238"/>
<path d="M456.226 441.96C456.193 443.509 456.028 445.053 455.735 446.574C455.336 449.389 454.722 453.295 454 457.571C453.723 459.615 453.313 461.639 452.773 463.63C452.282 465.303 451.297 466.789 449.949 467.891C449.041 468.627 447.956 469.109 446.803 469.29C446.39 469.396 445.957 469.396 445.544 469.29C447.034 469.072 448.435 468.45 449.596 467.491C450.804 466.408 451.673 464.998 452.097 463.43C452.592 461.464 452.976 459.472 453.248 457.463C453.97 453.172 454.66 449.296 455.197 446.497C455.419 444.96 455.763 443.443 456.226 441.96Z" fill="#455A64"/>
<path d="M447.233 443.298C447.325 443.298 446.972 443.821 447.233 444.543C447.285 444.74 447.376 444.924 447.5 445.085C447.623 445.246 447.778 445.381 447.954 445.482C448.175 445.56 448.414 445.577 448.644 445.531C448.874 445.485 449.088 445.378 449.262 445.22C449.437 445.063 449.565 444.861 449.635 444.636C449.705 444.412 449.712 444.172 449.657 443.944C449.586 443.754 449.475 443.582 449.332 443.439C449.189 443.296 449.018 443.185 448.829 443.113C448.123 442.805 447.632 443.113 447.586 443.005C447.54 442.898 447.985 442.375 448.997 442.59C449.287 442.661 449.557 442.798 449.786 442.99C450.015 443.182 450.197 443.424 450.317 443.697C450.445 444.062 450.458 444.456 450.353 444.828C450.249 445.2 450.033 445.53 449.734 445.774C449.456 446.038 449.103 446.209 448.724 446.264C448.345 446.319 447.958 446.255 447.616 446.081C447.36 445.926 447.144 445.713 446.984 445.459C446.825 445.206 446.726 444.919 446.695 444.62C446.588 443.605 447.202 443.205 447.233 443.298Z" fill="#455A64"/>
<path d="M424.013 447.282C423.506 446.031 423.317 444.674 423.461 443.332C423.606 441.99 424.08 440.705 424.842 439.592C425.041 439.684 424.412 441.33 424.213 443.437C424.013 445.544 424.228 447.22 424.013 447.282Z" fill="#455A64"/>
<path d="M429.216 446.943C428.582 445.68 428.361 444.248 428.586 442.852C428.566 441.432 428.984 440.041 429.783 438.869C429.983 438.869 429.492 440.699 429.354 442.898C429.379 444.248 429.332 445.598 429.216 446.943Z" fill="#455A64"/>
<path d="M473.905 448.081C473.864 446.682 473.946 445.282 474.151 443.898C474.098 442.496 474.16 441.091 474.335 439.699C474.911 441.029 475.108 442.493 474.903 443.929C474.954 445.378 474.609 446.814 473.905 448.081Z" fill="#455A64"/>
<path d="M479.553 447.773C479.338 447.681 480.013 445.851 480.167 443.513C480.32 441.175 479.921 439.283 480.167 439.222C480.783 440.584 481.052 442.079 480.95 443.571C480.848 445.063 480.379 446.507 479.583 447.773H479.553Z" fill="#455A64"/>
<path d="M432.776 315.798L459.479 313.66C459.648 310.584 459.479 298.464 459.479 298.464C459.479 298.464 470.59 296.726 470.728 285.607C470.866 274.487 468.933 248.925 468.933 248.925C462.609 246.18 455.668 245.182 448.829 246.034C441.991 246.886 435.505 249.557 430.044 253.77L428.402 255.047L432.776 315.798Z" fill="#FFBE9D"/>
<path d="M459.387 298.372C454.261 298.476 449.221 297.041 444.915 294.25C444.915 294.25 448.337 302.263 459.418 301.264L459.387 298.372Z" fill="#EB996E"/>
<path d="M464.498 266.367C464.498 266.774 464.336 267.166 464.048 267.454C463.76 267.742 463.37 267.905 462.963 267.905C462.761 267.919 462.559 267.894 462.367 267.83C462.175 267.766 461.998 267.664 461.845 267.531C461.693 267.398 461.568 267.237 461.478 267.055C461.388 266.874 461.334 266.676 461.321 266.474C461.321 266.066 461.483 265.675 461.77 265.387C462.058 265.098 462.449 264.936 462.856 264.936C463.057 264.922 463.26 264.947 463.452 265.011C463.643 265.075 463.821 265.176 463.973 265.309C464.126 265.442 464.251 265.604 464.341 265.785C464.431 265.967 464.484 266.164 464.498 266.367Z" fill="#263238"/>
<path d="M466.723 264.536C466.523 264.736 465.326 263.844 463.653 263.844C461.981 263.844 460.692 264.705 460.507 264.506C460.323 264.306 460.615 264.029 461.167 263.629C461.91 263.124 462.787 262.856 463.684 262.86C464.572 262.856 465.437 263.137 466.155 263.66C466.646 264.106 466.815 264.536 466.723 264.536Z" fill="#263238"/>
<path d="M447.263 266.766C447.263 267.174 447.102 267.565 446.814 267.853C446.526 268.142 446.136 268.304 445.729 268.304C445.527 268.319 445.324 268.293 445.133 268.229C444.941 268.165 444.763 268.064 444.611 267.931C444.458 267.798 444.333 267.636 444.243 267.455C444.153 267.273 444.1 267.076 444.086 266.874C444.086 266.466 444.248 266.074 444.536 265.786C444.824 265.498 445.214 265.336 445.621 265.336C445.823 265.321 446.025 265.346 446.217 265.41C446.409 265.474 446.586 265.576 446.739 265.709C446.891 265.842 447.016 266.003 447.106 266.185C447.196 266.366 447.25 266.564 447.263 266.766Z" fill="#263238"/>
<path d="M449.949 264.89C449.749 265.105 448.552 264.213 446.88 264.213C445.207 264.213 443.918 265.075 443.733 264.859C443.549 264.644 443.841 264.398 444.393 263.998C445.129 263.479 446.011 263.21 446.91 263.229C447.798 263.226 448.663 263.506 449.381 264.029C449.872 264.429 450.056 264.798 449.949 264.89Z" fill="#263238"/>
<path d="M456.149 277.578C457.046 277.299 457.974 277.129 458.911 277.071C459.356 277.071 459.771 276.948 459.832 276.64C459.872 276.19 459.77 275.738 459.541 275.348C459.142 274.323 458.712 273.216 458.251 272.026C457.059 269.212 456.094 266.306 455.366 263.336C456.784 266.052 457.985 268.875 458.957 271.78C459.387 272.934 459.786 274.056 460.185 275.118C460.457 275.649 460.533 276.258 460.4 276.84C460.337 276.996 460.239 277.134 460.114 277.246C459.989 277.358 459.84 277.44 459.679 277.486C459.439 277.555 459.191 277.591 458.942 277.594C458.014 277.705 457.076 277.7 456.149 277.578Z" fill="#263238"/>
<path d="M451.192 278.763C451.468 278.763 451.468 280.593 453.049 281.916C454.63 283.239 456.609 283.039 456.625 283.285C456.64 283.531 456.18 283.654 455.351 283.669C454.268 283.687 453.214 283.322 452.374 282.639C451.54 281.982 450.991 281.03 450.839 279.978C450.793 279.209 450.993 278.748 451.192 278.763Z" fill="#263238"/>
<path d="M450.394 258.2C450.225 258.661 448.522 258.43 446.527 258.676C444.532 258.922 442.905 259.476 442.629 259.046C442.521 258.846 442.797 258.415 443.442 257.969C444.314 257.415 445.301 257.068 446.328 256.953C447.354 256.838 448.393 256.96 449.366 257.308C450.102 257.6 450.471 257.969 450.394 258.2Z" fill="#263238"/>
<path d="M466.094 259.63C465.802 260.015 464.559 259.63 463.208 259.63C461.858 259.63 460.6 259.892 460.323 259.476C460.047 259.061 460.323 258.892 460.922 258.523C461.618 258.069 462.44 257.848 463.27 257.892C464.097 257.91 464.9 258.178 465.572 258.661C466.063 259.03 466.232 259.43 466.094 259.63Z" fill="#263238"/>
<path d="M429.707 266.597C429.522 266.52 422.033 264.336 422.325 271.95C422.617 279.563 430.136 277.748 430.152 277.532C430.167 277.317 429.707 266.597 429.707 266.597Z" fill="#FFBE9D"/>
<path d="M427.788 274.717C427.788 274.717 427.665 274.81 427.451 274.917C427.131 275.048 426.773 275.048 426.453 274.917C425.967 274.613 425.569 274.185 425.299 273.678C425.03 273.17 424.899 272.6 424.918 272.026C424.874 271.37 424.979 270.713 425.225 270.103C425.289 269.866 425.408 269.646 425.574 269.464C425.74 269.282 425.946 269.143 426.177 269.058C426.328 269.014 426.49 269.024 426.635 269.086C426.781 269.147 426.9 269.257 426.975 269.396C427.082 269.611 426.975 269.765 427.082 269.781C427.19 269.796 427.236 269.642 427.174 269.334C427.121 269.145 427.008 268.977 426.852 268.858C426.636 268.712 426.373 268.652 426.115 268.689C425.806 268.761 425.52 268.912 425.286 269.128C425.052 269.343 424.878 269.616 424.78 269.919C424.471 270.587 424.334 271.322 424.381 272.057C424.364 272.735 424.549 273.403 424.913 273.976C425.276 274.548 425.802 274.999 426.422 275.271C426.626 275.325 426.84 275.332 427.047 275.292C427.254 275.252 427.45 275.166 427.619 275.04C427.788 274.902 427.819 274.733 427.788 274.717Z" fill="#EB996E"/>
<path d="M473.076 239.313C472.267 237.71 471.103 236.314 469.672 235.232C468.241 234.15 466.582 233.411 464.822 233.071C463.062 232.731 461.248 232.799 459.519 233.271C457.789 233.742 456.19 234.604 454.845 235.791C454.002 234.106 452.759 232.655 451.226 231.563C449.693 230.472 447.916 229.774 446.051 229.531C444.186 229.288 442.29 229.508 440.53 230.17C438.769 230.832 437.197 231.917 435.953 233.33C433.82 235.76 432.715 239.036 430.228 241.02C428.065 242.789 425.149 243.373 422.969 245.111C421.766 246.078 420.853 247.358 420.329 248.811C419.805 250.265 419.692 251.835 420.001 253.349C420.311 254.862 421.031 256.261 422.083 257.391C423.134 258.521 424.477 259.338 425.962 259.753C425.416 260.847 425.098 262.041 425.026 263.263C424.955 264.484 425.132 265.707 425.547 266.858C425.962 268.009 426.605 269.063 427.439 269.957C428.273 270.851 429.279 271.565 430.397 272.057L431.502 271.596C433.569 269.239 434.891 266.321 435.301 263.21C435.711 260.1 435.19 256.937 433.804 254.124C433.937 254.132 434.07 254.132 434.203 254.124C436.113 255.191 438.349 255.512 440.481 255.023C442.612 254.535 444.487 253.272 445.744 251.479C447.282 252.558 449.097 253.174 450.973 253.253C452.85 253.332 454.71 252.871 456.333 251.925C456.788 251.578 457.311 251.331 457.868 251.202C458.571 251.213 459.256 251.421 459.848 251.802C461.495 252.694 463.372 253.069 465.234 252.878C466.093 252.773 466.911 252.453 467.613 251.947C468.316 251.442 468.881 250.768 469.255 249.987H469.393C470.455 249.744 471.429 249.214 472.211 248.455C472.993 247.695 473.553 246.736 473.828 245.68C474.381 243.538 474.113 241.266 473.076 239.313Z" fill="#263238"/>
<path d="M489.927 372.873L490.909 322.735C482.023 313.983 477.281 311.369 464.912 309.908L461.551 309.523L460.492 301.264L430.167 299.542L431.702 309.354C427.313 309.539 423.66 310.892 419.931 311.615C408.145 313.876 399.658 322.473 397.31 330.425C395.361 336.961 382.915 385.423 382.915 385.423L380.382 400.05L408.221 389.93V400.465V439.161H492.628C492.92 429.933 489.927 372.873 489.927 372.873Z" fill="#FF3242"/>
<g opacity="0.2">
<path opacity="0.2" d="M489.927 372.873L490.909 322.735C482.023 313.983 477.281 311.369 464.912 309.908L461.551 309.523L460.492 301.264L430.167 299.542L431.702 309.354C427.313 309.539 423.66 310.892 419.931 311.615C408.145 313.876 399.658 322.473 397.31 330.425C395.361 336.961 382.915 385.423 382.915 385.423L380.382 400.05L408.221 389.93V400.465V439.161H492.628C492.92 429.933 489.927 372.873 489.927 372.873Z" fill="black"/>
</g>
<path d="M393.059 386.115L434.694 380.194L442.613 394.405L403.909 411.892C401.751 412.884 399.408 413.408 397.034 413.43C393.711 413.422 390.465 412.421 387.713 410.555C384.96 408.69 382.825 406.044 381.58 402.956L380.321 399.88L393.059 386.115Z" fill="#FF3242"/>
<g opacity="0.2">
<path opacity="0.2" d="M393.059 386.115L434.694 380.194L442.613 394.405L403.909 411.892C401.751 412.884 399.408 413.408 397.034 413.43C393.711 413.422 390.465 412.421 387.713 410.555C384.96 408.69 382.825 406.044 381.58 402.956L380.321 399.88L393.059 386.115Z" fill="black"/>
</g>
<path d="M478.141 312.968C478.141 312.968 489.912 316.982 494.853 328.348C498.076 335.761 502.818 371.412 502.818 371.412L508.788 382.962C510.224 385.732 510.971 388.808 510.967 391.929V393.697C510.972 398.179 509.432 402.526 506.609 406.001C504.971 408.02 502.945 409.69 500.652 410.91C498.358 412.131 495.844 412.878 493.257 413.107C487.287 413.645 480.074 413.876 478.54 412.123C475.823 409.047 471.741 400.634 471.741 400.634L489.129 391.406L481.64 377.564L478.141 312.968Z" fill="#FF3242"/>
<g opacity="0.2">
<path opacity="0.2" d="M478.141 312.968C478.141 312.968 489.912 316.982 494.853 328.348C498.076 335.761 502.818 371.412 502.818 371.412L508.788 382.962C510.224 385.732 510.971 388.808 510.967 391.929V393.697C510.972 398.179 509.432 402.526 506.609 406.001C504.971 408.02 502.945 409.69 500.652 410.91C498.358 412.131 495.844 412.878 493.257 413.107C487.287 413.645 480.074 413.876 478.54 412.123C475.823 409.047 471.741 400.634 471.741 400.634L489.129 391.406L481.64 377.564L478.141 312.968Z" fill="black"/>
</g>
<path d="M406.809 410.647C406.809 410.647 407.024 410.493 407.485 410.262L409.48 409.293L416.954 405.787L442.46 394.113L442.291 394.651L437.411 385.885L434.341 380.44L434.71 380.625L404.201 383.624L395.146 384.439L392.691 384.624C392.406 384.668 392.116 384.668 391.831 384.624C392.107 384.548 392.39 384.496 392.675 384.47L395.115 384.162L404.155 383.117L434.664 379.887H434.909L435.032 380.102L438.101 385.547L442.966 394.313L443.166 394.667L442.797 394.836L417.184 406.263L409.618 409.555L407.561 410.416C407.319 410.516 407.067 410.593 406.809 410.647Z" fill="#263238"/>
<path d="M414.207 381.994C413.992 381.994 413.823 374.534 413.823 365.337C413.823 356.14 413.992 348.681 414.207 348.681C414.421 348.681 414.59 356.14 414.59 365.337C414.59 374.534 414.36 381.994 414.207 381.994Z" fill="#263238"/>
<path d="M485.875 393.144C485.875 393.144 486.321 393.005 487.134 392.944C488.309 392.834 489.493 392.901 490.648 393.144C491.493 393.325 492.26 393.766 492.843 394.405C493.451 395.17 493.848 396.083 493.994 397.05C494.183 398.117 494.088 399.216 493.718 400.234C493.298 401.324 492.566 402.265 491.615 402.941C489.774 404.067 487.721 404.8 485.584 405.094C483.88 405.425 482.148 405.595 480.412 405.602C478.808 405.739 477.195 405.458 475.731 404.786C477.279 405.025 478.847 405.118 480.412 405.063C482.105 404.982 483.789 404.761 485.446 404.402C487.472 404.094 489.417 403.389 491.17 402.326C491.97 401.752 492.595 400.966 492.972 400.055C493.349 399.144 493.464 398.146 493.303 397.173C493.192 396.318 492.87 395.504 492.367 394.805C491.874 394.25 491.228 393.854 490.51 393.667C489.406 393.39 488.272 393.245 487.134 393.236C486.712 393.254 486.29 393.223 485.875 393.144Z" fill="#263238"/>
<path d="M492.781 413.307C491.788 413.608 490.748 413.728 489.712 413.661C487.259 413.739 484.814 413.337 482.514 412.477C481.244 411.996 480.041 411.349 478.939 410.554C478.043 409.88 477.292 409.033 476.729 408.063C476.154 407.211 475.787 406.237 475.654 405.217C475.777 405.217 476.176 406.263 477.189 407.77C477.78 408.635 478.518 409.39 479.368 410C480.441 410.719 481.595 411.307 482.806 411.754C485.024 412.582 487.362 413.044 489.727 413.123C490.748 413.111 491.769 413.173 492.781 413.307Z" fill="#263238"/>
<path d="M501.099 377.164C500.5 378.058 499.811 378.888 499.043 379.64C497.708 381.101 495.82 383.101 493.702 385.269C491.584 387.438 489.651 389.391 488.208 390.76C487.486 391.561 486.672 392.273 485.783 392.882C486.361 391.972 487.046 391.136 487.824 390.391C489.16 388.853 491.047 386.915 493.15 384.746C495.602 382.019 498.26 379.484 501.099 377.164Z" fill="#263238"/>
<path d="M482.131 369.382C481.746 366.224 481.618 363.04 481.747 359.861C481.618 356.678 481.747 353.489 482.131 350.326C482.515 353.489 482.643 356.678 482.515 359.861C482.644 363.04 482.515 366.224 482.131 369.382Z" fill="#263238"/>
<path d="M488.331 319.427C488.331 319.643 469.593 319.827 446.481 319.827C423.369 319.827 404.63 319.643 404.63 319.427C404.63 319.212 423.369 319.027 446.481 319.027C469.593 319.027 488.331 319.197 488.331 319.427Z" fill="#FAFAFA"/>
<path d="M460.722 309.815C455.918 310.187 451.097 310.295 446.281 310.138C441.467 310.249 436.651 310.084 431.855 309.646C436.655 309.283 441.47 309.181 446.281 309.338C451.1 309.236 455.921 309.395 460.722 309.815Z" fill="#263238"/>
<path d="M497.432 336.376C497.432 336.592 474.688 336.776 446.619 336.776C418.55 336.776 395.791 336.592 395.791 336.376C395.791 336.161 418.55 335.961 446.619 335.961C474.688 335.961 497.432 336.146 497.432 336.376Z" fill="#FAFAFA"/>
<path d="M500.578 353.741C500.578 353.971 476.023 354.141 445.652 354.141C415.281 354.141 390.726 353.971 390.726 353.741C390.726 353.51 415.281 353.341 445.652 353.341C476.023 353.341 500.578 353.572 500.578 353.741Z" fill="#FAFAFA"/>
<path d="M502.542 370.735C502.542 370.95 476.591 371.135 444.578 371.135C412.565 371.135 386.613 370.95 386.613 370.735C386.613 370.52 412.565 370.335 444.578 370.335C476.591 370.335 502.542 370.504 502.542 370.735Z" fill="#FAFAFA"/>
<path d="M510.384 398.342C510.384 398.557 481.548 398.742 445.928 398.742C410.308 398.742 381.472 398.557 381.472 398.342C381.472 398.126 410.308 397.942 445.928 397.942C481.548 397.942 510.384 398.096 510.384 398.342Z" fill="#FAFAFA"/>
<path d="M491.891 417.675C491.891 417.89 472.861 418.075 449.396 418.075C425.931 418.075 406.901 417.89 406.901 417.675C406.901 417.459 425.916 417.275 449.396 417.275C472.877 417.275 491.891 417.444 491.891 417.675Z" fill="#FAFAFA"/>
<path d="M472.217 373.365L471.311 372.688C468.995 370.945 466.34 369.706 463.517 369.052C460.694 368.398 457.767 368.342 454.921 368.889C450.237 369.789 445.852 371.851 442.168 374.888L435.032 380.778L442.613 394.405L447.785 387.161C447.785 387.161 452.604 393.713 453.463 393.021C454.227 392.203 454.864 391.275 455.351 390.268L451.913 385.438L460.17 387.161L472.217 381.639L467.045 375.087L472.217 376.81V373.365Z" fill="#FFBE9D"/>
<path d="M459.495 372.119L432.991 404.279L435.032 406.478L478.033 399.911L499.365 367.751L497.385 365.967L459.495 372.119Z" fill="#263238"/>
<path d="M487.61 380.609C486.784 380.606 485.976 380.854 485.294 381.321C484.611 381.788 484.086 382.451 483.788 383.224C483.323 384.829 482.42 386.273 481.179 387.392C479.261 388.437 475.962 389.268 474.227 388.422C472.493 387.576 465.541 381.301 464.329 381.993C463.116 382.685 462.073 384.254 463.285 385.654C464.498 387.053 470.959 391.221 469.715 392.621C468.472 394.02 454.937 387.884 452.834 388.422C450.732 388.96 449.534 390.237 450.747 391.083C451.959 391.929 461.167 395.404 461.689 396.62C461.689 396.62 447.785 392.959 447.263 393.836C446.741 394.712 445.882 396.097 447.263 396.62C448.644 397.142 460.646 400.28 461.689 400.803C463.412 401.512 465.209 402.028 467.045 402.341C468.941 402.834 470.811 403.425 472.647 404.11C475.458 405.096 478.532 405.014 481.287 403.879L482.699 403.31C483.767 402.872 484.671 402.11 485.285 401.131C485.899 400.151 486.191 399.004 486.121 397.85L485.845 393.113L487.379 389.191L487.61 380.609Z" fill="#FFBE9D"/>
<path d="M499.442 368.044C499.185 368.144 498.917 368.211 498.644 368.244L496.342 368.644L487.871 370.013L475.286 371.935L467.858 373.058C465.236 373.347 462.744 374.358 460.661 375.98C458.749 377.843 456.999 379.865 455.428 382.025C453.786 384.055 452.22 386.023 450.716 387.9L442.721 397.82L437.273 404.495L435.738 406.279C435.571 406.495 435.381 406.691 435.17 406.863C435.17 406.863 435.293 406.617 435.615 406.187L437.012 404.31L442.26 397.512L450.133 387.469L454.737 381.563C456.339 379.364 458.126 377.306 460.078 375.411C462.267 373.704 464.886 372.639 467.644 372.335L475.087 371.259L487.702 369.49L496.219 368.367L498.536 368.106C498.833 368.035 499.139 368.014 499.442 368.044Z" fill="#455A64"/>
<path d="M479.322 375.088C478.863 375.327 478.456 375.657 478.125 376.057C477.975 376.268 477.895 376.521 477.895 376.78C477.895 377.039 477.975 377.291 478.125 377.503C478.372 377.719 478.688 377.838 479.016 377.838C479.343 377.838 479.659 377.719 479.906 377.503C480.252 377.256 480.493 376.888 480.581 376.472C480.626 376.266 480.617 376.051 480.555 375.849C480.493 375.647 480.381 375.464 480.228 375.319C480.061 375.189 479.856 375.118 479.645 375.118C479.434 375.118 479.228 375.189 479.062 375.319" fill="#FAFAFA"/>
<path d="M353.787 302.77L345.991 288.928C350.812 281.081 352.531 271.71 350.808 262.658C349.085 253.606 344.045 245.526 336.68 240.009C329.315 234.491 320.156 231.934 311.005 232.841C301.854 233.747 293.373 238.051 287.227 244.907C281.082 251.763 277.719 260.674 277.797 269.89C277.876 279.105 281.391 287.957 287.653 294.707C293.914 301.456 302.468 305.614 311.633 306.363C320.798 307.113 329.912 304.399 337.182 298.756L353.787 302.77Z" fill="#FF3242"/>
<path d="M301.915 265.244C301.915 261.922 303.91 259.814 306.749 259.814C309.588 259.814 311.553 261.891 311.553 265.244C311.553 268.596 309.573 270.688 306.749 270.688C303.925 270.688 301.915 268.581 301.915 265.244ZM308.775 265.244C308.775 263.137 307.962 262.168 306.749 262.168C305.537 262.168 304.723 263.213 304.723 265.244C304.723 267.274 305.552 268.32 306.749 268.32C307.946 268.32 308.775 267.366 308.775 265.244ZM318.321 260.03H321.62L308.361 279.762H305.061L318.321 260.03ZM315.129 274.548C315.129 271.226 317.124 269.104 319.932 269.104C322.74 269.104 324.751 271.226 324.751 274.548C324.751 277.871 322.756 279.993 319.932 279.993C317.108 279.993 315.129 277.871 315.129 274.548ZM321.958 274.548C321.958 272.457 321.144 271.472 319.932 271.472C318.72 271.472 317.906 272.488 317.906 274.548C317.906 276.609 318.735 277.624 319.932 277.624C321.129 277.624 321.958 276.64 321.958 274.548Z" fill="white"/>
</svg>
