<svg width="120" height="120" viewBox="0 0 120 120" fill="none" xmlns="http://www.w3.org/2000/svg">
<path d="M60 0C52.1207 0 44.3185 1.55195 37.039 4.56723C29.7595 7.58251 23.1451 12.0021 17.5736 17.5736C6.32141 28.8258 0 44.087 0 60C0 75.913 6.32141 91.1742 17.5736 102.426C23.1451 107.998 29.7595 112.417 37.039 115.433C44.3185 118.448 52.1207 120 60 120C75.913 120 91.1742 113.679 102.426 102.426C113.679 91.1742 120 75.913 120 60C120 53.04 118.74 46.14 116.34 39.66L106.74 49.26C107.58 52.8 108 56.4 108 60C108 72.7304 102.943 84.9394 93.9411 93.9411C84.9394 102.943 72.7304 108 60 108C47.2696 108 35.0606 102.943 26.0589 93.9411C17.0571 84.9394 12 72.7304 12 60C12 47.2696 17.0571 35.0606 26.0589 26.0589C35.0606 17.0571 47.2696 12 60 12C63.6 12 67.2 12.42 70.74 13.26L80.4 3.6C73.86 1.26 66.96 0 60 0ZM102 0L78 24V33L62.7 48.3C61.8 48 60.9 48 60 48C56.8174 48 53.7652 49.2643 51.5147 51.5147C49.2643 53.7652 48 56.8174 48 60C48 63.1826 49.2643 66.2348 51.5147 68.4853C53.7652 70.7357 56.8174 72 60 72C63.1826 72 66.2348 70.7357 68.4853 68.4853C70.7357 66.2348 72 63.1826 72 60C72 59.1 72 58.2 71.7 57.3L87 42H96L120 18H102V0ZM60 24C50.4522 24 41.2955 27.7928 34.5442 34.5442C27.7928 41.2955 24 50.4522 24 60C24 69.5478 27.7928 78.7045 34.5442 85.4558C41.2955 92.2072 50.4522 96 60 96C69.5478 96 78.7045 92.2072 85.4558 85.4558C92.2072 78.7045 96 69.5478 96 60H84C84 66.3652 81.4714 72.4697 76.9706 76.9706C72.4697 81.4714 66.3652 84 60 84C53.6348 84 47.5303 81.4714 43.0294 76.9706C38.5286 72.4697 36 66.3652 36 60C36 53.6348 38.5286 47.5303 43.0294 43.0294C47.5303 38.5286 53.6348 36 60 36V24Z" fill="#FF3242"/>
</svg>
