<svg width="36" height="36" viewBox="0 0 36 36" fill="none" xmlns="http://www.w3.org/2000/svg">
<path d="M32.022 24.138C33.732 20.232 33.732 15.75 32.022 11.862L27.09 14.094C28.17 16.578 28.17 19.404 27.108 21.906L32.022 24.138ZM24.156 3.978C20.25 2.268 15.768 2.268 11.862 3.978L14.094 8.892C16.596 7.83 19.422 7.83 21.924 8.91L24.156 3.978ZM3.978 11.844C2.268 15.768 2.268 20.232 3.978 24.156L8.91 21.906C7.83 19.422 7.83 16.578 8.91 14.076L3.978 11.844ZM11.862 32.022C15.768 33.732 20.25 33.732 24.156 32.004L21.924 27.09C19.44 28.17 16.596 28.17 14.112 27.108L11.862 32.022ZM18 0C20.3638 0 22.7044 0.465584 24.8883 1.37017C27.0722 2.27475 29.0565 3.60062 30.7279 5.27208C32.3994 6.94353 33.7252 8.92784 34.6298 11.1117C35.5344 13.2956 36 15.6362 36 18C36 22.7739 34.1036 27.3523 30.7279 30.7279C27.3523 34.1036 22.7739 36 18 36C15.6362 36 13.2956 35.5344 11.1117 34.6298C8.92784 33.7252 6.94353 32.3994 5.27208 30.7279C1.89642 27.3523 0 22.7739 0 18C0 13.2261 1.89642 8.64773 5.27208 5.27208C8.64773 1.89642 13.2261 0 18 0ZM18 10.8C16.0904 10.8 14.2591 11.5586 12.9088 12.9088C11.5586 14.2591 10.8 16.0904 10.8 18C10.8 19.9096 11.5586 21.7409 12.9088 23.0912C14.2591 24.4414 16.0904 25.2 18 25.2C19.9096 25.2 21.7409 24.4414 23.0912 23.0912C24.4414 21.7409 25.2 19.9096 25.2 18C25.2 16.0904 24.4414 14.2591 23.0912 12.9088C21.7409 11.5586 19.9096 10.8 18 10.8Z" fill="#FF3242"/>
</svg>
