<svg width="120" height="135" viewBox="0 0 120 135" fill="none" xmlns="http://www.w3.org/2000/svg">
<path d="M100 95.4696C94.9333 95.4696 90.4 97.5038 86.9333 100.691L39.4 72.5515C39.7333 70.992 40 69.4324 40 67.8051C40 66.1778 39.7333 64.6183 39.4 63.0588L86.4 35.1909C90 38.5811 94.7333 40.6831 100 40.6831C111.067 40.6831 120 31.5972 120 20.3415C120 9.08589 111.067 0 100 0C88.9333 0 80 9.08589 80 20.3415C80 21.9689 80.2667 23.5284 80.6 25.0879L33.6 52.9558C30 49.5655 25.2667 47.4636 20 47.4636C8.93333 47.4636 0 56.5495 0 67.8051C0 79.0608 8.93333 88.1467 20 88.1467C25.2667 88.1467 30 86.0447 33.6 82.6544L81.0667 110.794C80.7333 112.217 80.5333 113.709 80.5333 115.269C80.5333 126.185 89.2667 135 100 135C110.733 135 119.467 126.185 119.467 115.269C119.467 104.352 110.733 95.4696 100 95.4696ZM100 13.561C103.667 13.561 106.667 16.6123 106.667 20.3415C106.667 24.0708 103.667 27.122 100 27.122C96.3333 27.122 93.3333 24.0708 93.3333 20.3415C93.3333 16.6123 96.3333 13.561 100 13.561ZM20 74.5856C16.3333 74.5856 13.3333 71.5344 13.3333 67.8051C13.3333 64.0758 16.3333 61.0246 20 61.0246C23.6667 61.0246 26.6667 64.0758 26.6667 67.8051C26.6667 71.5344 23.6667 74.5856 20 74.5856ZM100 122.049C96.3333 122.049 93.3333 118.998 93.3333 115.269C93.3333 111.539 96.3333 108.488 100 108.488C103.667 108.488 106.667 111.539 106.667 115.269C106.667 118.998 103.667 122.049 100 122.049Z" fill="#FF3242"/>
</svg>
