<svg width="672" height="723" viewBox="0 0 672 723" fill="none" xmlns="http://www.w3.org/2000/svg">
<path d="M77.6791 423.403H115.969V407.223H77.6791V423.403Z" fill="#EBEBEB"/>
<path d="M99.051 386.819L118.022 386.415L127.653 386.256C130.877 386.183 134.116 386.256 137.341 386.183H137.977V386.834L138.064 403.015V403.738H137.37L118.225 403.651C111.848 403.651 105.457 403.477 99.0799 403.405H98.675V403.015C98.675 400.267 98.7907 397.534 98.863 394.845L99.051 386.819ZM99.051 386.819L99.2534 394.989C99.2534 397.693 99.4124 400.354 99.4414 403L99.051 402.61C105.428 402.538 111.819 402.378 118.196 402.364L137.37 402.277L136.647 403V386.819L137.37 387.528C134.218 387.528 131.065 387.528 127.899 387.441L118.384 387.282L99.051 386.819Z" fill="#EBEBEB"/>
<path d="M56.394 386.819L75.3655 386.415L84.9958 386.256C88.2204 386.183 91.445 386.256 94.684 386.183H95.3203V386.834L95.407 403.015V403.738H94.684L75.539 403.651C69.1477 403.651 62.7708 403.477 56.394 403.405H55.9891V403.015C55.9891 400.267 56.1192 397.534 56.1771 394.845L56.394 386.819ZM56.394 386.819L56.5964 394.989C56.5964 397.693 56.7555 400.354 56.7844 403L56.394 402.61C62.7708 402.538 69.1477 402.378 75.539 402.364L94.684 402.277L93.961 403V386.819L94.6117 387.47C91.445 387.47 88.3072 387.47 85.1404 387.383L75.6257 387.224L56.394 386.819Z" fill="#EBEBEB"/>
<path d="M645.306 86.6732L626.335 87.0781L616.705 87.2372C613.48 87.3095 610.241 87.2372 607.016 87.3239H606.38V86.6732L606.293 70.4925V69.7695H607.016L626.161 69.8707C632.553 69.8707 638.93 70.0298 645.306 70.1021H645.711V70.4925C645.711 73.2399 645.581 75.9728 645.523 78.6769L645.306 86.6732ZM645.306 86.6732L645.104 78.5033C645.104 75.8138 644.945 73.1531 644.916 70.4925L645.306 70.8974C638.93 70.8974 632.553 71.1287 626.161 71.1287L607.016 71.2155L607.739 70.4925L607.667 86.6732L607.016 86.037C610.169 86.037 613.321 86.037 616.488 86.037L626.002 86.2105L645.306 86.6732Z" fill="#EBEBEB"/>
<path d="M666.664 90.8956H628.374V107.076H666.664V90.8956Z" fill="#EBEBEB"/>
<path d="M94.6262 86.7585L75.6402 87.1489L66.0099 87.3225C62.7853 87.3225 59.5607 87.3225 56.3361 87.3225H55.6854V86.7585V70.5778V69.8403H56.394L75.539 69.9271C81.9159 69.9271 88.2927 70.0862 94.6841 70.1585H95.0745V70.5489C95.0745 73.2818 94.9443 76.0147 94.8865 78.7188L94.6262 86.7585ZM94.6262 86.7585L94.4093 78.5742C94.4093 75.8846 94.2503 73.224 94.2213 70.5778L94.6262 70.9682C88.2349 71.0405 81.858 71.1996 75.4812 71.1996L56.394 71.243L57.1025 70.52L56.9724 86.7585L56.394 86.05C59.5462 86.05 62.6841 86.05 65.8508 86.1367L75.3655 86.2958L94.6262 86.7585Z" fill="#EBEBEB"/>
<path d="M325.451 188.775H363.741V172.595H325.451V188.775Z" fill="#EBEBEB"/>
<path d="M628.374 392.864L647.36 392.459L656.99 392.3C660.215 392.228 663.439 392.3 666.664 392.213H667.315V392.864L667.387 409.044V409.767H666.606L647.461 409.681C641.084 409.681 634.707 409.507 628.316 409.435H627.925V409.044C627.925 406.297 628.056 403.564 628.113 400.875L628.374 392.864ZM628.374 392.864L628.591 401.034C628.591 403.738 628.75 406.398 628.779 409.044L628.374 408.654C634.765 408.582 641.142 408.423 647.519 408.408L666.664 408.321L665.955 409.044L666.028 392.864L666.664 393.515C663.512 393.515 660.374 393.514 657.207 393.428L647.692 393.269L628.374 392.864Z" fill="#EBEBEB"/>
<path d="M378.013 543.479H416.303V527.298H378.013V543.479Z" fill="#EBEBEB"/>
<path d="M346.794 152.191L365.838 151.83L375.468 151.671C378.693 151.671 381.917 151.671 385.157 151.671H385.793V152.322L385.865 168.502V169.225H385.142L365.997 169.139C359.606 169.139 353.229 168.98 346.852 168.893H346.447V168.502C346.447 165.755 346.577 163.022 346.635 160.332L346.794 152.191ZM346.794 152.191L347.011 160.376C347.011 163.065 347.17 165.726 347.199 168.372L346.809 167.982C353.185 167.982 359.562 167.75 365.954 167.75L385.099 167.649L384.376 168.372L384.448 152.191L385.099 152.842C381.932 152.842 378.794 152.842 375.627 152.755L366.113 152.596L346.794 152.191Z" fill="#EBEBEB"/>
<path d="M155.474 527.79H106.946L79.1829 389.336L123.604 368.918L155.474 527.79Z" fill="#DBDBDB"/>
<path d="M294.377 527.79H155.474L123.604 368.918H262.507L294.377 527.79Z" fill="#EBEBEB"/>
<path d="M130.559 453.509H56.1915V606.105H130.559V453.509Z" fill="#DBDBDB"/>
<path d="M330.064 606.105H309.748L279.468 453.509H330.064V606.105Z" fill="#DBDBDB"/>
<path d="M171.423 453.509H130.559V606.105H171.423V453.509Z" fill="#EBEBEB"/>
<path d="M370.928 453.509H330.064V606.105H370.928V453.509Z" fill="#EBEBEB"/>
<path d="M330.064 527.79H171.423V606.091H330.064V527.79Z" fill="#EBEBEB"/>
<path d="M330.064 493.939H171.423V528.108H330.064V493.939Z" fill="#EBEBEB"/>
<path d="M140.58 453.509L156.009 453.234L171.423 453.032H171.886V453.509L172.074 471.396V489.254C172.074 501.155 172.161 513.055 172.074 524.97C171.987 536.885 172.074 548.771 171.872 560.687C171.669 572.602 171.611 584.488 171.351 596.403C171.1 584.488 170.932 572.582 170.845 560.687C170.686 548.771 170.671 536.871 170.628 524.97C170.585 513.07 170.628 501.155 170.628 489.254V471.396L170.801 453.538L171.264 454.001L155.85 453.813L140.58 453.509Z" fill="#DBDBDB"/>
<path d="M330.064 453.509C330.382 465.453 330.527 477.397 330.657 489.355L330.83 525.202L330.657 561.048L330.44 578.978L330.064 596.894L329.688 578.978L329.471 561.048L329.297 525.202L329.471 489.355C329.601 477.397 329.688 465.453 330.064 453.509Z" fill="#DBDBDB"/>
<path d="M330.064 527.79C316.847 528.108 303.631 528.253 290.4 528.383L250.751 528.556L211.116 528.383L191.291 528.166L171.423 527.79L191.262 527.414L211.087 527.197L250.751 527.024L290.4 527.197C303.66 527.327 316.847 527.472 330.064 527.79Z" fill="#DBDBDB"/>
<path d="M330.064 493.939C316.847 494.257 303.631 494.402 290.4 494.532L250.751 494.705L211.116 494.532L191.291 494.315L171.452 493.939L191.291 493.563L211.116 493.346L250.78 493.173L290.429 493.346C303.66 493.476 316.847 493.621 330.064 493.939Z" fill="#DBDBDB"/>
<path d="M84.4609 606.091L83.4487 618.454L81.1061 647.027H70.3334L67.9909 618.454L66.9787 606.091H84.4609Z" fill="#C7C7C7"/>
<path d="M66.9787 606.091H84.4609L83.4487 618.454H67.9909L66.9787 606.091Z" fill="#A6A6A6"/>
<path d="M159.74 606.091L158.727 618.454L156.385 647.027H145.612L143.27 618.454L142.257 606.091H159.74Z" fill="#C7C7C7"/>
<path d="M142.257 606.091H159.74L158.727 618.454H143.27L142.257 606.091Z" fill="#A6A6A6"/>
<path d="M284.587 606.091L283.589 618.454L281.247 647.027H270.474L268.132 618.454L267.12 606.091H284.587Z" fill="#C7C7C7"/>
<path d="M267.12 606.091H284.587L283.589 618.454H268.132L267.12 606.091Z" fill="#A6A6A6"/>
<path d="M359.895 606.091L358.883 618.454L356.54 647.027H345.767L343.425 618.454L342.413 606.091H359.895Z" fill="#C7C7C7"/>
<path d="M359.895 606.091L358.883 618.454H343.425L342.413 606.091H359.895Z" fill="#A6A6A6"/>
<path d="M333.91 160.448H85.7044V171.105H333.91V160.448Z" fill="#EBEBEB"/>
<path d="M121.797 213.054H112.123L108.248 171.105H121.797V213.054Z" fill="#EBEBEB"/>
<path d="M297.818 213.054H307.492L311.367 171.105H297.818V213.054Z" fill="#EBEBEB"/>
<path d="M108.248 171.105H121.782V185.551H109.578L108.248 171.105Z" fill="#DBDBDB"/>
<path d="M311.367 171.105L310.037 185.551H297.818V171.105H311.367Z" fill="#DBDBDB"/>
<path d="M175.588 96.5205C164.569 111.429 153.088 128.694 150.297 147.492C150.296 147.55 150.316 147.607 150.353 147.652C150.39 147.697 150.442 147.727 150.499 147.738C150.556 147.748 150.615 147.738 150.666 147.709C150.716 147.68 150.755 147.634 150.774 147.579C152.045 142.482 153.673 137.481 155.647 132.613C162.877 130.617 169.992 128.983 173.795 121.797C177.598 114.61 177.178 104.777 176.441 96.7229C176.412 96.2458 175.805 96.2313 175.588 96.5205Z" fill="#EBEBEB"/>
<path d="M155.763 132.425C160.607 121.053 167.134 110.476 175.125 101.046L175.212 101.133C170.156 107.638 165.717 114.599 161.952 121.927C165.596 118.225 169.587 114.899 173.043 110.981C173.043 110.981 173.216 110.981 173.158 111.096C169.731 115.203 165.928 119.671 161.59 122.664C160.395 124.881 159.18 127.099 157.947 129.316C158.25 129.142 158.568 128.998 158.872 128.839V128.925L157.845 129.431C157.267 130.473 156.689 131.528 156.096 132.569C155.98 132.858 155.647 132.656 155.763 132.425Z" fill="#A6A6A6"/>
<path d="M159.436 128.549C162.396 126.889 165.224 125.004 167.895 122.91C167.895 122.91 168.069 122.91 167.996 123.011C165.409 125.252 162.576 127.192 159.552 128.795C159.535 128.803 159.518 128.807 159.5 128.808C159.482 128.809 159.465 128.806 159.448 128.8C159.431 128.794 159.416 128.785 159.402 128.773C159.389 128.761 159.378 128.746 159.371 128.73C159.363 128.714 159.359 128.697 159.358 128.679C159.357 128.661 159.36 128.643 159.366 128.626C159.372 128.61 159.381 128.594 159.393 128.581C159.405 128.568 159.42 128.557 159.436 128.549Z" fill="#A6A6A6"/>
<path d="M149.083 147.275C149.083 147.506 149.487 147.492 149.487 147.275C149.487 141.115 149.487 134.926 149.589 128.737C151.165 125.556 154.548 123.792 156.905 121.233C158.584 119.369 160.039 117.316 161.243 115.116C164.077 109.857 165.809 104.076 166.333 98.1256C166.984 91.5318 164.483 69.7984 161.706 70.5503C160.26 70.9408 155.604 81.7135 154.375 85.2706C152.384 91.1417 150.932 97.182 150.037 103.317C147.796 117.806 147.984 132.685 149.083 147.275Z" fill="#EBEBEB"/>
<path d="M149.039 120.698C149.625 112.864 150.878 105.095 152.784 97.4749C154.548 89.3194 156.616 81.6556 160.81 74.3389C160.81 74.1943 161.084 74.3389 161.012 74.4546C158.219 80.1047 156.057 86.045 154.563 92.1681C154.852 91.7343 155.185 91.3149 155.474 90.8956C155.59 90.7365 155.864 90.8956 155.749 91.0546C155.378 91.714 154.942 92.3341 154.447 92.9055C153.001 98.6895 151.96 104.676 151.078 110.619L151.28 110.388C151.28 110.388 151.396 110.388 151.367 110.388L151.02 110.981C150.572 113.988 150.153 116.996 149.733 119.975C155.242 115.56 159.553 109.832 162.27 103.317C159.977 110.265 155.536 116.305 149.589 120.568C149.487 121.377 149.372 122.173 149.256 122.982C149.256 123.141 148.967 123.098 148.967 122.982C148.967 122.274 148.967 121.536 148.967 120.842C148.965 120.814 148.971 120.786 148.983 120.76C148.996 120.735 149.015 120.713 149.039 120.698Z" fill="#A6A6A6"/>
<path d="M151.57 109.404C155.763 103.474 159.421 97.1834 162.501 90.6064C162.501 90.6064 162.675 90.6064 162.646 90.6064C160.212 97.5255 156.548 103.948 151.83 109.563C151.82 109.58 151.806 109.595 151.79 109.607C151.773 109.619 151.755 109.627 151.736 109.632C151.716 109.637 151.696 109.638 151.676 109.635C151.656 109.631 151.637 109.624 151.62 109.614C151.603 109.604 151.588 109.59 151.577 109.574C151.565 109.557 151.556 109.539 151.552 109.52C151.547 109.5 151.546 109.48 151.549 109.46C151.552 109.44 151.559 109.421 151.57 109.404Z" fill="#A6A6A6"/>
<path d="M157.021 89.0591C158.727 86.0514 160.506 83.1305 162.111 80.065C162.111 79.9782 162.27 80.065 162.241 80.1373C160.928 83.3381 159.265 86.3836 157.281 89.2182C157.256 89.2412 157.224 89.2553 157.19 89.2585C157.155 89.2617 157.121 89.2537 157.092 89.2359C157.063 89.218 157.04 89.1911 157.027 89.1592C157.014 89.1274 157.012 89.0923 157.021 89.0591Z" fill="#A6A6A6"/>
<path d="M146.046 131.485C145.964 135.571 145.48 139.64 144.6 143.631C144.6 144.065 144.73 144.499 144.788 144.961C146.046 140.552 146.779 136.009 146.971 131.427C147.003 131.362 147.02 131.29 147.02 131.217C147.02 131.145 147.003 131.073 146.971 131.008C147.147 124.87 146.691 118.731 145.612 112.687C143.703 101.365 139.539 90.4907 131.644 82.0171C131.578 81.9619 131.5 81.9221 131.417 81.9007C131.333 81.8793 131.246 81.8769 131.161 81.8935C131.077 81.9101 130.997 81.9454 130.928 81.9968C130.859 82.0482 130.802 82.1145 130.762 82.1906C127.581 90.2882 128.694 99.962 131.412 108.045C132.883 112.423 134.993 116.56 137.674 120.322C140.421 124.11 143.877 127.335 146.046 131.485Z" fill="#EBEBEB"/>
<path d="M132.613 85.7912C140.103 97.9376 145.308 112.325 145.945 126.67C145.945 126.93 145.525 127.002 145.482 126.742C145.308 125.455 145.121 124.168 144.904 122.896C141.656 120.014 138.802 116.718 136.416 113.092C136.416 113.092 136.416 112.947 136.531 113.092C139.103 116.237 141.855 119.23 144.773 122.057C144.234 118.895 143.593 115.772 142.85 112.687C142.648 112.47 142.46 112.224 142.257 111.993C142.055 111.761 142.344 111.617 142.474 111.776L142.662 111.978C141.61 107.762 140.302 103.614 138.744 99.5571C136.665 97.4388 134.84 95.0852 133.307 92.544C133.307 92.544 133.307 92.4139 133.408 92.544C134.486 94.1303 135.644 95.6602 136.878 97.1278C137.37 97.7062 137.934 98.2557 138.454 98.8197C136.727 94.419 134.677 90.1515 132.323 86.0515C132.289 86.0131 132.271 85.9626 132.274 85.9111C132.276 85.8596 132.3 85.8113 132.338 85.7767C132.376 85.7422 132.427 85.7244 132.478 85.7271C132.53 85.7298 132.578 85.7529 132.613 85.7912Z" fill="#A6A6A6"/>
<path d="M134.131 100.772C136.546 104.025 139.308 107.134 141.549 110.489C141.549 110.59 141.549 110.691 141.39 110.619C138.529 107.68 136.038 104.402 133.972 100.859C133.9 100.757 134.059 100.671 134.131 100.772Z" fill="#A6A6A6"/>
<path d="M141.896 111.241L141.997 111.357C141.997 111.357 141.997 111.53 141.882 111.458L141.78 111.342C141.708 111.342 141.824 111.183 141.896 111.241Z" fill="#A6A6A6"/>
<path d="M119.743 106.064C120.616 112.848 123.349 119.259 127.638 124.587C129.397 126.682 131.574 128.386 134.03 129.591C136.806 130.964 139.712 132.483 142.576 133.668C143.94 137.141 144.957 140.739 145.612 144.412C145.699 144.094 145.786 143.776 145.887 143.458C144.036 127.638 133.813 114.118 120.712 105.442C120.61 105.378 120.491 105.344 120.371 105.345C120.25 105.346 120.132 105.381 120.03 105.446C119.929 105.511 119.848 105.604 119.797 105.713C119.746 105.823 119.728 105.944 119.743 106.064Z" fill="#EBEBEB"/>
<path d="M124.544 116.201C124.72 116.312 124.889 116.432 125.051 116.563C125.051 116.563 125.051 116.664 125.051 116.649C124.869 116.562 124.695 116.46 124.53 116.345C124.518 116.336 124.509 116.325 124.504 116.311C124.498 116.298 124.496 116.283 124.498 116.269C124.499 116.255 124.504 116.241 124.512 116.229C124.52 116.217 124.531 116.207 124.544 116.201Z" fill="#A6A6A6"/>
<path d="M161.981 160.448H135.013L136.343 142.778L136.849 137.008H159.899L160.419 142.778L161.981 160.448Z" fill="#DBDBDB"/>
<path d="M160.419 142.778H136.343L136.849 137.008H159.899L160.419 142.778Z" fill="#C7C7C7"/>
<path d="M161.735 132.28H135.013V138.194H161.735V132.28Z" fill="#DBDBDB"/>
<path d="M227.485 160.419V96.2458H211.318V160.419H227.485Z" fill="#C7C7C7"/>
<path d="M227.499 99.8608V92.8043H211.333V99.8608H227.499Z" fill="#DBDBDB"/>
<path d="M227.485 111.501V108.884H211.318V111.501H227.485Z" fill="#DBDBDB"/>
<path d="M227.485 151.989V144.933H211.318V151.989H227.485Z" fill="#DBDBDB"/>
<path d="M238.778 160.419V85.5598H227.485V160.419H238.778Z" fill="#DBDBDB"/>
<path d="M236.479 121.377V92.5874H229.697V121.377H236.479Z" fill="#EBEBEB"/>
<path d="M319.202 152.31L265.964 99.6822L258.025 107.714L311.263 160.341L319.202 152.31Z" fill="#C7C7C7"/>
<path d="M305.155 141.542L284.681 121.302L279.913 126.125L300.388 146.365L305.155 141.542Z" fill="#DBDBDB"/>
<path d="M257.966 160.419V103.563H238.792V160.419H257.966Z" fill="#A6A6A6"/>
<path d="M257.952 154.389V149.097H238.778V154.389H257.952Z" fill="#C7C7C7"/>
<path d="M257.966 145.612V143.559H238.792V145.612H257.966Z" fill="#C7C7C7"/>
<path d="M191.205 161.258L212.042 112.103L199.856 106.937L179.019 156.092L191.205 161.258Z" fill="#A6A6A6"/>
<path d="M192.59 155.253L194.552 150.682L182.381 145.458L180.419 150.029L192.59 155.253Z" fill="#C7C7C7"/>
<path d="M205.132 126.059L207.094 121.488L194.923 116.264L192.961 120.835L205.132 126.059Z" fill="#C7C7C7"/>
<path d="M203.029 130.971L203.793 129.19L191.621 123.966L190.857 125.747L203.029 130.971Z" fill="#C7C7C7"/>
<path d="M613.249 472.249H471.844V647.027H613.249V472.249Z" fill="#EBEBEB"/>
<path d="M620.088 464.99H464.99V472.249H620.088V464.99Z" fill="#DBDBDB"/>
<path d="M668.876 464.99H620.103V472.249H668.876V464.99Z" fill="#EBEBEB"/>
<path d="M661.155 472.249H613.249V647.027H661.155V472.249Z" fill="#DBDBDB"/>
<path d="M598.022 553.399H487.071V490.671H598.022V553.399ZM487.432 553.037H597.661V491.033H487.432V553.037Z" fill="#C7C7C7"/>
<path d="M548.67 509.006H527.067V521.428H548.67V509.006Z" fill="#C7C7C7"/>
<path d="M555.264 520.661H533.27V509.758H555.264V520.661ZM533.574 520.3H554.816V510.178H533.574V520.3Z" fill="#C7C7C7"/>
<path d="M598.022 632.177H487.071V569.449H598.022V632.177ZM487.432 631.815H597.661V569.811H487.432V631.815Z" fill="#C7C7C7"/>
<path d="M548.67 587.785H527.067V600.206H548.67V587.785Z" fill="#C7C7C7"/>
<path d="M555.264 599.439H533.27V588.522H555.264V599.439ZM533.574 599.078H554.816V588.956H533.574V599.078Z" fill="#C7C7C7"/>
<path d="M669.585 647.027L592.137 647.374L514.675 647.504L359.75 647.75L204.826 647.504L127.378 647.374L49.9159 647.027L127.378 646.666L204.826 646.55L359.75 646.304L514.675 646.55L592.137 646.666L669.585 647.027Z" fill="#263238"/>
<path d="M633.189 647.027H641.475L583.447 340.388H562.812L633.189 647.027Z" fill="#455A64"/>
<path d="M562.812 340.388L573.223 385.735H592.021L583.461 340.432L583.447 340.388H562.812Z" fill="#37474F"/>
<path d="M548.54 647.027H556.826L554.975 340.388H534.355L548.54 647.027Z" fill="#455A64"/>
<path d="M534.355 340.388L536.451 385.735H555.25L554.975 340.432V340.388H534.355Z" fill="#37474F"/>
<path d="M472.177 647.027H463.906L509.585 340.388H530.219L472.177 647.027Z" fill="#455A64"/>
<path d="M502.832 385.735H521.63L530.219 340.388H509.585L509.57 340.432L502.832 385.735Z" fill="#37474F"/>
<path d="M489.167 521.645H609.576V515.658H489.167V521.645Z" fill="#455A64"/>
<path d="M668.924 226.822C673.153 141.268 627.323 69.4779 566.56 66.4742C505.796 63.4705 453.109 130.391 448.88 215.944C444.651 301.498 490.481 373.288 551.244 376.292C612.008 379.296 664.695 312.376 668.924 226.822Z" fill="#CB2330"/>
<path d="M542.525 64.9398L568.379 66.5449L548.685 376.148L522.816 374.543L542.525 64.9398Z" fill="#CB2330"/>
<g opacity="0.1">
<path opacity="0.1" d="M542.525 64.9398L568.379 66.5449L548.685 376.148L522.816 374.543L542.525 64.9398Z" fill="black"/>
</g>
<path d="M645.121 225.346C649.351 139.792 603.52 68.0017 542.757 64.998C481.994 61.9943 429.307 128.914 425.077 214.468C420.848 300.022 466.678 371.812 527.442 374.816C588.205 377.819 640.892 310.899 645.121 225.346Z" fill="#CB2330"/>
<path d="M620.93 224.15C624.229 157.412 588.476 101.411 541.073 99.0675C493.67 96.7243 452.568 148.926 449.268 215.664C445.969 282.402 481.723 338.403 529.126 340.746C576.529 343.089 617.631 290.887 620.93 224.15Z" fill="white"/>
<path d="M596.971 222.965C599.349 174.844 573.577 134.465 539.407 132.776C505.236 131.087 475.607 168.727 473.228 216.848C470.85 264.969 496.622 305.348 530.792 307.038C564.963 308.727 594.592 271.086 596.971 222.965Z" fill="#CB2330"/>
<path d="M572.765 221.769C574.213 192.472 558.524 167.888 537.722 166.86C516.919 165.832 498.882 188.748 497.434 218.045C495.985 247.342 511.675 271.925 532.477 272.954C553.279 273.982 571.317 251.066 572.765 221.769Z" fill="white"/>
<path d="M551.823 216.9C552.719 229.914 545.952 241.699 536.697 243.391C527.443 245.083 519.244 235.987 518.362 223.045C517.48 210.104 524.233 198.247 533.473 196.54C542.713 194.834 550.926 203.886 551.823 216.9Z" fill="#CB2330"/>
<path opacity="0.4" d="M645.121 225.346C649.351 139.792 603.52 68.0017 542.757 64.998C481.994 61.9943 429.307 128.914 425.077 214.468C420.848 300.022 466.678 371.812 527.442 374.816C588.205 377.819 640.892 310.899 645.121 225.346Z" fill="white"/>
<path d="M431.255 561.048C431.754 548.414 431.58 535.763 430.734 523.148C428.872 497.131 424.901 471.307 418.863 445.932C415.551 431.645 411.474 417.59 407.222 403.564C407.092 403.13 406.427 403.26 406.543 403.694C419.673 453.162 430.46 504.22 429.679 555.64C429.476 570.1 427.813 584.169 426.44 598.47C426.44 598.861 427.033 599.005 427.119 598.615C429.867 586.44 430.749 573.614 431.255 561.048Z" fill="#26DD16"/>
<path d="M406.543 403.752C406.543 403.752 386.631 454.275 391.085 466.147C395.539 478.019 404.735 480.607 404.735 480.607C404.735 480.607 392.56 497.959 401.063 514.299C409.565 530.639 428.537 529.843 429.737 548.323C429.737 548.265 430.792 470.962 406.543 403.752Z" fill="#26DD16"/>
<path d="M427.582 516.352C427.61 516.263 427.61 516.167 427.582 516.077C424.965 481.588 418.489 447.5 408.278 414.452C408.278 414.366 408.09 414.452 408.119 414.452C412.052 429.231 415.537 444.086 418.574 459.018C415.9 456.486 412.633 454.666 409.073 453.726C409.001 453.726 408.972 453.798 409.073 453.827C412.816 455.199 416.177 457.445 418.877 460.377C419.47 463.269 420.034 466.161 420.569 469.169C416.13 464.195 409.955 461.737 403.781 459.394C403.694 459.394 403.651 459.495 403.781 459.524C410.216 462.142 416.607 465.511 420.974 471.092C422.487 479.479 423.818 487.89 424.965 496.325C421.748 492.959 417.624 490.599 413.093 489.529C412.963 489.529 412.876 489.702 413.021 489.746C417.695 491.091 421.875 493.77 425.052 497.453H425.138C425.529 500.417 425.905 503.396 426.252 506.36C423.763 504.259 420.957 502.565 417.937 501.343C417.865 501.343 417.822 501.444 417.937 501.473C421.018 502.808 423.838 504.678 426.266 506.997C426.304 507.01 426.345 507.01 426.382 506.997C426.7 509.889 427.033 512.665 427.322 515.499C422.84 510.082 417.024 505.926 410.447 503.439C410.42 503.43 410.391 503.431 410.365 503.443C410.339 503.456 410.319 503.478 410.31 503.504C410.3 503.531 410.302 503.561 410.314 503.587C410.326 503.612 410.348 503.632 410.375 503.642C416.869 506.511 422.574 510.906 427.004 516.453C427.053 516.515 427.119 516.56 427.193 516.583C427.268 516.606 427.348 516.606 427.423 516.583C427.857 520.921 428.247 525.259 428.566 529.598C428.566 529.598 428.667 529.67 428.667 529.598C428.247 525.274 428.016 520.806 427.582 516.352Z" fill="#263238"/>
<path d="M411.589 448.752C407.986 446.511 403.87 445.227 399.631 445.021C399.612 445.021 399.593 445.029 399.58 445.042C399.566 445.056 399.559 445.074 399.559 445.093C399.559 445.112 399.566 445.131 399.58 445.144C399.593 445.158 399.612 445.166 399.631 445.166C403.724 445.934 407.701 447.232 411.459 449.026C411.604 449.099 411.734 448.853 411.589 448.752Z" fill="#263238"/>
<path d="M414.004 502.239C411.234 500.651 408.186 499.606 405.025 499.159C404.909 499.159 404.909 499.318 405.025 499.333C408.115 499.949 411.103 500.996 413.903 502.442C414.019 502.499 414.12 502.297 414.004 502.239Z" fill="#263238"/>
<path d="M483.571 466.971C475.159 472.791 467.432 479.543 460.537 487.1C453.433 495.104 447.948 504.41 444.385 514.501C436.824 535.542 432.76 557.679 432.354 580.034C432.091 592.411 433.28 604.777 435.897 616.878C435.914 616.97 435.967 617.051 436.044 617.104C436.122 617.157 436.217 617.177 436.309 617.16C436.401 617.143 436.482 617.089 436.535 617.012C436.588 616.935 436.608 616.84 436.591 616.748C433.334 595.393 433.456 573.66 436.952 552.343C440.365 531.434 445.744 508.703 459.018 491.712C466.248 482.472 475.271 475.199 484.193 467.68C484.656 467.275 484.063 466.624 483.571 466.971Z" fill="#26DD16"/>
<path d="M435.246 564.981C440.04 557.231 445.675 550.035 452.049 543.522C461.997 533.559 470.384 526.489 471.685 519.909C472.987 513.33 461.708 508.471 461.708 508.471C461.708 508.471 475.488 510.944 479.248 505.16C483.007 499.376 484.844 465.887 484.844 465.887C484.844 465.887 459.828 483.788 448.13 508.876C436.432 533.964 435.246 564.981 435.246 564.981Z" fill="#26DD16"/>
<path d="M475.922 497.308C474.27 497.07 472.598 497.012 470.933 497.135C470.894 497.146 470.859 497.17 470.835 497.202C470.81 497.235 470.797 497.275 470.797 497.316C470.797 497.356 470.81 497.396 470.835 497.429C470.859 497.461 470.894 497.485 470.933 497.496C472.582 497.496 474.245 497.41 475.893 497.496C475.913 497.492 475.932 497.482 475.946 497.467C475.961 497.452 475.97 497.433 475.973 497.412C475.976 497.392 475.973 497.371 475.964 497.352C475.955 497.334 475.94 497.318 475.922 497.308Z" fill="#263238"/>
<path d="M457.876 529.8C455.232 529.864 452.619 530.388 450.154 531.347C450.154 531.347 450.154 531.477 450.154 531.463C452.714 530.856 455.288 530.61 457.876 530.176C457.926 530.176 457.974 530.156 458.009 530.121C458.044 530.086 458.064 530.038 458.064 529.988C458.064 529.938 458.044 529.89 458.009 529.855C457.974 529.82 457.926 529.8 457.876 529.8Z" fill="#263238"/>
<path d="M452.468 518.579C451.367 518.567 450.267 518.664 449.185 518.868C449.084 518.868 449.084 519.071 449.185 519.071C450.282 519.127 451.382 519.073 452.468 518.911C452.67 518.883 452.67 518.579 452.468 518.579Z" fill="#263238"/>
<path d="M361.804 502.514C369.96 505.277 377.775 508.959 385.099 513.489C392.7 518.32 399.291 524.581 404.504 531.925C415.51 547.2 423.941 564.174 429.462 582.174C432.526 592.134 434.423 602.417 435.116 612.815C435.101 612.882 435.063 612.942 435.009 612.986C434.956 613.029 434.889 613.053 434.819 613.053C434.75 613.053 434.683 613.029 434.629 612.986C434.576 612.942 434.538 612.882 434.523 612.815C432.212 594.776 427.089 577.211 419.34 560.759C411.734 544.636 402.147 527.501 387.528 516.8C379.532 511.016 370.552 507.184 361.601 503.165C360.994 503.006 361.326 502.355 361.804 502.514Z" fill="#26DD16"/>
<path d="M423.548 570.664C417.879 565.502 411.657 560.983 404.996 557.187C394.628 551.403 386.198 547.644 383.638 542.612C381.079 537.579 389.075 531.043 389.075 531.043C389.075 531.043 378.49 536.22 374.109 532.417C369.728 528.614 360.502 501.921 360.502 501.921C360.502 501.921 384.925 510.597 400.18 528.224C415.436 545.851 423.548 570.664 423.548 570.664Z" fill="#26DD16"/>
<path d="M381.961 518.203C380.868 518.128 379.77 518.191 378.693 518.391C378.666 518.391 378.64 518.402 378.621 518.421C378.602 518.44 378.592 518.465 378.592 518.492C378.592 518.519 378.602 518.545 378.621 518.564C378.64 518.583 378.666 518.593 378.693 518.593C379.763 518.478 380.819 518.521 381.903 518.492C381.941 518.5 381.981 518.492 382.014 518.47C382.046 518.449 382.069 518.415 382.077 518.377C382.084 518.338 382.076 518.298 382.055 518.266C382.033 518.233 381.999 518.211 381.961 518.203Z" fill="#263238"/>
<path d="M455.042 646.478H399.92L407.772 588.898L409.782 574.149H445.165L447.175 588.898L455.042 646.478Z" fill="#455A64"/>
<path d="M447.175 588.898H407.772L409.782 574.149H445.165L447.175 588.898Z" fill="#263238"/>
<path d="M450.227 569.015H404.721V581.523H450.227V569.015Z" fill="#455A64"/>
<path d="M451.081 189.387L67.5677 211.903L71.6264 281.033L455.139 258.517L451.081 189.387Z" fill="#CB2330"/>
<path d="M449.966 170.483L456.242 277.401L533.935 219.199L449.966 170.483Z" fill="#CB2330"/>
<g opacity="0.5">
<path opacity="0.5" d="M533.936 219.199L456.242 277.386L455.129 258.516L71.6204 281.03L67.5571 211.897L451.065 189.383L449.952 170.483L533.936 219.199Z" fill="white"/>
<path opacity="0.5" d="M68.2223 284.862L63.7397 208.513L447.233 185.999L445.961 164.005L540.486 218.823L453.017 284.327L451.73 262.348L68.2223 284.862ZM71.3746 215.309L75.0185 277.227L458.527 254.684L459.452 270.46L527.414 219.575L453.957 176.99L454.883 192.781L71.3746 215.309Z" fill="#CB2330"/>
</g>
<path d="M262.926 573.281C262.926 573.281 261.48 630.557 261.48 630.601C261.48 641.185 261.74 650.469 262.304 655.183V655.269C262.323 656.404 262.595 657.521 263.1 658.537C266.266 660.663 350.886 662.875 353.865 661.95C356.844 661.024 354.458 652.464 351.248 649.76C348.038 647.056 316.038 631.902 316.038 631.902L316.963 574.655L262.926 573.281Z" fill="#AC4F42"/>
<path d="M261.379 619.235C261.379 619.235 261.48 630.557 261.466 630.601C261.466 641.185 261.726 650.469 262.29 655.183V655.269C262.434 656.385 262.7 657.481 263.085 658.537C266.252 660.663 350.872 662.875 353.851 661.95C356.829 661.024 354.444 652.464 351.233 649.76C348.023 647.056 316.038 631.902 316.038 631.902V620.334L261.379 619.235Z" fill="white"/>
<path d="M321.214 631.902C315.59 630.977 308.736 631.989 304.528 636.081C304.369 636.24 304.6 636.457 304.773 636.399C310.103 634.554 315.615 633.284 321.214 632.611C321.296 632.594 321.37 632.55 321.422 632.485C321.475 632.42 321.504 632.34 321.504 632.256C321.504 632.173 321.475 632.092 321.422 632.027C321.37 631.963 321.296 631.919 321.214 631.902Z" fill="#263238"/>
<path d="M325.35 634.244C319.711 633.319 312.871 634.331 308.663 638.409C308.504 638.568 308.736 638.799 308.909 638.742C314.239 636.896 319.75 635.626 325.35 634.953C325.432 634.936 325.505 634.892 325.558 634.828C325.611 634.763 325.64 634.682 325.64 634.599C325.64 634.515 325.611 634.435 325.558 634.37C325.505 634.305 325.432 634.261 325.35 634.244Z" fill="#263238"/>
<path d="M329.428 636.601C323.788 635.676 316.949 636.674 312.741 640.766C312.582 640.925 312.741 641.156 312.987 641.098C318.311 639.251 323.818 637.981 329.413 637.31C329.495 637.295 329.57 637.252 329.624 637.189C329.678 637.125 329.709 637.045 329.71 636.962C329.712 636.878 329.685 636.797 329.633 636.731C329.582 636.665 329.509 636.62 329.428 636.601Z" fill="#263238"/>
<path d="M353.909 662.08C350.93 662.991 266.31 660.793 263.143 658.668C261.928 657.887 261.524 645.538 261.48 630.601V630.123L316.081 630.933V631.859C316.081 631.859 348.096 647.186 351.335 649.905C354.574 652.623 356.887 661.169 353.909 662.08Z" fill="#37474F"/>
<path d="M261.466 630.123V630.601C261.538 645.538 261.928 657.887 263.143 658.667C264.589 659.636 282.924 660.62 302.735 661.328C326.463 662.167 352.289 662.586 353.909 662.08C356.887 661.169 354.487 652.594 351.291 649.89C348.096 647.186 316.038 631.902 316.038 631.902V630.991L297.876 630.673L261.466 630.123Z" fill="#CB2330"/>
<path d="M353.026 658.768C338.783 658.046 281.218 656.484 267.076 656.86C266.961 656.86 266.961 656.947 267.076 656.947C281.189 657.973 338.754 659.072 353.026 659C353.33 659 353.33 658.783 353.026 658.768Z" fill="#263238"/>
<path opacity="0.1" d="M297.876 630.673C299.206 639.812 301.245 653.288 302.735 661.328C326.464 662.167 352.289 662.586 353.909 662.08C356.887 661.169 354.487 652.594 351.291 649.89C348.096 647.186 316.038 631.902 316.038 631.902V630.991L297.876 630.673Z" fill="black"/>
<path d="M256.549 630.904L317.787 631.497C317.787 631.497 321.258 531.723 321.518 498.552C321.822 460.565 319.667 346.722 319.667 346.722H273.887C273.887 346.722 261.61 371.839 268.623 400.079L270.561 501.719L256.549 630.904Z" fill="#263238"/>
<path d="M261.09 620.189C262.706 619.972 264.333 619.842 265.963 619.799C267.77 619.669 269.578 619.539 271.385 619.466C274.87 619.307 278.355 619.25 281.84 619.235C288.882 619.235 295.909 619.235 302.937 619.481C306.942 619.611 310.933 619.77 314.924 620.001C315.083 620.001 315.069 620.247 314.924 620.247C307.955 620.508 300.97 620.609 294.001 620.753C287.031 620.898 280.061 621.014 273.106 620.883C271.096 620.883 269.101 620.884 267.105 620.71C265.11 620.536 263.071 620.71 261.119 620.421C261.003 620.406 260.945 620.218 261.09 620.189Z" fill="#37474F"/>
<path d="M313.377 565.155C314.086 548.67 314.621 532.171 315.069 515.687C315.965 482.689 316.202 449.687 315.777 416.679C315.546 398.171 315.054 379.662 314.505 361.153C314.505 360.936 314.809 360.951 314.823 361.153C316.573 394.281 317.252 427.481 317.281 460.652C317.31 493.823 316.674 526.677 314.997 559.602C314.086 578.096 312.958 596.62 311.223 615.056C311.223 615.215 310.962 615.215 310.962 615.056C311.714 598.442 312.654 581.813 313.377 565.155Z" fill="#37474F"/>
<path d="M328.43 582.376C328.43 582.376 328.893 637.744 328.893 637.787C328.893 648.372 329.139 657.655 329.703 662.442C329.694 662.465 329.694 662.491 329.703 662.514C329.704 663.651 329.976 664.771 330.498 665.782C330.492 665.806 330.492 665.83 330.498 665.854C333.65 667.98 418.27 670.192 421.249 669.252C424.228 668.312 421.856 659.781 418.631 657.077C415.407 654.373 383.378 639.045 383.378 639.045L382.395 583.707L328.43 582.376Z" fill="#AC4F42"/>
<path d="M328.792 626.407C328.792 626.407 328.893 637.744 328.893 637.787C328.893 648.372 329.139 657.655 329.702 662.442C329.694 662.465 329.694 662.491 329.702 662.514C329.836 663.631 330.103 664.728 330.498 665.782C330.492 665.806 330.492 665.83 330.498 665.854C333.65 667.98 418.27 670.192 421.249 669.252C424.228 668.312 421.856 659.781 418.632 657.077C415.407 654.373 383.378 639.045 383.378 639.045L383.45 627.477L328.792 626.407Z" fill="white"/>
<path d="M388.641 639.132C383.002 638.207 376.162 639.204 371.955 643.296C371.796 643.456 371.955 643.687 372.2 643.629C377.525 641.782 383.032 640.512 388.627 639.841C388.709 639.826 388.784 639.783 388.838 639.719C388.892 639.656 388.922 639.576 388.924 639.492C388.926 639.409 388.899 639.327 388.847 639.262C388.796 639.196 388.723 639.15 388.641 639.132Z" fill="#263238"/>
<path d="M392.748 641.431C387.109 640.506 380.269 641.503 376.061 645.596C375.902 645.755 376.061 645.986 376.307 645.928C381.631 644.081 387.138 642.811 392.734 642.14C392.816 642.125 392.89 642.082 392.944 642.019C392.998 641.955 393.029 641.875 393.031 641.791C393.032 641.708 393.005 641.626 392.954 641.561C392.902 641.495 392.829 641.449 392.748 641.431Z" fill="#263238"/>
<path d="M396.855 643.788C391.215 642.863 384.361 643.788 380.168 647.953C379.994 648.112 380.168 648.343 380.414 648.285C385.738 646.438 391.245 645.168 396.84 644.497C396.922 644.482 396.997 644.439 397.051 644.376C397.105 644.312 397.136 644.232 397.137 644.148C397.139 644.065 397.112 643.983 397.06 643.918C397.009 643.852 396.936 643.806 396.855 643.788Z" fill="#263238"/>
<path d="M421.321 669.252C418.342 670.178 333.737 667.98 330.57 665.854C329.355 665.059 328.951 652.71 328.893 637.787C328.893 637.628 328.893 637.469 328.893 637.31L383.494 638.12V639.045C383.494 639.045 415.494 654.373 418.733 657.077C421.972 659.781 424.314 668.356 421.321 669.252Z" fill="#CB2330"/>
<path d="M420.453 665.955C406.196 665.232 348.645 663.671 334.489 664.047C334.388 664.047 334.373 664.047 334.489 664.133C348.602 665.16 406.181 666.245 420.453 666.187C420.786 666.187 420.786 665.97 420.453 665.955Z" fill="#263238"/>
<path d="M300.45 405.256C300.45 405.256 325.567 484.439 326.03 498.986C326.406 511.392 324.829 638.698 324.829 638.698L388.453 639.074C388.453 639.074 383.089 509.252 382.091 496.325C380.24 472.148 359.056 405.776 343.917 346.65H275.318C275.318 346.65 275.911 377.623 289.995 400.007C289.995 400.007 296.43 402.957 300.45 405.256Z" fill="#263238"/>
<path d="M328.242 626.971C335.588 626.754 343.208 626.537 350.554 626.725C357.899 626.913 365.158 627.014 372.432 627.448C376.553 627.694 380.674 627.839 384.795 628.244C384.925 628.244 384.925 628.46 384.795 628.46C377.449 628.894 370.075 628.807 362.729 628.735C355.383 628.663 348.139 628.591 340.851 628.258C336.716 628.07 332.609 627.868 328.488 627.578C327.996 627.564 327.765 626.985 328.242 626.971Z" fill="#37474F"/>
<path d="M336.354 359.938C338.624 367.501 366.72 471.28 369.612 486.348C372.504 501.415 376.423 600.35 376.148 616.213C376.148 618.18 376.076 620.146 376.003 622.113C376.003 622.151 375.988 622.188 375.961 622.215C375.934 622.242 375.897 622.257 375.859 622.257C375.82 622.257 375.784 622.242 375.757 622.215C375.729 622.188 375.714 622.151 375.714 622.113C375.28 606.351 371.073 502.528 368.369 487.071C365.838 471.888 337.843 368.73 335.891 360.054C335.891 359.999 335.91 359.946 335.943 359.903C335.977 359.859 336.024 359.829 336.078 359.816C336.131 359.802 336.187 359.807 336.237 359.829C336.287 359.852 336.328 359.89 336.354 359.938Z" fill="#37474F"/>
<path d="M316.182 406.789C313.017 406.766 309.858 406.48 306.74 405.936C303.647 405.263 300.592 404.428 297.587 403.434C294.627 402.764 291.628 402.281 288.607 401.988C285.566 401.545 282.604 400.663 279.815 399.371C279.685 399.371 279.584 399.501 279.714 399.559C282.415 401.016 285.235 402.24 288.144 403.217C291.152 404.171 294.304 404.302 297.37 405.054C300.459 405.972 303.603 406.697 306.783 407.223C309.919 407.606 313.092 407.548 316.211 407.049C316.341 406.977 316.298 406.789 316.182 406.789Z" fill="#37474F"/>
<path d="M320.188 469.777C319.58 467.42 319.017 465.077 318.38 462.735C317.093 458.006 315.792 453.278 314.36 448.593C311.468 439.28 308.837 429.91 305.843 420.656C304.137 415.392 302.604 410.086 300.609 404.923C300.599 404.897 300.58 404.875 300.554 404.862C300.528 404.85 300.498 404.849 300.472 404.858C300.445 404.868 300.423 404.888 300.411 404.914C300.398 404.939 300.397 404.969 300.407 404.996C301.419 409.796 302.836 414.496 304.108 419.224C305.381 423.953 306.74 428.667 308.114 433.381C310.818 442.722 313.478 452.092 316.443 461.375C317.262 463.978 318.12 466.571 319.017 469.155C319.928 471.787 320.651 474.505 321.749 477.064C321.822 477.209 322.01 477.151 321.981 477.064C321.561 474.563 320.81 472.177 320.188 469.777Z" fill="#37474F"/>
<path d="M327.707 269.954C323.109 270.561 315.185 262.247 312.712 256.361C313.159 253.258 313.762 250.179 314.519 247.136C315.112 244.244 315.691 240.875 315.965 237.824L334.633 244.446C333.15 248.164 332.126 252.049 331.582 256.014C331.553 256.433 331.553 256.853 331.582 257.272C331.582 257.272 331.582 257.402 331.582 257.489C331.785 259.875 332.161 269.375 327.707 269.954Z" fill="#AC4F42"/>
<path d="M312.9 254.843C322.704 258.14 329.804 252.616 333.043 249.233C333.838 246.485 334.677 244.446 334.677 244.446L316.009 237.824C315.691 240.875 315.112 244.186 314.563 247.136C313.869 250.375 313.204 253.195 312.9 254.843Z" fill="#263238"/>
<path d="M340.461 215.324C342.789 222.062 339.911 241.901 335.212 246.471C328.416 253.108 316.92 254.135 311.194 245.878C305.656 237.867 309.863 212.085 315.141 207.891C322.906 201.717 337.019 205.332 340.461 215.324Z" fill="#AC4F42"/>
<path d="M320.925 227.947C320.925 227.947 321.026 228.02 321.012 228.078C320.795 229.408 320.781 230.97 321.937 231.577C321.937 231.577 321.937 231.664 321.937 231.577C320.463 231.259 320.506 229.177 320.925 227.947Z" fill="#263238"/>
<path d="M322.299 226.704C324.482 226.805 324.092 231.158 322.082 231.042C320.072 230.926 320.477 226.603 322.299 226.704Z" fill="#263238"/>
<path d="M313.377 227.268C313.377 227.268 313.261 227.268 313.261 227.369C313.261 228.728 312.871 230.261 311.613 230.594V230.68C313.117 230.594 313.522 228.555 313.377 227.268Z" fill="#263238"/>
<path d="M312.336 225.75C310.181 225.402 309.646 229.726 311.627 230.088C313.608 230.449 314.1 226.053 312.336 225.75Z" fill="#263238"/>
<path d="M324.193 224.867C323.615 224.665 323.109 224.376 322.559 224.13C322.01 223.884 321.402 223.667 321.113 223.046C321.028 222.861 321.005 222.653 321.05 222.454C321.094 222.256 321.203 222.077 321.359 221.947C321.711 221.743 322.11 221.637 322.516 221.637C322.922 221.637 323.321 221.743 323.673 221.947C324.452 222.244 325.091 222.821 325.466 223.566C325.543 223.745 325.566 223.943 325.53 224.135C325.495 224.327 325.403 224.504 325.266 224.644C325.13 224.783 324.955 224.879 324.764 224.919C324.573 224.959 324.374 224.941 324.193 224.867Z" fill="#263238"/>
<path d="M310.803 223.421C311.411 223.421 311.974 223.233 312.567 223.132C313.205 223.105 313.817 222.878 314.317 222.482C314.439 222.319 314.505 222.121 314.505 221.918C314.505 221.714 314.439 221.516 314.317 221.354C314.035 221.061 313.679 220.85 313.288 220.74C312.897 220.631 312.483 220.628 312.09 220.732C311.256 220.817 310.483 221.208 309.921 221.831C309.799 221.983 309.726 222.168 309.709 222.362C309.693 222.556 309.735 222.751 309.829 222.922C309.924 223.092 310.067 223.231 310.24 223.32C310.414 223.409 310.61 223.444 310.803 223.421Z" fill="#263238"/>
<path d="M320.217 236.146C319.832 236.649 319.346 237.065 318.791 237.369C318.236 237.673 317.623 237.857 316.992 237.91C316.441 237.991 315.881 237.991 315.329 237.91L315.026 237.838L314.722 237.766C314.655 237.744 314.596 237.702 314.554 237.645C314.513 237.587 314.49 237.518 314.491 237.448C314.484 237.405 314.484 237.361 314.491 237.318V237.144C314.563 236.103 314.794 234.541 314.794 234.541C314.404 234.7 312.394 235.394 312.466 234.859C313.003 230.201 314.006 225.609 315.459 221.151C315.468 221.126 315.485 221.104 315.507 221.088C315.529 221.072 315.555 221.064 315.582 221.064C315.609 221.064 315.636 221.072 315.658 221.088C315.68 221.104 315.696 221.126 315.705 221.151C315.242 225.489 314.028 229.654 313.493 233.977C314.203 233.712 314.948 233.551 315.705 233.5C315.85 233.5 315.199 236.522 315.199 236.985C316.041 237.144 316.906 237.132 317.743 236.951C318.58 236.769 319.372 236.422 320.072 235.929C320.217 235.944 320.303 236.045 320.217 236.146Z" fill="#263238"/>
<path d="M315.994 237.375C316.499 238.163 317.196 238.81 318.019 239.255C318.467 239.474 318.972 239.55 319.465 239.472C320.564 239.284 320.679 238.301 320.549 237.448C320.478 236.988 320.357 236.537 320.188 236.103C318.958 236.957 317.491 237.402 315.994 237.375Z" fill="#263238"/>
<path d="M318.019 239.255C318.467 239.474 318.972 239.55 319.465 239.472C320.564 239.284 320.679 238.301 320.549 237.448C319.986 237.422 319.43 237.586 318.971 237.914C318.512 238.241 318.177 238.714 318.019 239.255Z" fill="#FF98B9"/>
<path d="M335.284 228.468C334.2 224.347 336.976 217.768 335.082 215.83C331.004 211.622 321.576 218.505 315.459 218.129C309.343 217.753 307.81 213.791 309.213 209.063C310.615 204.334 314.924 201.384 321.648 200.849C327.501 200.579 333.262 202.37 337.93 205.91C337.93 205.91 336.6 203.409 337.222 202.7C337.843 201.992 340.576 204.508 341.386 205.592C341.976 206.473 342.403 207.452 342.644 208.484C343.541 208.324 344.457 208.295 345.363 208.398C346.676 208.584 347.883 209.224 348.775 210.205C348.862 210.581 346.679 210.697 345.16 210.668C345.16 210.668 347.72 214.615 347.445 217.811C347.17 221.007 341.126 235.886 339.926 235.973C338.364 236.031 335.732 230.088 335.284 228.468Z" fill="#263238"/>
<path d="M344.611 210.205C344.611 210.205 344.481 210.205 344.524 210.205C345.914 211.489 346.916 213.137 347.416 214.962C347.881 217.16 347.746 219.443 347.025 221.571C345.575 225.614 343.699 229.492 341.429 233.139C341.423 233.151 341.419 233.164 341.417 233.178C341.416 233.192 341.417 233.206 341.421 233.22C341.425 233.233 341.432 233.246 341.441 233.257C341.45 233.268 341.461 233.277 341.473 233.283C341.485 233.29 341.499 233.294 341.513 233.295C341.527 233.297 341.541 233.295 341.554 233.291C341.568 233.287 341.58 233.281 341.591 233.272C341.602 233.263 341.611 233.252 341.617 233.24C344.272 229.427 346.311 225.221 347.662 220.775C348.616 217.074 348.038 212.562 344.611 210.205Z" fill="#263238"/>
<path d="M335.472 214.225C333.685 213.892 331.851 213.892 330.064 214.225C328.404 214.683 326.806 215.344 325.307 216.191C321.872 217.979 318.003 218.761 314.144 218.447V218.52C317.657 219.071 321.255 218.568 324.482 217.074C326.083 216.238 327.735 215.504 329.428 214.876C331.4 214.461 333.426 214.364 335.429 214.586C335.452 214.589 335.476 214.587 335.5 214.581C335.523 214.574 335.544 214.564 335.563 214.549C335.582 214.534 335.597 214.516 335.609 214.495C335.621 214.474 335.628 214.451 335.631 214.427C335.634 214.404 335.632 214.38 335.626 214.357C335.619 214.334 335.608 214.312 335.594 214.293C335.579 214.274 335.56 214.259 335.54 214.247C335.519 214.235 335.496 214.228 335.472 214.225Z" fill="#263238"/>
<path d="M334.402 203.886C332.085 202.519 329.581 201.496 326.97 200.849C324.486 200.138 321.897 199.869 319.32 200.054C314.881 200.459 310.644 202.946 309.314 207.429C308.589 209.7 308.738 212.16 309.733 214.326C309.751 214.349 309.776 214.366 309.804 214.373C309.832 214.38 309.862 214.378 309.888 214.366C309.915 214.354 309.937 214.334 309.951 214.309C309.965 214.283 309.969 214.254 309.965 214.225C309.164 212.239 309.028 210.046 309.578 207.976C310.128 205.906 311.334 204.07 313.016 202.744C316.833 199.852 321.894 199.967 326.348 200.994C329.121 201.676 331.815 202.646 334.388 203.886C334.388 203.886 334.416 203.886 334.402 203.886Z" fill="#263238"/>
<path d="M336.6 231.534C336.6 231.534 340.938 225.084 343.83 226.632C346.722 228.179 343.555 237.462 340.172 238.792C339.751 238.991 339.294 239.102 338.829 239.12C338.363 239.138 337.9 239.061 337.465 238.895C337.03 238.729 336.633 238.477 336.298 238.153C335.963 237.83 335.697 237.443 335.516 237.014L336.6 231.534Z" fill="#AC4F42"/>
<path d="M263.302 362.382C263.49 362.628 351.508 370.595 352.405 369.757C353.634 368.585 348.385 280.51 332.667 262.521C328.806 258.082 315.141 252.761 310.644 255.523C298.975 262.753 291.774 278.962 287.161 288.405C283.734 295.403 279.338 307.448 275.261 319.826C268.537 340.229 262.651 361.5 263.302 362.382Z" fill="#CB2330"/>
<path d="M316.399 281.421C316.636 282.922 317.084 284.382 317.73 285.759C318.352 287.143 319.159 288.437 320.13 289.605C319.9 288.102 319.452 286.64 318.8 285.267C318.178 283.881 317.371 282.587 316.399 281.421ZM331.206 339.101C331.446 340.604 331.899 342.065 332.551 343.439C333.159 344.836 333.967 346.137 334.951 347.3C334.445 344.29 333.153 341.467 331.206 339.116V339.101ZM294.651 336.34C294.89 337.842 295.343 339.303 295.996 340.678C296.6 342.075 297.415 343.372 298.411 344.524C298.173 343.019 297.715 341.558 297.052 340.186C296.438 338.796 295.63 337.501 294.651 336.34ZM269.607 354.53C272.61 354.008 275.426 352.712 277.777 350.771C274.77 351.284 271.952 352.581 269.607 354.53ZM329.225 308.895C330.727 308.657 332.187 308.21 333.563 307.564C334.955 306.949 336.251 306.136 337.41 305.149C335.907 305.389 334.446 305.842 333.072 306.494C331.679 307.102 330.383 307.911 329.225 308.895ZM305.598 264.285C307.099 264.048 308.559 263.6 309.936 262.955C311.332 262.339 312.632 261.526 313.796 260.54C310.793 261.069 307.976 262.359 305.612 264.285H305.598ZM330.744 270.85C331.632 269.621 332.343 268.273 332.855 266.845C333.217 265.857 333.497 264.842 333.693 263.808L333.289 263.259C332.671 264.259 332.157 265.32 331.756 266.425C331.204 267.843 330.863 269.334 330.744 270.85ZM295.649 307C296.538 305.766 297.248 304.413 297.76 302.98C298.306 301.566 298.647 300.081 298.773 298.57C297.887 299.801 297.176 301.149 296.661 302.575C296.113 304.004 295.773 305.504 295.649 307.029V307ZM290.169 364.84L290.993 364.913C291.114 364.346 291.191 363.77 291.224 363.192C290.822 363.743 290.469 364.329 290.169 364.941V364.84ZM344.567 368.238C345.456 367.009 346.166 365.661 346.678 364.233C347.231 362.815 347.572 361.325 347.691 359.808C345.938 362.301 344.862 365.205 344.567 368.238ZM274.306 322.733C274.653 322.897 275 323.041 275.347 323.167C276.767 323.712 278.257 324.053 279.772 324.179C278.541 323.289 277.187 322.583 275.752 322.082L274.653 321.706L274.306 322.733ZM311.411 357.697C313.9 359.456 316.806 360.533 319.841 360.82C318.611 359.936 317.263 359.23 315.835 358.724C314.418 358.168 312.927 357.823 311.411 357.697ZM308.519 322.993C309.751 323.884 311.105 324.595 312.538 325.104C313.928 325.648 315.389 325.989 316.876 326.116C314.387 324.358 311.481 323.281 308.446 322.993H308.519ZM340.027 284.457C340.763 285.023 341.558 285.508 342.398 285.903C342.312 285.527 342.21 285.166 342.124 284.79C341.42 284.626 340.704 284.525 339.983 284.486L340.027 284.457ZM292.656 277.415C293.916 277.878 295.235 278.16 296.575 278.254C295.54 277.488 294.407 276.865 293.205 276.403L292.656 277.415Z" fill="white"/>
<path d="M324.945 276.374C347.517 281.739 382.655 287.045 394.223 279.729C400.137 275.984 413.874 243.188 417.706 224.781C418.704 219.994 379.445 213.285 378.201 218.346C376.524 225.171 372.591 246.688 370.653 250.071C369.54 252.009 344.625 254.901 324.555 258.082C301.014 261.842 306.624 272.022 324.945 276.374Z" fill="#AC4F42"/>
<path d="M384.636 176.831C385.586 176.926 386.497 177.254 387.29 177.786C388.082 178.319 388.73 179.039 389.176 179.882C390.344 178.406 391.991 177.383 393.833 176.99C397.115 176.426 399.429 181.328 399.429 181.328C400.96 180.037 402.844 179.236 404.837 179.029C408.032 178.812 411.083 183.367 411.083 183.367C412.095 183.051 413.166 182.973 414.212 183.141C415.259 183.309 416.252 183.718 417.113 184.336C423.201 189.44 421.292 217.305 416.405 228.425L379.228 222.814C379.228 222.814 374.239 201.818 375.063 195.34C375.729 190.004 378.852 176.282 384.636 176.831Z" fill="#AC4F42"/>
<path d="M388.974 179.969C387.072 185.643 385.873 191.529 385.402 197.495C385.402 197.625 385.59 197.654 385.605 197.495C386.212 191.711 388.41 185.811 389.249 180.013C389.321 179.882 389.075 179.825 388.974 179.969Z" fill="#263238"/>
<path d="M398.951 181.43C398.587 182.743 398.402 184.101 398.402 185.464C398.301 186.91 398.243 188.356 398.185 189.802C398.098 192.694 398.074 195.586 398.113 198.478C398.113 198.608 398.315 198.637 398.33 198.478C398.416 195.586 398.561 192.694 398.792 189.802C398.894 188.356 399.024 186.91 399.154 185.464C399.368 184.121 399.431 182.758 399.342 181.401C399.327 181.358 399.299 181.322 399.262 181.298C399.225 181.273 399.18 181.261 399.136 181.265C399.091 181.268 399.049 181.286 399.015 181.316C398.982 181.346 398.96 181.386 398.951 181.43Z" fill="#263238"/>
<path d="M411.04 183.526C410.735 184.715 410.633 185.947 410.736 187.17C410.736 188.486 410.736 189.802 410.736 191.118C410.664 193.75 410.606 196.381 410.447 198.999C410.447 199.143 410.65 199.158 410.65 198.999C410.823 196.338 411.026 193.663 411.17 191.002C411.242 189.686 411.315 188.37 411.373 187.069C411.535 185.874 411.486 184.661 411.228 183.483C411.228 183.483 411.069 183.468 411.04 183.526Z" fill="#263238"/>
<path d="M356.511 286.872L355.065 251.517C355.065 251.517 330.397 253.108 316.414 258.241C302.431 263.374 307.188 270.995 320.752 276.287C334.315 281.58 356.511 286.872 356.511 286.872Z" fill="#CB2330"/>
<path d="M350.713 253.354C349.295 252.802 347.805 252.461 346.288 252.341C347.521 253.233 348.874 253.944 350.308 254.453C351.721 255.003 353.207 255.344 354.718 255.465C353.494 254.568 352.145 253.857 350.713 253.354ZM331.756 266.368C331.211 267.787 330.87 269.277 330.744 270.792C331.632 269.558 332.343 268.205 332.855 266.773C333.394 265.381 333.735 263.921 333.867 262.435C332.981 263.665 332.271 265.013 331.756 266.44V266.368ZM355.933 273.164C354.695 273.424 353.492 273.827 352.347 274.364C350.951 274.974 349.65 275.782 348.486 276.764C349.987 276.527 351.448 276.079 352.824 275.434C353.934 274.938 354.986 274.322 355.962 273.598L355.933 273.164ZM310.109 261.596C309.465 262.132 308.921 262.778 308.504 263.505C308.981 263.331 309.459 263.143 309.95 262.941C311.346 262.325 312.647 261.512 313.811 260.526C312.534 260.72 311.289 261.085 310.109 261.61V261.596Z" fill="white"/>
<path d="M348.717 253.599C348.553 263.629 349.07 273.659 350.265 283.618H350.496C350.568 275.405 349.469 259.036 349.05 253.599C349.064 253.498 348.717 253.498 348.717 253.599Z" fill="#263238"/>
<path d="M356.323 282.433C356.555 283.879 356.685 285.325 356.873 286.857V287.32L356.367 287.219C353.272 286.568 350.178 285.946 347.112 285.195C344.047 284.443 340.981 283.662 337.945 282.794C334.908 281.927 331.871 281.03 328.893 279.989C325.914 278.948 322.921 277.907 320.014 276.62L329.182 279.02C332.233 279.815 335.284 280.611 338.321 281.435L347.445 283.922C350.481 284.732 353.504 285.672 356.54 286.525L356.106 286.886C356.222 285.397 356.222 283.922 356.323 282.433Z" fill="#263238"/>
<path d="M328.054 279.367C326.928 279.641 325.764 279.715 324.613 279.584C323.459 279.48 322.338 279.145 321.316 278.601C321.894 278.601 322.458 278.673 323.022 278.717L324.685 278.861C325.816 278.968 326.941 279.137 328.054 279.367Z" fill="#263238"/>
<path d="M113.048 630.615C108.074 627.926 101.336 626.668 96.0867 629.169C95.8843 629.256 96.0867 629.545 96.2024 629.545C101.777 629.525 107.338 630.106 112.788 631.28C112.872 631.299 112.96 631.287 113.036 631.246C113.112 631.206 113.171 631.139 113.203 631.059C113.234 630.979 113.236 630.89 113.207 630.809C113.179 630.727 113.123 630.659 113.048 630.615Z" fill="#263238"/>
<path d="M116.128 634.143C111.154 631.454 104.416 630.196 99.1668 632.697C98.9643 632.784 99.1668 633.073 99.2824 633.073C104.866 633.046 110.437 633.623 115.897 634.794C115.974 634.797 116.05 634.776 116.114 634.732C116.178 634.689 116.227 634.627 116.252 634.554C116.278 634.481 116.28 634.402 116.258 634.328C116.236 634.254 116.19 634.19 116.128 634.143Z" fill="#263238"/>
<path d="M119.208 637.686C114.234 634.997 107.496 633.739 102.247 636.24C102.044 636.327 102.247 636.616 102.377 636.616C107.958 636.604 113.523 637.195 118.977 638.38C119.069 638.411 119.169 638.404 119.256 638.36C119.343 638.317 119.409 638.241 119.44 638.149C119.47 638.057 119.463 637.956 119.42 637.869C119.376 637.783 119.3 637.717 119.208 637.686Z" fill="#263238"/>
<path d="M122.303 641.2C117.314 638.51 110.59 637.252 105.327 639.754C105.124 639.841 105.327 640.13 105.457 640.13C111.038 640.117 116.603 640.709 122.057 641.894C122.149 641.927 122.25 641.921 122.338 641.879C122.426 641.837 122.494 641.762 122.527 641.67C122.559 641.578 122.554 641.476 122.512 641.388C122.47 641.3 122.395 641.232 122.303 641.2Z" fill="#263238"/>
<path d="M126.756 621.505C125.6 617.977 121.305 618.02 118.5 619.163C113.722 621.226 109.568 624.507 106.455 628.677C106.437 628.691 106.422 628.708 106.412 628.728C106.402 628.748 106.397 628.771 106.397 628.793C106.397 628.815 106.402 628.838 106.412 628.858C106.422 628.878 106.437 628.895 106.455 628.909C106.339 629.314 106.556 629.863 107.062 629.834C111.964 629.617 117.184 629.993 121.898 628.287C124.689 627.289 127.855 624.845 126.756 621.505ZM114.48 627.998C112.079 628.157 109.694 628.2 107.25 628.46C109.607 626.61 111.863 624.672 114.48 623.052C115.687 622.257 116.948 621.547 118.254 620.927C120.293 620.001 127.508 618.946 124.703 624.455C123.141 627.564 117.343 627.795 114.48 627.998Z" fill="#263238"/>
<path d="M93.4406 622.98C97.2146 626.234 102.261 627.752 106.758 629.69C106.861 629.724 106.971 629.734 107.078 629.717C107.185 629.701 107.287 629.659 107.374 629.596C107.462 629.532 107.533 629.448 107.582 629.351C107.631 629.254 107.656 629.147 107.655 629.039C107.678 629.04 107.701 629.035 107.722 629.026C107.743 629.016 107.762 629.001 107.776 628.983C107.79 628.964 107.8 628.943 107.804 628.92C107.808 628.897 107.806 628.873 107.799 628.851C106.372 623.849 103.654 619.311 99.9186 615.692C97.7062 613.61 93.7153 612.049 91.3728 614.94C89.0302 617.832 91.2426 621.071 93.4406 622.98ZM92.2693 618.44C91.6041 612.294 98.0533 615.837 99.4993 617.428C100.491 618.479 101.418 619.59 102.276 620.753C104.069 623.168 105.5 625.785 107.047 628.345C104.893 627.26 102.709 626.364 100.483 625.366C97.9376 624.166 92.6308 621.78 92.2693 618.44Z" fill="#263238"/>
<path d="M57.2616 623.038C56.9435 624.961 56.6254 626.841 56.3362 628.663C54.4275 640.361 53.2996 649.384 54.1817 650.208C56.8712 652.768 137.601 669.006 140.624 668.602C143.646 668.197 142.764 659.607 140.132 656.484C138.527 654.59 127.494 646.434 119.093 640.347C113.685 636.442 109.375 633.362 109.375 633.362L125.571 581.017L71.2878 570.302C71.2878 570.302 57.84 619.944 57.2616 623.038Z" fill="#F9CCC9"/>
<path d="M140.624 668.602C137.601 668.963 56.8712 652.768 54.1817 650.208C53.2996 649.37 54.4275 640.361 56.3362 628.663C56.6254 626.856 56.929 624.961 57.2616 623.038C57.4496 621.954 59.2282 615.186 61.4406 606.843C69.3068 608.405 100.873 614.752 114.263 617.442L109.347 633.348C109.347 633.348 113.685 636.414 119.064 640.332C127.465 646.42 138.498 654.561 140.089 656.47C142.749 659.607 143.631 668.211 140.624 668.602Z" fill="#EBEBEB"/>
<path d="M141.289 669.122C139.293 669.353 104.286 662.398 78.9082 656.701C73.0375 655.385 67.6873 654.127 63.3782 653.057C57.4351 651.611 53.4731 650.425 52.9092 649.89C51.9259 648.936 58.1148 615.837 59.1993 612.005L112.875 623.11L109.723 633.03C109.723 633.03 138.151 653.505 140.855 656.715C143.559 659.925 144.369 668.732 141.289 669.122Z" fill="#CB2330"/>
<path d="M140.031 665.42C126.25 662.268 70.4203 650.7 56.5676 648.589C56.4519 648.589 56.4375 648.589 56.5676 648.676C70.1311 652.146 126.062 663.222 139.973 665.652C140.262 665.695 140.262 665.493 140.031 665.42Z" fill="#263238"/>
<path d="M125.498 610.414C126.077 610.14 141.809 542.611 148.981 515.08C159.335 475.344 169.37 410.577 172.378 397.086C178.587 381.553 182.804 365.296 184.929 348.703H119.657C119.657 348.703 102.55 381.426 111.342 404.562C112.152 406.687 99.9476 488.43 93.6286 501.719C88.1772 513.171 63.2626 597.039 63.2626 597.039L125.498 610.414Z" fill="#37474F"/>
<path d="M125.151 596.576C123.561 595.998 121.854 595.709 120.206 595.275C118.558 594.841 116.721 594.393 114.972 594.002C111.472 593.207 107.973 592.455 104.474 591.689C97.4605 590.171 90.4329 588.797 83.4053 587.351C81.4773 586.956 79.5493 586.58 77.6213 586.223C75.7229 585.76 73.7874 585.465 71.8373 585.341C71.8192 585.351 71.8042 585.366 71.7937 585.383C71.7832 585.401 71.7776 585.421 71.7776 585.442C71.7776 585.463 71.7832 585.483 71.7937 585.501C71.8042 585.519 71.8192 585.533 71.8373 585.543C73.4295 586.139 75.0694 586.599 76.7393 586.917C78.4745 587.351 80.2241 587.756 81.9738 588.146C85.4153 588.927 88.8568 589.722 92.3127 590.474C99.2535 591.92 106.209 593.525 113.178 594.942C115.159 595.333 117.126 595.738 119.122 596.07C121.117 596.403 123.084 596.923 125.079 597.068C125.253 597.053 125.441 596.677 125.151 596.576Z" fill="#263238"/>
<path d="M155.3 394.093C154.042 400.889 153.001 407.729 151.873 414.539C151.309 418.024 150.543 421.466 149.965 424.936C149.386 428.406 148.851 431.761 148.302 435.174C146.085 448.911 143.892 462.643 141.723 476.37C140.643 483.195 139.549 490.011 138.44 496.817C137.421 503.532 136.046 510.188 134.319 516.757C132.526 523.322 130.415 529.771 128.405 536.292L122.259 556.276C118.196 569.522 118.774 571.777 115.131 585.196C114.682 586.859 114.22 588.522 113.685 590.185C113.683 590.222 113.694 590.258 113.717 590.287C113.739 590.317 113.771 590.337 113.807 590.346C113.843 590.354 113.88 590.35 113.913 590.334C113.946 590.318 113.973 590.291 113.988 590.257C118.485 577.127 117.864 574.872 122.042 561.626C126.221 548.381 130.502 535.251 134.478 522.006C136.405 515.558 137.946 509.001 139.091 502.369C140.248 495.544 141.26 488.705 142.359 481.865C144.518 468.138 146.711 454.406 148.938 440.669C150.008 433.93 151.194 427.177 152.032 420.425C152.9 413.397 154.115 406.413 155.156 399.414C155.416 397.693 155.662 395.987 155.893 394.266C155.893 393.876 155.373 393.717 155.3 394.093Z" fill="#263238"/>
<path d="M211.434 635.112C205.867 634.042 199.071 634.852 194.791 638.785C194.632 638.944 194.791 639.175 195.036 639.118C200.358 637.434 205.846 636.328 211.405 635.821C211.488 635.808 211.563 635.767 211.619 635.704C211.675 635.642 211.707 635.562 211.71 635.478C211.714 635.395 211.688 635.313 211.638 635.246C211.587 635.179 211.515 635.132 211.434 635.112Z" fill="#263238"/>
<path d="M215.454 637.556C209.901 636.486 203.091 637.296 198.825 641.229C198.651 641.388 198.825 641.619 199.056 641.561C204.388 639.877 209.886 638.772 215.454 638.264C215.536 638.248 215.609 638.203 215.662 638.139C215.715 638.074 215.744 637.994 215.744 637.91C215.744 637.827 215.715 637.746 215.662 637.681C215.609 637.617 215.536 637.572 215.454 637.556Z" fill="#263238"/>
<path d="M219.416 640C213.863 638.93 207.067 639.739 202.787 643.672C202.628 643.832 202.787 644.063 203.033 644.005C208.355 642.321 213.843 641.216 219.402 640.708C219.484 640.693 219.558 640.651 219.612 640.587C219.666 640.524 219.697 640.443 219.699 640.36C219.7 640.276 219.673 640.195 219.622 640.129C219.57 640.064 219.498 640.018 219.416 640Z" fill="#263238"/>
<path d="M223.421 642.443C217.869 641.373 211.058 642.183 206.792 646.116C206.619 646.275 206.792 646.507 207.024 646.449C212.346 644.766 217.834 643.661 223.393 643.152C223.475 643.139 223.551 643.098 223.606 643.035C223.662 642.973 223.694 642.893 223.698 642.81C223.701 642.726 223.676 642.644 223.625 642.577C223.575 642.51 223.503 642.463 223.421 642.443Z" fill="#263238"/>
<path d="M221.773 622.329C219.604 619.307 215.526 620.623 213.198 622.561C209.242 625.952 206.25 630.326 204.522 635.242C204.513 635.263 204.509 635.286 204.51 635.308C204.511 635.331 204.518 635.353 204.529 635.373C204.54 635.392 204.556 635.409 204.575 635.422C204.594 635.434 204.615 635.442 204.638 635.445C204.638 635.864 205.028 636.327 205.506 636.153C210.118 634.476 215.237 633.261 219.185 630.225C221.542 628.46 223.826 625.178 221.773 622.329ZM212.013 632.191C209.771 633.059 207.501 633.825 205.289 634.779C206.98 632.321 208.557 629.791 210.494 627.549C211.407 626.425 212.397 625.367 213.459 624.383C215.121 622.937 221.701 619.727 220.689 625.829C220.11 629.126 214.688 631.136 212.013 632.191Z" fill="#263238"/>
<path d="M190.438 633.709C195.008 635.69 200.271 635.618 205.144 636.124C205.252 636.126 205.359 636.103 205.457 636.056C205.554 636.009 205.639 635.94 205.705 635.854C205.771 635.768 205.817 635.668 205.837 635.562C205.858 635.456 205.853 635.346 205.824 635.242C205.839 635.227 205.852 635.209 205.861 635.19C205.869 635.17 205.874 635.148 205.874 635.127C205.874 635.105 205.869 635.083 205.861 635.064C205.852 635.044 205.839 635.026 205.824 635.011C202.959 630.664 199.006 627.145 194.357 624.802C191.624 623.501 187.344 623.197 185.985 626.653C184.625 630.109 187.763 632.553 190.438 633.709ZM187.98 629.733C185.507 624.065 192.651 625.54 194.632 626.581C195.899 627.276 197.117 628.059 198.276 628.923C200.719 630.687 202.859 632.755 205.101 634.707C202.729 634.317 200.343 634.129 197.943 633.825C195.065 633.493 189.31 632.856 187.98 629.733Z" fill="#263238"/>
<path d="M155.734 628.706C155.734 632.003 157.18 664.986 158.178 665.623C161.316 667.618 243.665 667.85 246.543 666.91C249.421 665.97 246.905 657.67 243.651 655.125C241.713 653.563 229.321 647.707 219.893 643.369C213.835 640.578 209.005 638.409 209.005 638.409L209.265 628.735L210.017 584.733H155.647C155.647 584.733 155.373 607.32 155.734 628.706Z" fill="#F9CCC9"/>
<path d="M246.557 666.91C243.665 667.85 161.316 667.604 158.192 665.623C157.166 664.972 155.778 632.003 155.734 628.721C155.734 626.537 155.734 624.383 155.647 622.156H209.424L209.309 628.721L209.034 638.366L219.922 643.34C229.336 647.678 241.728 653.563 243.68 655.11C246.905 657.67 249.421 665.955 246.557 666.91Z" fill="#EBEBEB"/>
<path d="M248.495 667.575C246.586 668.211 210.899 668.211 184.871 667.575C178.856 667.43 173.303 667.242 168.965 667.04C162.849 666.736 158.742 666.389 158.077 665.955C156.92 665.218 155.286 631.54 155.604 627.578L210.003 627.853L210.205 638.221C210.205 638.221 242.379 652.869 245.661 655.486C248.943 658.103 251.445 666.606 248.495 667.575Z" fill="#CB2330"/>
<path d="M246.529 664.206C232.401 663.772 175.385 663.352 161.388 663.989C161.287 663.989 161.272 664.075 161.388 664.075C175.385 664.813 232.401 664.77 246.529 664.437C246.832 664.423 246.832 664.206 246.529 664.206Z" fill="#263238"/>
<path d="M146.046 407.092C146.046 407.092 155.344 498.335 155.488 500.475C155.488 501.328 151.497 612.829 151.497 612.829H212.996C212.996 612.829 210.798 508.341 209.858 495.457C209.757 494.011 205.78 401.207 187.879 348.703H119.57C119.57 348.703 120.163 379.546 134.189 401.858C138.235 403.383 142.193 405.131 146.046 407.092Z" fill="#37474F"/>
<path d="M209.106 601.305C207.414 601.059 205.694 601.117 203.987 601.03C202.281 600.943 200.416 600.856 198.623 600.813C195.036 600.741 191.393 600.712 187.864 600.668C180.634 600.582 173.52 600.668 166.348 600.668H160.477C158.501 600.596 156.522 600.697 154.563 600.972C154.462 600.972 154.476 601.16 154.563 601.189C156.237 601.452 157.93 601.577 159.624 601.565C161.417 601.637 163.21 601.681 165.003 601.71C168.531 601.782 172.06 601.869 175.602 601.912C182.702 601.999 189.816 602.129 196.931 602.1C198.955 602.1 200.965 602.1 202.99 602.028C205.014 601.955 207.038 602.028 209.034 601.796C209.294 601.753 209.41 601.348 209.106 601.305Z" fill="#263238"/>
<path d="M195.21 505.579C193.59 472.712 190.135 439.989 185.782 407.396C183.411 389.538 180.62 371.709 175.79 354.328C175.79 354.328 175.66 354.328 175.675 354.328C179.441 370.229 182.279 386.336 184.177 402.566C186.201 418.617 188.139 434.697 189.773 450.805C193.084 483.485 194.559 516.28 194.762 549.133C194.877 567.613 194.386 576.318 193.865 594.783C193.865 594.957 194.125 594.942 194.14 594.783C196.815 561.93 196.772 538.49 195.21 505.579Z" fill="#263238"/>
<path d="M191.87 361.413C191.87 361.386 191.859 361.361 191.84 361.342C191.821 361.323 191.795 361.312 191.768 361.312C191.742 361.312 191.716 361.323 191.697 361.342C191.678 361.361 191.667 361.386 191.667 361.413C191.928 365.303 192.593 369.54 190.858 373.213C189.339 376.437 186.433 378.259 183.758 380.443C183.758 380.515 183.758 380.645 183.873 380.616C187.416 379.546 190.959 377.58 192.361 373.936C193.923 369.901 193.07 365.462 191.87 361.413Z" fill="#263238"/>
<path d="M162.256 405.082C159.404 404.998 156.549 405.095 153.71 405.372C150.929 405.519 148.141 405.47 145.366 405.227C143.975 405.083 142.593 404.851 141.231 404.533C139.785 404.2 138.483 403.68 137.081 403.289C135.807 403.012 134.484 403.061 133.234 403.434C131.788 403.767 130.342 403.998 128.766 404.2C125.343 404.699 121.872 404.786 118.427 404.461C118.297 404.461 118.239 404.649 118.427 404.678C121.324 405.284 124.275 405.589 127.234 405.589C128.75 405.555 130.262 405.42 131.76 405.184C133.135 404.781 134.564 404.596 135.996 404.634C137.401 405.009 138.782 405.468 140.132 406.008C141.507 406.393 142.909 406.678 144.325 406.861C147.163 407.237 150.031 407.324 152.886 407.121C156.106 407.049 159.304 406.563 162.4 405.675C162.479 405.656 162.547 405.606 162.589 405.537C162.631 405.468 162.644 405.385 162.624 405.307C162.605 405.228 162.556 405.16 162.486 405.118C162.417 405.076 162.334 405.063 162.256 405.082Z" fill="#263238"/>
<path d="M153.999 479.739C153.459 473.83 152.881 467.921 152.264 462.011C151.02 450.183 149.849 438.355 148.634 426.527C147.94 419.817 147.449 413.05 146.35 406.398C146.35 406.225 146.046 406.225 146.06 406.398C146.147 412.327 146.783 418.255 147.29 424.17C147.796 430.084 148.316 435.998 148.866 441.912C149.979 453.74 151.035 465.583 152.423 477.397C152.818 480.742 153.233 484.116 153.666 487.519C154.115 490.874 154.708 494.214 155.112 497.569C155.112 497.599 155.125 497.629 155.146 497.65C155.168 497.672 155.197 497.684 155.228 497.684C155.259 497.684 155.288 497.672 155.31 497.65C155.332 497.629 155.344 497.599 155.344 497.569C154.823 491.64 154.549 485.653 153.999 479.739Z" fill="#263238"/>
<path d="M154.476 274.538C154.939 275.81 162.241 283.532 168.184 282.505C170.122 282.172 168.763 271.515 168.763 271.515L168.835 270.706L169.948 259.384L155.966 252.674L153.956 251.806C153.956 251.806 153.854 254.93 153.782 258.805C153.782 258.993 153.782 259.167 153.782 259.369C153.782 259.571 153.782 259.788 153.782 259.991V261.755C153.782 262.218 153.782 262.651 153.782 263.114C153.782 263.577 153.782 264.054 153.782 264.56C153.778 267.898 154.01 271.232 154.476 274.538Z" fill="#F9CCC9"/>
<path d="M153.782 258.834C155.275 261.793 157.395 264.391 159.995 266.446C162.595 268.501 165.612 269.965 168.835 270.735L169.948 259.412L155.966 252.703L153.956 251.835C153.956 251.835 153.854 254.93 153.782 258.834Z" fill="#263238"/>
<path d="M187.329 330.874L187.879 348.703H119.656C119.656 348.703 127.696 295.852 145.685 276.403C154.679 266.628 164.237 268.464 170.975 275.289C172.667 277.025 191.306 301.317 193.446 311.584C195.311 320.549 187.329 330.874 187.329 330.874Z" fill="#CB2330"/>
<path opacity="0.1" d="M187.806 346.577H120.018C120.105 346.028 120.22 345.392 120.351 344.669H187.763L187.806 346.577ZM187.59 339.347H121.348C121.218 340.012 121.088 340.649 120.972 341.256H187.647L187.59 339.347ZM187.431 334.012H122.462C122.317 334.662 122.187 335.298 122.057 335.92H187.488L187.431 334.012ZM123.676 328.661C123.532 329.312 123.373 329.948 123.228 330.57H187.561C187.835 330.209 188.298 329.543 188.848 328.661H123.676ZM124.992 323.326L124.515 325.234H190.771C191.089 324.627 191.378 323.991 191.667 323.326H124.992ZM126.438 317.99L125.918 319.899H192.896C193.07 319.277 193.229 318.641 193.359 317.99H126.438ZM193.648 312.654H128C127.797 313.29 127.61 313.927 127.422 314.563H193.764C193.757 313.92 193.714 313.278 193.634 312.64L193.648 312.654ZM192.058 307.318H129.706C129.489 307.955 129.287 308.591 129.07 309.227H192.781C192.578 308.605 192.318 307.998 192.043 307.304L192.058 307.318ZM189.397 301.968H131.586C131.34 302.604 131.109 303.241 130.877 303.891H190.395C190.091 303.241 189.744 302.604 189.426 301.954L189.397 301.968ZM186.259 296.632H133.712C133.442 297.269 133.181 297.905 132.931 298.541H187.416C187.04 297.895 186.65 297.254 186.245 296.618L186.259 296.632ZM182.818 291.297H136.098C135.794 291.933 135.49 292.569 135.201 293.205H184.061L182.818 291.297ZM179.145 285.961H138.888C138.527 286.583 138.165 287.219 137.833 287.87H180.446C180.013 287.205 179.564 286.568 179.13 285.947L179.145 285.961ZM175.255 280.625H142.243C141.795 281.247 141.375 281.883 140.956 282.534H176.643L175.255 280.625ZM171.047 275.29H146.682C146.354 275.617 146.022 275.964 145.685 276.331C145.347 276.697 145.087 276.986 144.904 277.198H172.609C171.857 276.186 171.308 275.564 171.033 275.275L171.047 275.29ZM162.198 269.939H155.662C154.044 270.334 152.498 270.978 151.078 271.848H166.753C165.334 270.983 163.794 270.335 162.183 269.925L162.198 269.939Z" fill="#030402"/>
<path d="M165.032 290.198C177.251 294.883 222.785 305.308 232.372 297.341C247.425 284.833 259.196 262.42 265.269 244.041C267.365 237.65 227.239 232.141 225.041 239.356C222.149 248.755 214.919 265.862 212.996 268.797C211.073 271.732 183.844 272.224 165.48 273.945C150.153 275.376 149.531 284.269 165.032 290.198Z" fill="#F9CCC9"/>
<path d="M229.813 196.656C230.91 196.286 232.094 196.261 233.205 196.585C234.317 196.908 235.303 197.563 236.031 198.464C237.222 196.905 238.92 195.811 240.831 195.369C244.244 194.762 246.702 199.837 246.702 199.837C248.272 198.474 250.218 197.617 252.284 197.379C255.609 197.119 258.82 201.891 258.82 201.891C260.955 201.435 263.183 201.763 265.095 202.816C270.084 205.853 270.2 214.76 270.344 220.428C270.489 226.097 265.558 242.292 264.936 245.473L230.059 248.842C230.059 248.842 219.358 233.804 221.527 214.745C222.178 209.077 225.677 198.203 229.813 196.656Z" fill="#F9CCC9"/>
<path d="M235.452 198.709C233.312 204.493 233.008 210.653 232.358 216.755C232.366 216.778 232.381 216.797 232.4 216.81C232.42 216.824 232.443 216.831 232.466 216.831C232.49 216.831 232.513 216.824 232.532 216.81C232.552 216.797 232.566 216.778 232.575 216.755C233.153 210.668 234.917 204.783 235.741 198.738C235.77 198.608 235.51 198.55 235.452 198.709Z" fill="#263238"/>
<path d="M246.225 199.938C245.863 201.306 245.688 202.717 245.704 204.132C245.618 205.578 245.56 207.125 245.516 208.614C245.516 211.608 245.516 214.615 245.516 217.609C245.516 217.739 245.719 217.768 245.719 217.609C245.796 214.62 245.926 211.632 246.109 208.643C246.206 207.149 246.321 205.66 246.456 204.175C246.663 202.778 246.711 201.361 246.601 199.953C246.583 199.919 246.557 199.891 246.525 199.87C246.492 199.85 246.455 199.838 246.417 199.837C246.379 199.835 246.341 199.844 246.307 199.862C246.274 199.88 246.245 199.906 246.225 199.938Z" fill="#263238"/>
<path d="M258.834 201.977C258.533 203.221 258.44 204.506 258.559 205.78C258.559 207.154 258.559 208.513 258.559 209.887C258.559 212.62 258.487 215.338 258.357 218.071C258.357 218.216 258.559 218.23 258.559 218.071C258.718 215.295 258.906 212.519 259.022 209.757C259.022 208.311 259.138 207.024 259.181 205.665C259.341 204.425 259.283 203.167 259.008 201.948C259.004 201.925 258.991 201.905 258.972 201.891C258.953 201.878 258.929 201.872 258.906 201.876C258.883 201.88 258.863 201.893 258.849 201.912C258.836 201.931 258.83 201.954 258.834 201.977Z" fill="#263238"/>
<path d="M216.611 258.834L249.074 285.252C249.074 285.252 236.725 299.206 230.015 300.638C223.306 302.069 186.997 299.987 166.391 291.658C145.786 283.329 151.049 275.246 166.102 273.482C181.155 271.718 209.048 268.406 209.959 267.857C210.87 267.308 216.611 258.834 216.611 258.834Z" fill="#CB2330"/>
<path opacity="0.1" d="M169.413 292.801C168.392 292.444 167.394 292.068 166.42 291.673C165.365 291.239 164.367 290.82 163.441 290.4L152.987 281.854C152.766 281.066 152.812 280.228 153.117 279.468L169.413 292.801ZM157.079 275.839C156.466 276.127 155.88 276.471 155.329 276.866L177.959 295.36C179.405 295.721 180.851 296.069 182.21 296.372L157.079 275.839ZM163.21 273.945C162.371 274.104 161.591 274.277 160.839 274.48L189.426 297.876C190.698 298.107 191.971 298.324 193.243 298.527L163.21 273.945ZM170.44 272.99L167.794 273.294L199.707 299.322C200.893 299.481 202.079 299.626 203.235 299.741L170.44 272.99ZM177.8 272.123L175.183 272.441L209.41 300.406L212.721 300.667L177.8 272.123ZM185.16 271.241L182.543 271.559L218.534 300.97L221.643 301.057L185.16 271.241ZM192.492 270.33L189.874 270.662L226.964 301.028C227.866 300.995 228.764 300.904 229.654 300.754L192.492 270.33ZM199.722 269.404L197.119 269.751L233.269 299.264C233.833 298.946 234.397 298.585 234.975 298.194L199.722 269.404ZM206.952 268.421L204.378 268.782L237.751 296.068C238.257 295.678 238.764 295.259 239.197 294.839L206.952 268.421ZM211.825 265.529C211.391 266.122 211 266.642 210.668 266.975L241.844 292.468L243.29 291.138L211.825 265.529ZM214.933 261.191L213.835 262.753L245.647 288.781L246.962 287.335L214.933 261.191Z" fill="#030402"/>
<path d="M241.67 288.52C232.994 280.871 224.202 273.236 214.803 266.469C214.784 266.455 214.76 266.45 214.737 266.454C214.714 266.458 214.694 266.471 214.68 266.491C214.667 266.51 214.662 266.533 214.666 266.557C214.67 266.58 214.683 266.6 214.702 266.614C223.147 274.523 232.343 281.637 241.511 288.679C241.627 288.766 241.771 288.607 241.67 288.52Z" fill="#263238"/>
<path d="M149.039 227.759C148.454 228.203 147.752 228.465 147.02 228.513C146.287 228.562 145.557 228.396 144.918 228.034C143.096 227.311 140.768 225.431 138.787 226.747C136.56 228.193 137.341 231.418 138.397 233.327C139.418 234.934 140.327 236.61 141.115 238.344C141.741 240.019 142.064 241.791 142.07 243.579C142.07 247.179 140.103 250.505 140.334 254.091C140.638 258.429 144.672 261.553 148.114 263.519C151.555 265.486 155.749 266.281 159.682 267.655C162.983 268.919 165.914 270.993 168.203 273.687C170.493 276.38 172.067 279.607 172.783 283.069C173.174 284.769 173.402 286.502 173.462 288.246C173.462 290.111 173.332 291.991 173.462 293.856C173.52 294.913 173.829 295.941 174.365 296.854C174.901 297.768 175.647 298.539 176.542 299.105C178.251 300.003 180.107 300.586 182.023 300.826C182.083 300.843 182.138 300.877 182.18 300.924C182.222 300.97 182.25 301.028 182.261 301.09C182.272 301.152 182.264 301.216 182.24 301.274C182.216 301.333 182.175 301.383 182.124 301.419C181.081 302.14 179.989 302.787 178.856 303.356C177.878 303.921 176.798 304.285 175.678 304.427C174.558 304.568 173.421 304.485 172.334 304.181C169.876 303.313 168.401 301.014 167.056 298.932C165.579 296.439 163.501 294.356 161.012 292.873C158.442 291.513 155.66 290.599 152.784 290.169C147.217 289.215 141.52 289.504 135.982 288.332C133.297 287.856 130.735 286.842 128.452 285.351C126.168 283.86 124.21 281.923 122.693 279.656C121.204 277.353 120.219 274.761 119.801 272.05C119.492 269.09 119.648 266.099 120.264 263.186C121.424 256.943 121.837 250.584 121.493 244.244C121.276 241.257 120.9 238.283 120.365 235.337C119.803 232.586 119.526 229.786 119.541 226.979C119.599 224.545 120.298 222.171 121.568 220.094C122.837 218.017 124.632 216.312 126.771 215.15C128.875 213.917 131.261 213.246 133.699 213.2C136.138 213.154 138.547 213.736 140.696 214.89C147.666 218.867 149.95 226.863 149.039 227.759Z" fill="#263238"/>
<path d="M141.274 257.258C142.07 259.182 143.25 260.923 144.741 262.375C146.233 263.827 148.006 264.959 149.95 265.703C153.927 267.149 158.294 267.235 162.342 268.595C166.106 269.704 169.46 271.897 171.987 274.899C174.125 277.9 175.241 281.51 175.168 285.195C175.313 289.359 174.894 293.509 175.342 297.659C175.342 297.731 175.226 297.76 175.212 297.659C173.766 290.429 176.557 282.332 172.031 275.868C169.27 272.284 165.358 269.761 160.954 268.725C157.122 267.64 152.987 267.539 149.3 265.963C147.449 265.121 145.785 263.916 144.407 262.421C143.029 260.927 141.964 259.171 141.274 257.258Z" fill="#263238"/>
<path d="M119.093 277.256C118.721 274.828 118.799 272.353 119.324 269.954C119.859 267.062 120.539 264.17 121.16 261.278C120.654 263.75 120.235 266.252 119.801 268.754C119.311 271.106 119.15 273.515 119.324 275.911C119.65 278.276 120.504 280.538 121.823 282.528C123.143 284.518 124.893 286.186 126.944 287.407C131.109 289.966 135.852 290.458 140.624 290.472C144.865 290.397 149.106 290.605 153.319 291.094C158.042 291.612 162.603 293.115 166.709 295.505C166.709 295.505 166.709 295.649 166.709 295.606C158.438 290.762 148.953 291.007 139.698 291.022C135.12 291.24 130.575 290.147 126.597 287.87C124.682 286.714 123.026 285.175 121.734 283.348C120.443 281.521 119.543 279.447 119.093 277.256Z" fill="#263238"/>
<path d="M146.147 232.401C146.408 232.401 149.936 228.699 150.312 228.338C150.688 227.976 154.418 224.52 154.476 224.275C153.267 223.062 151.846 222.082 150.283 221.383C149.343 221.18 146.538 223.523 146.075 223.956C145.612 224.39 143.183 227.167 143.414 228.121C144.06 229.7 144.986 231.15 146.147 232.401Z" fill="#CB2330"/>
<path d="M184.669 239.79C189.903 259.065 179.044 264.56 174.778 265.5C170.961 266.353 158.019 269.505 150.832 250.867C143.646 232.228 150.948 223.711 159.508 220.92C168.069 218.129 179.449 220.501 184.669 239.79Z" fill="#F9CCC9"/>
<path d="M182.586 235.886C182.124 235.886 181.69 235.886 181.14 235.886C180.64 235.957 180.13 235.855 179.694 235.597C179.578 235.495 179.498 235.358 179.467 235.207C179.435 235.055 179.454 234.898 179.521 234.758C179.703 234.5 179.95 234.294 180.237 234.162C180.524 234.03 180.84 233.977 181.155 234.006C181.796 233.978 182.425 234.19 182.919 234.599C183.015 234.693 183.085 234.811 183.121 234.941C183.158 235.071 183.159 235.208 183.125 235.339C183.092 235.469 183.024 235.589 182.929 235.685C182.835 235.781 182.716 235.85 182.586 235.886Z" fill="#263238"/>
<path d="M170.079 239.067C170.508 238.913 170.928 238.734 171.337 238.532C171.815 238.402 172.237 238.118 172.537 237.722C172.606 237.583 172.626 237.425 172.595 237.273C172.563 237.121 172.482 236.984 172.363 236.884C172.094 236.723 171.787 236.638 171.474 236.638C171.161 236.638 170.854 236.723 170.585 236.884C169.962 237.084 169.443 237.52 169.139 238.098C169.091 238.231 169.082 238.374 169.112 238.511C169.141 238.648 169.209 238.775 169.307 238.876C169.405 238.976 169.529 239.048 169.665 239.082C169.802 239.116 169.945 239.111 170.079 239.067Z" fill="#263238"/>
<path d="M173.91 243.318C173.91 243.318 173.824 243.405 173.91 243.463C174.243 244.779 174.402 246.355 173.303 247.049C173.303 247.049 173.303 247.136 173.303 247.121C174.677 246.601 174.445 244.519 173.91 243.318Z" fill="#263238"/>
<path d="M172.421 242.205C170.252 242.509 170.975 246.832 173.043 246.543C175.111 246.254 174.243 241.93 172.421 242.205Z" fill="#263238"/>
<path d="M171.611 242.581C171.279 242.899 170.99 243.391 170.541 243.521C170.093 243.651 169.544 243.289 169.095 242.914C169.24 243.752 169.703 244.533 170.541 244.504C171.38 244.475 171.828 243.637 171.886 242.754C171.915 242.653 171.741 242.451 171.611 242.581Z" fill="#263238"/>
<path d="M180.967 241.28C180.967 241.28 181.083 241.28 181.097 241.381C181.285 242.726 181.733 244.273 183.02 244.475V244.547C181.502 244.591 180.938 242.581 180.967 241.28Z" fill="#263238"/>
<path d="M181.921 239.674C184.061 239.125 184.972 243.42 183.006 243.926C181.039 244.432 180.143 240.123 181.921 239.674Z" fill="#263238"/>
<path d="M182.89 239.761C183.266 239.92 183.7 240.253 184.105 240.195C184.51 240.137 184.828 239.588 185.03 239.082C185.03 239.082 185.03 239.082 185.117 239.082C185.305 239.906 185.218 240.817 184.466 241.135C183.714 241.453 183.093 240.846 182.731 240.065C182.659 239.949 182.731 239.703 182.89 239.761Z" fill="#263238"/>
<path d="M180.417 247.758C180.417 247.758 181.068 249.695 181.256 250.65C181.256 250.736 181.054 250.823 180.736 250.91C179.956 251.213 179.109 251.297 178.285 251.151C177.461 251.006 176.694 250.637 176.065 250.086C176.05 250.068 176.042 250.047 176.041 250.024C176.04 250.001 176.047 249.979 176.06 249.961C176.074 249.942 176.093 249.929 176.115 249.923C176.136 249.917 176.16 249.918 176.181 249.927C177.548 250.517 179.07 250.649 180.519 250.303C180.519 250.028 179.275 247.02 179.42 246.977C180.162 246.902 180.911 246.926 181.647 247.049C180.389 242.971 178.494 239.111 177.309 235.033C177.298 235.003 177.298 234.97 177.31 234.94C177.322 234.91 177.344 234.886 177.372 234.872C177.401 234.857 177.434 234.854 177.465 234.862C177.496 234.871 177.522 234.89 177.54 234.917C179.707 238.984 181.465 243.256 182.789 247.671C182.89 248.177 180.822 247.844 180.417 247.758Z" fill="#263238"/>
<path d="M180.519 250.158C180.188 251.053 179.636 251.849 178.914 252.472C178.5 252.8 177.995 252.991 177.468 253.021C176.34 253.021 176.022 252.125 175.935 251.242C175.877 250.762 175.877 250.277 175.935 249.796C177.383 250.413 178.992 250.539 180.519 250.158Z" fill="#263238"/>
<path d="M178.914 252.501C178.5 252.828 177.995 253.02 177.468 253.05C176.34 253.05 176.022 252.154 175.935 251.271C176.497 251.109 177.098 251.143 177.639 251.366C178.18 251.589 178.629 251.989 178.914 252.501Z" fill="#FF98B9"/>
<path d="M153.695 257.055C155.387 256.752 153.695 246.109 153.695 246.109C153.695 246.109 160.318 242.567 160.622 232.502C160.981 235.431 160.479 238.401 159.176 241.048C159.176 241.048 170.744 237.448 173.737 226.588C173.737 226.588 172.754 232.011 171.25 234.165C174.062 232.659 176.28 230.242 177.54 227.311C177.54 227.311 180.736 232.604 182.644 233.862C182.644 233.862 180.461 213.791 159.364 219.3C155.573 220.221 152.109 222.166 149.35 224.923C146.59 227.68 144.642 231.142 143.718 234.932C142.2 241.395 144.354 249.074 147.015 253.383C148.678 255.942 153.695 257.055 153.695 257.055Z" fill="#263238"/>
<path d="M159.06 247.714C159.06 247.714 154.158 241.93 151.469 243.694C148.779 245.458 152.915 254.207 156.298 255.132C156.728 255.28 157.183 255.34 157.636 255.308C158.09 255.276 158.532 255.154 158.937 254.947C159.342 254.741 159.701 254.455 159.993 254.106C160.285 253.758 160.504 253.355 160.636 252.92L159.06 247.714Z" fill="#F9CCC9"/>
</svg>
