<svg width="289" height="117" viewBox="0 0 289 117" fill="none" xmlns="http://www.w3.org/2000/svg">
<g filter="url(#filter0_d_204_36)">
<path d="M62.3742 27.862C63.8482 30.5986 63.8482 32.3089 69.7291 36.0718L68.8736 63.0957C67.7925 63.4145 66.119 63.9121 65.1108 64.464C64.1027 65.0159 62.1992 66.4617 61.348 67.2006L40.8235 56.9383C40.8235 53.1755 38.0868 46.798 36.3766 44.9657C31.5873 39.8346 23.1673 38.0698 16.1942 41.887C7.64212 45.6498 5.24776 56.9383 10.0368 64.464C12.5493 68.4121 17.9045 72.6737 25.4302 72.6737C26.4383 72.1218 30.5613 72.6737 34.3241 68.5689L56.2169 80.1994C56.2169 83.6202 56.1106 84.4065 57.9273 87.7251C62.3742 95.8485 73.5311 97.3575 80.5042 93.5403C87.4773 89.7231 89.3981 80.1994 87.3456 73.7C86.1573 69.9372 84.9511 68.911 82.8415 66.0785L82.8415 38.5607C83.8386 38.2878 89.1581 33.8411 90.0822 33.3352C94.5292 28.5461 95.8975 19.6522 90.7664 11.7845C84.2669 5.62712 75.0309 3.91675 68.1894 9.04787C61.4264 12.7501 61.69 21.7046 62.3742 27.862Z" fill="#FF3242"/>
</g>
<g filter="url(#filter1_d_204_36)">
<path d="M115.824 63.232C116.272 61.7387 116.656 60.4267 116.976 59.296C117.296 58.1653 117.616 57.0027 117.936 55.808C118.256 54.6133 118.597 53.2693 118.96 51.776C119.323 50.2827 119.781 48.4267 120.336 46.208C120.443 45.8027 120.56 45.5467 120.688 45.44C120.837 45.312 121.157 45.248 121.648 45.248C121.861 45.248 122.192 45.2693 122.64 45.312C123.109 45.3333 123.579 45.4293 124.048 45.6C124.517 45.7493 124.933 45.984 125.296 46.304C125.659 46.6027 125.84 47.04 125.84 47.616C125.84 48.128 125.691 48.9173 125.392 49.984C125.115 51.0293 124.752 52.224 124.304 53.568C123.856 54.912 123.355 56.32 122.8 57.792C122.267 59.2427 121.733 60.6187 121.2 61.92C120.667 63.2213 120.176 64.3627 119.728 65.344C119.301 66.3253 118.981 67.008 118.768 67.392C118.533 67.7973 118.117 68 117.52 68H114.16C113.627 68 113.179 67.904 112.816 67.712C112.475 67.4987 112.187 67.2213 111.952 66.88C111.717 66.5387 111.525 66.1547 111.376 65.728C111.227 65.28 111.099 64.832 110.992 64.384C110.267 61.3547 109.637 58.7307 109.104 56.512C108.592 54.272 108.165 52.4053 107.824 50.912C107.483 49.3973 107.227 48.2347 107.056 47.424C106.885 46.6133 106.8 46.112 106.8 45.92C106.8 45.6853 106.971 45.5147 107.312 45.408C107.653 45.28 108.229 45.216 109.04 45.216C109.893 45.216 110.587 45.3013 111.12 45.472C111.675 45.6427 112.112 45.888 112.432 46.208C112.773 46.5067 113.019 46.8693 113.168 47.296C113.339 47.7013 113.456 48.1493 113.52 48.64C113.584 49.0027 113.648 49.44 113.712 49.952C113.776 50.4427 113.883 51.2 114.032 52.224C114.203 53.248 114.427 54.6347 114.704 56.384C114.981 58.112 115.355 60.3947 115.824 63.232ZM133.938 68C132.743 68 131.89 67.7653 131.378 67.296C130.866 66.8267 130.61 66.1547 130.61 65.28C130.61 64.8533 130.642 64.128 130.706 63.104C130.77 62.0587 130.855 60.8747 130.962 59.552C131.068 58.2293 131.175 56.832 131.282 55.36C131.388 53.888 131.495 52.5013 131.602 51.2C131.708 49.8987 131.794 48.7573 131.858 47.776C131.922 46.7947 131.954 46.1227 131.954 45.76C131.954 45.44 132.124 45.28 132.466 45.28H134.226C135.527 45.28 136.402 45.5573 136.85 46.112C137.298 46.6667 137.522 47.488 137.522 48.576C137.522 48.6827 137.5 49.024 137.458 49.6C137.436 50.176 137.394 50.9013 137.33 51.776C137.266 52.6507 137.191 53.632 137.106 54.72C137.042 55.7867 136.967 56.8853 136.882 58.016C136.818 59.1467 136.743 60.256 136.658 61.344C136.594 62.4107 136.53 63.3813 136.466 64.256C136.402 65.1307 136.348 65.8667 136.306 66.464C136.263 67.04 136.231 67.392 136.21 67.52C136.188 67.6907 136.146 67.8187 136.082 67.904C136.018 67.968 135.89 68 135.698 68H133.938ZM147.04 68C145.824 68 144.96 67.7653 144.448 67.296C143.957 66.8053 143.712 66.0907 143.712 65.152C143.712 64.896 143.723 64.4693 143.744 63.872C143.787 63.2533 143.84 62.528 143.904 61.696C143.968 60.864 144.032 59.9573 144.096 58.976C144.181 57.9733 144.267 56.96 144.352 55.936C144.523 53.7813 144.64 52.032 144.704 50.688C144.789 49.344 144.853 48.288 144.896 47.52C144.96 46.56 145.024 45.952 145.088 45.696C145.152 45.4187 145.291 45.28 145.504 45.28C146.165 45.28 146.837 45.2693 147.52 45.248C148.224 45.2053 148.896 45.1627 149.536 45.12C150.176 45.0773 150.773 45.0453 151.328 45.024C151.904 44.9813 152.416 44.96 152.864 44.96C154.229 44.96 155.403 45.1307 156.384 45.472C157.365 45.8133 158.155 46.2933 158.752 46.912C159.371 47.5307 159.819 48.2773 160.096 49.152C160.395 50.0267 160.544 51.008 160.544 52.096C160.544 53.76 160.213 55.2427 159.552 56.544C158.891 57.8453 157.835 58.8373 156.384 59.52L159.072 63.36C159.563 64.0853 159.936 64.6507 160.192 65.056C160.448 65.44 160.576 65.728 160.576 65.92C160.576 66.0693 160.48 66.2827 160.288 66.56C160.117 66.816 159.851 67.0827 159.488 67.36C159.147 67.616 158.72 67.84 158.208 68.032C157.717 68.224 157.163 68.32 156.544 68.32C155.861 68.32 155.264 68.096 154.752 67.648C154.261 67.2 153.813 66.6133 153.408 65.888C153.024 65.1413 152.683 64.288 152.384 63.328C152.107 62.368 151.84 61.3653 151.584 60.32C150.816 60.2773 150.187 60.2027 149.696 60.096C149.632 61.0347 149.568 61.9307 149.504 62.784C149.44 63.6373 149.387 64.4053 149.344 65.088C149.301 65.7493 149.259 66.304 149.216 66.752C149.173 67.1787 149.152 67.4347 149.152 67.52C149.131 67.6907 149.088 67.8187 149.024 67.904C148.96 67.968 148.832 68 148.64 68H147.04ZM152.224 49.76C151.968 49.76 151.68 49.7813 151.36 49.824C151.04 49.8453 150.699 49.8773 150.336 49.92C150.293 50.6667 150.24 51.5627 150.176 52.608C150.133 53.632 150.069 54.7307 149.984 55.904C150.731 56.0747 151.381 56.16 151.936 56.16C152.597 56.16 153.131 56.032 153.536 55.776C153.963 55.52 154.293 55.2107 154.528 54.848C154.763 54.464 154.912 54.0587 154.976 53.632C155.061 53.2053 155.104 52.8213 155.104 52.48C155.104 51.6053 154.891 50.9333 154.464 50.464C154.037 49.9947 153.291 49.76 152.224 49.76ZM176.582 45.28C177.115 45.28 177.553 45.3867 177.894 45.6C178.257 45.792 178.555 46.0587 178.79 46.4C179.025 46.72 179.217 47.0933 179.366 47.52C179.515 47.9467 179.643 48.384 179.75 48.832C180.603 52.288 181.307 55.136 181.862 57.376C182.417 59.616 182.854 61.4293 183.174 62.816C183.494 64.1813 183.718 65.1947 183.846 65.856C183.974 66.5173 184.038 66.976 184.038 67.232C184.038 67.5307 183.963 67.7333 183.814 67.84C183.686 67.9467 183.473 68 183.174 68H181.542C180.625 68 179.889 67.8933 179.334 67.68C178.801 67.4453 178.385 67.1147 178.086 66.688C177.809 66.2613 177.606 65.7493 177.478 65.152C177.35 64.5333 177.243 63.84 177.158 63.072H171.59L170.534 67.488C170.427 67.8293 170.182 68 169.798 68H168.102C167.761 68 167.409 67.968 167.046 67.904C166.683 67.8187 166.353 67.6907 166.054 67.52C165.777 67.3493 165.542 67.136 165.35 66.88C165.158 66.6027 165.062 66.272 165.062 65.888C165.062 65.4187 165.211 64.6507 165.51 63.584C165.809 62.5173 166.182 61.312 166.63 59.968C167.099 58.6027 167.611 57.184 168.166 55.712C168.742 54.2187 169.297 52.8107 169.83 51.488C170.363 50.1653 170.843 49.0027 171.27 48C171.718 46.9973 172.059 46.2933 172.294 45.888C172.465 45.5893 172.614 45.4187 172.742 45.376C172.891 45.312 173.158 45.28 173.542 45.28H176.582ZM172.742 58.432H176.422L175.078 49.984L172.742 58.432ZM192.683 68C191.488 68 190.635 67.7653 190.123 67.296C189.611 66.8267 189.355 66.1547 189.355 65.28C189.355 64.8533 189.387 64.128 189.451 63.104C189.515 62.0587 189.6 60.8747 189.707 59.552C189.813 58.2293 189.92 56.832 190.027 55.36C190.133 53.888 190.24 52.5013 190.347 51.2C190.453 49.8987 190.539 48.7573 190.603 47.776C190.667 46.7947 190.699 46.1227 190.699 45.76C190.699 45.44 190.869 45.28 191.211 45.28H192.971C194.165 45.28 194.987 45.5147 195.435 45.984C195.904 46.432 196.139 47.104 196.139 48C196.139 48.1067 196.128 48.2027 196.107 48.288C196.107 48.3733 196.107 48.4693 196.107 48.576L195.051 63.52H200.811C200.939 63.52 201.056 63.5627 201.163 63.648C201.269 63.712 201.323 63.8187 201.323 63.968L201.195 65.856C201.152 66.496 200.971 67.0187 200.651 67.424C200.352 67.808 199.723 68 198.763 68H192.683ZM220.978 68H208.21V45.152H220.978V47.68H211.09V54.816H220.402V57.312H211.09V65.472H220.978V68ZM243.367 68L240.615 60.928H231.559L228.839 68H225.927L234.855 45.056H237.447L246.343 68H243.367ZM237.191 51.456C237.127 51.2853 237.021 50.976 236.871 50.528C236.722 50.08 236.573 49.6213 236.423 49.152C236.295 48.6613 236.189 48.288 236.103 48.032C235.997 48.4587 235.879 48.896 235.751 49.344C235.645 49.7707 235.527 50.1653 235.399 50.528C235.293 50.8907 235.197 51.2 235.111 51.456L232.519 58.368H239.751L237.191 51.456ZM265.469 61.888C265.469 63.2533 265.138 64.416 264.477 65.376C263.816 66.3147 262.866 67.04 261.629 67.552C260.413 68.064 258.973 68.32 257.309 68.32C256.456 68.32 255.634 68.2773 254.845 68.192C254.077 68.1067 253.373 67.9893 252.733 67.84C252.093 67.6693 251.528 67.4667 251.037 67.232V64.48C251.805 64.8213 252.754 65.1307 253.885 65.408C255.037 65.6853 256.221 65.824 257.437 65.824C258.568 65.824 259.517 65.6747 260.285 65.376C261.053 65.0773 261.629 64.6507 262.013 64.096C262.397 63.5413 262.589 62.8907 262.589 62.144C262.589 61.3973 262.429 60.768 262.109 60.256C261.789 59.744 261.234 59.2747 260.445 58.848C259.677 58.4 258.6 57.9307 257.213 57.44C256.232 57.0773 255.368 56.6933 254.621 56.288C253.896 55.8613 253.288 55.3813 252.797 54.848C252.306 54.3147 251.933 53.7067 251.677 53.024C251.442 52.3413 251.325 51.552 251.325 50.656C251.325 49.44 251.634 48.4053 252.253 47.552C252.872 46.6773 253.725 46.0053 254.813 45.536C255.922 45.0667 257.192 44.832 258.621 44.832C259.88 44.832 261.032 44.9493 262.077 45.184C263.122 45.4187 264.072 45.728 264.925 46.112L264.029 48.576C263.24 48.2347 262.376 47.9467 261.437 47.712C260.52 47.4773 259.56 47.36 258.557 47.36C257.597 47.36 256.797 47.4987 256.157 47.776C255.517 48.0533 255.037 48.448 254.717 48.96C254.397 49.4507 254.237 50.0267 254.237 50.688C254.237 51.456 254.397 52.096 254.717 52.608C255.037 53.12 255.56 53.5787 256.285 53.984C257.01 54.3893 257.992 54.8267 259.229 55.296C260.573 55.7867 261.704 56.32 262.621 56.896C263.56 57.4507 264.264 58.1227 264.733 58.912C265.224 59.7013 265.469 60.6933 265.469 61.888ZM279.064 56.384L285.016 45.152H288.12L280.504 59.136V68H277.624V59.264L270.008 45.152H273.144L279.064 56.384Z" fill="#55006A"/>
</g>
<defs>
<filter id="filter0_d_204_36" x="1.60278" y="6.02098" width="92.4541" height="95.5154" filterUnits="userSpaceOnUse" color-interpolation-filters="sRGB">
<feFlood flood-opacity="0" result="BackgroundImageFix"/>
<feColorMatrix in="SourceAlpha" type="matrix" values="0 0 0 0 0 0 0 0 0 0 0 0 0 0 0 0 0 0 127 0" result="hardAlpha"/>
<feOffset dx="-3" dy="3"/>
<feGaussianBlur stdDeviation="1.5"/>
<feComposite in2="hardAlpha" operator="out"/>
<feColorMatrix type="matrix" values="0 0 0 0 0.188235 0 0 0 0 0 0 0 0 0 0.235294 0 0 0 0.68 0"/>
<feBlend mode="normal" in2="BackgroundImageFix" result="effect1_dropShadow_204_36"/>
<feBlend mode="normal" in="SourceGraphic" in2="effect1_dropShadow_204_36" result="shape"/>
</filter>
<filter id="filter1_d_204_36" x="100.8" y="43.832" width="187.319" height="29.488" filterUnits="userSpaceOnUse" color-interpolation-filters="sRGB">
<feFlood flood-opacity="0" result="BackgroundImageFix"/>
<feColorMatrix in="SourceAlpha" type="matrix" values="0 0 0 0 0 0 0 0 0 0 0 0 0 0 0 0 0 0 127 0" result="hardAlpha"/>
<feOffset dx="-3" dy="2"/>
<feGaussianBlur stdDeviation="1.5"/>
<feComposite in2="hardAlpha" operator="out"/>
<feColorMatrix type="matrix" values="0 0 0 0 0.188235 0 0 0 0 0 0 0 0 0 0.235294 0 0 0 0.37 0"/>
<feBlend mode="normal" in2="BackgroundImageFix" result="effect1_dropShadow_204_36"/>
<feBlend mode="normal" in="SourceGraphic" in2="effect1_dropShadow_204_36" result="shape"/>
</filter>
</defs>
</svg>
