<svg width="817" height="965" viewBox="0 0 817 965" fill="none" xmlns="http://www.w3.org/2000/svg">
<path d="M700.447 440.039C704.31 429.663 705.008 418.374 702.454 407.601C699.9 396.827 694.208 387.054 686.097 379.516C677.987 371.978 667.824 367.015 656.893 365.255C645.962 363.495 634.754 365.016 624.687 369.626C614.621 374.237 606.148 381.729 600.341 391.156C594.533 400.583 591.652 411.521 592.062 422.585C592.472 433.649 596.154 444.344 602.643 453.315C609.132 462.286 618.136 469.131 628.516 472.985C642.424 478.147 657.813 477.577 671.3 471.4C684.788 465.222 695.272 453.942 700.447 440.039Z" fill="#EBEBEB"/>
<path d="M618.828 424.176C625.254 442.106 644.053 454.477 644.053 454.477C644.053 454.477 665.283 446.757 675.55 430.815C684.197 417.498 681.553 401.73 670.899 397.098C655.652 390.459 648.357 417.537 648.357 417.537C648.357 417.537 647.527 389.513 631.122 392.447C619.696 394.492 613.481 409.16 618.828 424.176Z" fill="white"/>
<path d="M9.56532 594.653C14.7958 597.314 20.4191 599.119 26.2212 599.999C40.14 602.155 54.36 598.984 66.044 591.119C77.728 583.253 86.017 571.272 89.2572 557.565C92.4974 543.858 90.4506 529.433 83.5251 517.168C76.5996 504.904 65.3047 495.701 51.8938 491.397C38.4829 487.092 23.942 488.002 11.1724 493.945C-1.59718 499.888 -11.6567 510.427 -16.9991 523.459C-22.3415 536.492 -22.5739 551.059 -17.6501 564.255C-12.7263 577.451 -3.00816 588.306 9.56532 594.653Z" fill="#EBEBEB"/>
<path d="M17.2852 539.801C17.5774 543.157 18.8587 546.351 20.9669 548.978C23.0751 551.605 25.9154 553.548 29.1282 554.56C32.3411 555.573 35.782 555.609 39.0155 554.665C42.249 553.72 45.1296 551.838 47.2927 549.256C49.4559 546.673 50.8042 543.507 51.1672 540.158C51.5301 536.81 50.8913 533.428 49.3316 530.443C47.7719 527.457 45.3614 525.001 42.4053 523.386C39.4492 521.771 36.0803 521.069 32.7252 521.37C28.2358 521.772 24.089 523.938 21.1945 527.393C18.3 530.848 16.8942 535.311 17.2852 539.801Z" fill="white"/>
<path d="M8.9668 587.647L9.56515 594.652C14.7956 597.313 20.419 599.118 26.221 599.999C33.552 601.151 41.0396 600.824 48.2424 599.038C55.4451 597.251 62.2174 594.041 68.16 589.596L67.5617 582.609C67.231 578.761 66.1454 575.015 64.367 571.586C62.5886 568.157 60.1522 565.111 57.1969 562.624C54.2416 560.136 50.8253 558.255 47.143 557.088C43.4607 555.921 39.5846 555.49 35.736 555.821C31.8873 556.152 28.1415 557.237 24.7123 559.016C21.2832 560.794 18.238 563.23 15.7504 566.186C13.2629 569.141 11.3818 572.557 10.2146 576.24C9.04733 579.922 8.61678 583.798 8.94754 587.647H8.9668Z" fill="white"/>
<path d="M36.609 207.918C5.37481 194.615 -9.16115 158.511 4.14204 127.276C17.4452 96.0422 53.5499 81.5063 84.7841 94.8094C116.018 108.113 130.554 144.217 117.251 175.451C103.948 206.686 67.8432 221.222 36.609 207.918Z" fill="#EBEBEB"/>
<path fill-rule="evenodd" clip-rule="evenodd" d="M69.1056 175.785C70.7268 174.762 72.1358 173.276 74.3167 173.489C75.1466 173.489 74.9728 172.871 74.9728 172.427C74.9728 164.225 74.9728 156.061 74.9728 147.858C74.9728 147.279 74.9729 146.777 74.2781 146.449C68.0249 143.303 65.3229 137.089 61.4822 131.801C59.5187 129.165 58.1054 126.161 57.3262 122.968C56.547 119.775 56.418 116.458 56.9467 113.215C57.2169 111.381 56.3483 110.551 54.6885 110.165C53.8531 109.885 52.9501 109.878 52.1104 110.145C51.2707 110.412 50.5378 110.94 50.018 111.651C48.2199 114.997 47.0121 118.627 46.4474 122.382C46.0807 125.47 47.2001 128.5 47.5861 131.569C47.8756 133.827 48.3968 136.047 48.8214 138.324C48.281 138.71 47.644 138.517 47.0457 138.517H26.2982C23.3839 138.517 21.9557 139.347 21.5504 141.277C21.3291 142.469 21.5034 143.7 22.047 144.784C22.5905 145.868 23.4735 146.744 24.5612 147.279C25.0823 147.53 26.0281 147.279 26.086 148.109C26.1439 148.939 25.1789 148.842 24.6964 149.19C22.2067 150.908 22.6698 154.439 25.5648 156.485C26.2596 156.987 27.6107 156.755 27.6493 157.778C27.6879 158.801 26.3947 158.589 25.8157 159.149C23.8857 161.079 24.8121 164.939 27.7457 166.386C28.1596 166.517 28.5655 166.672 28.9616 166.849C29.309 167.081 29.6371 167.351 28.9616 167.814C25.9701 169.957 26.028 172.929 28.9616 175.11L29.8687 175.747C30.9616 176.413 32.2443 176.698 33.5164 176.557C44.363 176.557 55.2097 176.557 66.0563 176.557C66.5903 176.65 67.1377 176.629 67.6631 176.496C68.1885 176.363 68.68 176.121 69.1056 175.785Z" fill="white"/>
<path fill-rule="evenodd" clip-rule="evenodd" d="M99.9276 161.348C99.9276 156.137 99.9276 150.946 99.9276 145.735C99.9276 144.692 99.8311 144.171 98.538 144.171C92.1884 144.171 85.858 144.171 79.5083 144.171C78.2538 144.171 78.0609 144.577 78.0802 145.677C78.0802 156.163 78.0802 166.637 78.0802 177.097C78.0802 178.429 78.4468 178.796 79.7785 178.776C85.9288 178.699 92.079 178.699 98.2292 178.776C99.7732 178.776 99.9856 178.255 99.9663 176.846C99.8891 171.77 99.9276 166.559 99.9276 161.348Z" fill="white"/>
<path d="M598.273 728.749C595.05 749.342 606.63 771.093 606.63 771.093C606.63 771.093 631.025 774.721 649.341 764.762C664.704 756.56 670.32 739.885 662.6 729.868C651.367 715.509 630.215 737.781 630.215 737.781C630.215 737.781 644.053 710.356 626.721 704.624C614.62 700.59 600.84 711.572 598.273 728.749Z" fill="#EBEBEB"/>
<path d="M555.697 678.048C564.923 690.303 582.351 695.418 582.351 695.418C582.351 695.418 596.787 684.436 600.956 669.671C604.43 657.358 598.621 645.836 589.376 644.832C576.04 643.365 576.908 665.946 576.908 665.946C576.908 665.946 569.574 644.581 557.608 650.757C549.27 654.984 548.016 667.78 555.697 678.048Z" fill="#EBEBEB"/>
<path d="M334.5 912.157C165.638 912.157 28.7492 893.829 28.7492 871.221C28.7492 848.613 165.638 830.286 334.5 830.286C503.361 830.286 640.251 848.613 640.251 871.221C640.251 893.829 503.361 912.157 334.5 912.157Z" fill="#EBEBEB"/>
<path d="M726.329 835.998L628.362 835.535L530.414 835.361L334.5 835.033L138.586 835.361L40.6381 835.535L-57.3094 835.998L40.6381 836.461L138.586 836.635L334.5 836.963L530.414 836.635L628.362 836.461L726.329 835.998Z" fill="#263238"/>
<path d="M171.396 119.505H497.566C501.942 119.543 506.268 120.443 510.296 122.153C514.325 123.864 517.976 126.351 521.043 129.473C524.11 132.596 526.531 136.292 528.169 140.35C529.807 144.408 530.629 148.75 530.588 153.126V824.766C530.665 833.603 527.23 842.108 521.037 848.413C514.845 854.718 506.402 858.305 497.566 858.387H171.396C162.554 858.31 154.104 854.726 147.905 848.421C141.705 842.116 138.263 833.608 138.335 824.766V153.126C138.297 148.747 139.122 144.404 140.763 140.344C142.404 136.284 144.829 132.588 147.899 129.465C150.969 126.343 154.625 123.856 158.656 122.147C162.688 120.439 167.017 119.541 171.396 119.505ZM158.986 804.018C158.986 821.697 172.226 835.999 188.534 835.999H480.427C496.813 835.999 510.034 821.697 510.034 804.018V178.583C510.034 142.569 496.813 140.813 480.427 140.813H421.968C418.571 140.813 415.792 144.673 415.792 149.459V151.524C415.792 162.737 409.654 162.776 402.108 162.776H267.008C259.288 162.776 253.324 162.776 253.324 151.524V149.459C253.324 144.673 250.584 140.813 247.11 140.813H188.631C172.322 140.813 159.082 145.599 159.082 178.583L158.986 804.018Z" fill="#263238"/>
<path d="M316.069 148.765H352.951C353.555 148.765 354.134 148.525 354.561 148.098C354.988 147.671 355.228 147.091 355.228 146.487C355.228 145.883 354.988 145.304 354.561 144.877C354.134 144.45 353.555 144.21 352.951 144.21H316.069C315.465 144.21 314.885 144.45 314.458 144.877C314.031 145.304 313.791 145.883 313.791 146.487C313.791 147.091 314.031 147.671 314.458 148.098C314.885 148.525 315.465 148.765 316.069 148.765Z" fill="white"/>
<path d="M158.986 178.583V804.019C158.986 821.698 172.226 835.999 188.534 835.999H480.427C496.813 835.999 510.034 821.698 510.034 804.019V178.583C510.034 142.569 496.813 140.813 480.427 140.813H421.968C418.571 140.813 415.792 144.673 415.792 149.459V151.524C415.792 162.738 409.654 162.776 402.108 162.776H267.008C259.288 162.776 253.324 162.776 253.324 151.524V149.459C253.324 144.673 250.584 140.813 247.11 140.813H188.631C172.226 140.89 158.986 145.599 158.986 178.583Z" fill="white"/>
<path d="M158.986 178.583V225.25H510.13V178.583C510.13 142.569 496.813 140.89 480.447 140.89H421.968C418.571 140.89 415.792 144.75 415.792 149.537V151.602C415.792 162.815 409.654 162.854 402.127 162.854H266.95C259.346 162.854 253.247 162.854 253.247 151.602V149.459C253.247 144.673 250.506 140.813 247.052 140.813H188.592C172.226 140.89 158.986 145.599 158.986 178.583Z" fill="#FF3242"/>
<path d="M476.78 202.476L487.144 192.749L476.78 183.022L475.178 184.74L483.708 192.749L475.178 200.759L476.78 202.476Z" fill="white"/>
<path d="M190.831 203.152H197.779V200.72C197.781 200.612 197.813 200.506 197.871 200.414C197.929 200.322 198.01 200.248 198.107 200.199C198.377 200.064 198.628 199.91 198.879 199.755C198.972 199.699 199.079 199.669 199.188 199.669C199.297 199.669 199.403 199.699 199.497 199.755L201.581 200.952L205.055 194.95L202.951 193.734C202.859 193.679 202.785 193.599 202.737 193.503C202.689 193.407 202.67 193.3 202.681 193.193C202.691 193.045 202.691 192.897 202.681 192.749C202.691 192.602 202.691 192.453 202.681 192.305C202.67 192.199 202.689 192.091 202.737 191.996C202.785 191.9 202.859 191.82 202.951 191.765L205.055 190.549L201.581 184.547L199.497 185.743C199.403 185.8 199.297 185.829 199.188 185.829C199.079 185.829 198.972 185.8 198.879 185.743C198.628 185.589 198.377 185.435 198.107 185.3C198.01 185.251 197.929 185.176 197.871 185.084C197.813 184.993 197.781 184.887 197.779 184.778V182.347H190.831V184.759C190.829 184.868 190.797 184.973 190.739 185.065C190.681 185.157 190.6 185.231 190.503 185.28L189.731 185.724C189.638 185.78 189.531 185.81 189.422 185.81C189.313 185.81 189.206 185.78 189.113 185.724L187.029 184.528L183.574 190.53L185.658 191.746C185.752 191.8 185.829 191.879 185.881 191.975C185.932 192.07 185.955 192.178 185.948 192.286C185.938 192.434 185.938 192.582 185.948 192.73V193.155C185.966 193.264 185.95 193.377 185.901 193.477C185.853 193.577 185.775 193.66 185.678 193.714L183.593 194.93L187.048 200.933L189.152 199.736C189.241 199.679 189.345 199.649 189.451 199.649C189.557 199.649 189.661 199.679 189.75 199.736L190.522 200.18C190.619 200.229 190.7 200.303 190.758 200.395C190.816 200.487 190.848 200.593 190.85 200.701L190.831 203.152ZM196.331 201.705H192.278V200.72C192.278 200.346 192.176 199.979 191.982 199.659C191.788 199.34 191.51 199.079 191.178 198.906C190.949 198.803 190.73 198.68 190.522 198.539C190.207 198.332 189.838 198.221 189.461 198.221C189.083 198.221 188.714 198.332 188.399 198.539L187.569 199.022L185.543 195.509L186.392 195.027C186.73 194.841 187.005 194.557 187.18 194.213C187.356 193.869 187.424 193.48 187.376 193.097V192.363C187.422 191.978 187.351 191.588 187.172 191.244C186.993 190.899 186.714 190.617 186.373 190.433L185.543 189.951L187.569 186.438L188.399 186.921C188.714 187.128 189.083 187.239 189.461 187.239C189.838 187.239 190.207 187.128 190.522 186.921C190.726 186.784 190.939 186.662 191.159 186.554C191.496 186.386 191.779 186.127 191.976 185.806C192.174 185.486 192.279 185.116 192.278 184.74V183.775H196.331V184.74C196.331 185.116 196.435 185.486 196.633 185.806C196.831 186.127 197.114 186.386 197.451 186.554C197.673 186.657 197.887 186.78 198.088 186.921C198.403 187.128 198.772 187.239 199.149 187.239C199.526 187.239 199.896 187.128 200.211 186.921L201.041 186.438L202.971 189.951L202.141 190.433C201.799 190.617 201.52 190.899 201.341 191.244C201.162 191.588 201.091 191.978 201.137 192.363C201.163 192.607 201.163 192.853 201.137 193.097C201.091 193.482 201.162 193.872 201.341 194.217C201.52 194.561 201.799 194.843 202.141 195.027L202.971 195.509L201.041 199.022L200.211 198.539C199.896 198.332 199.526 198.221 199.149 198.221C198.772 198.221 198.403 198.332 198.088 198.539C197.884 198.676 197.671 198.798 197.451 198.906C197.114 199.075 196.831 199.334 196.633 199.654C196.435 199.975 196.331 200.344 196.331 200.72V201.705ZM194.305 197.96C195.341 197.964 196.355 197.66 197.218 197.087C198.081 196.514 198.754 195.697 199.153 194.741C199.551 193.784 199.656 192.731 199.455 191.714C199.254 190.698 198.755 189.764 198.023 189.032C197.29 188.299 196.356 187.801 195.34 187.599C194.323 187.398 193.27 187.503 192.314 187.902C191.357 188.3 190.541 188.973 189.967 189.836C189.394 190.699 189.09 191.713 189.094 192.749C189.099 194.13 189.65 195.452 190.626 196.428C191.602 197.405 192.924 197.955 194.305 197.96ZM194.305 188.967C195.072 188.947 195.828 189.157 196.475 189.57C197.122 189.982 197.632 190.578 197.939 191.281C198.246 191.985 198.336 192.764 198.199 193.519C198.061 194.274 197.701 194.971 197.165 195.52C196.629 196.07 195.942 196.447 195.191 196.604C194.439 196.761 193.658 196.69 192.947 196.401C192.236 196.112 191.628 195.617 191.199 194.981C190.771 194.344 190.542 193.594 190.541 192.827C190.541 191.819 190.934 190.852 191.638 190.131C192.341 189.41 193.298 188.992 194.305 188.967Z" fill="white"/>
<path d="M432.062 154.863L432.621 155.423C432.737 155.423 432.834 155.635 432.949 155.751C433.658 155.028 434.505 154.455 435.44 154.067C436.376 153.679 437.379 153.484 438.392 153.493C439.405 153.479 440.41 153.673 441.346 154.061C442.282 154.449 443.129 155.024 443.834 155.751L444.143 155.423L444.703 154.863L443.989 154.246C443.482 153.823 442.925 153.467 442.329 153.184C441.641 152.837 440.906 152.59 440.148 152.451C439.782 152.451 439.415 152.451 439.048 152.296H438.083H437.35C436.69 152.383 436.042 152.545 435.42 152.779C434.946 152.952 434.487 153.165 434.049 153.416C433.592 153.678 433.159 153.982 432.756 154.323L432.158 154.863H432.062Z" fill="white"/>
<path d="M442.059 157.527C442.348 157.219 442.638 156.929 442.947 156.64C442.351 156.04 441.643 155.565 440.863 155.24C440.083 154.916 439.246 154.749 438.402 154.749C437.557 154.749 436.72 154.916 435.94 155.24C435.16 155.565 434.452 156.04 433.856 156.64L434.744 157.527C435.714 156.557 437.03 156.013 438.402 156.013C439.773 156.013 441.089 156.557 442.059 157.527Z" fill="white"/>
<path d="M435.632 158.415L436.52 159.303C436.768 159.044 437.069 158.842 437.402 158.709C437.735 158.576 438.092 158.515 438.45 158.531C438.807 158.52 439.163 158.583 439.495 158.716C439.827 158.849 440.128 159.048 440.38 159.303L441.268 158.415C440.907 158.029 440.47 157.722 439.986 157.512C439.501 157.301 438.978 157.193 438.45 157.193C437.922 157.193 437.399 157.301 436.914 157.512C436.429 157.722 435.993 158.029 435.632 158.415Z" fill="white"/>
<path d="M437.601 160.19C437.601 160.4 437.684 160.602 437.832 160.75C437.981 160.898 438.182 160.982 438.392 160.982C438.508 161 438.626 160.992 438.738 160.96C438.851 160.928 438.955 160.873 439.044 160.796C439.133 160.72 439.204 160.626 439.253 160.52C439.302 160.413 439.327 160.298 439.327 160.181C439.327 160.064 439.302 159.948 439.253 159.842C439.204 159.736 439.133 159.641 439.044 159.565C438.955 159.489 438.851 159.433 438.738 159.401C438.626 159.369 438.508 159.362 438.392 159.38C438.286 159.38 438.182 159.401 438.085 159.442C437.987 159.483 437.899 159.543 437.826 159.618C437.752 159.694 437.694 159.783 437.655 159.882C437.617 159.98 437.598 160.085 437.601 160.19Z" fill="white"/>
<path d="M487.163 156.562C487.163 156.1 487.026 155.648 486.769 155.264C486.513 154.88 486.148 154.581 485.721 154.404C485.295 154.228 484.825 154.181 484.372 154.271C483.919 154.362 483.503 154.584 483.176 154.911C482.85 155.237 482.627 155.653 482.537 156.106C482.447 156.559 482.493 157.029 482.67 157.456C482.847 157.882 483.146 158.247 483.53 158.504C483.914 158.76 484.366 158.897 484.828 158.897C485.447 158.897 486.041 158.651 486.479 158.213C486.917 157.775 487.163 157.181 487.163 156.562Z" fill="white"/>
<path d="M479.829 156.562C479.829 156.1 479.692 155.648 479.436 155.264C479.179 154.88 478.814 154.581 478.387 154.404C477.961 154.228 477.491 154.181 477.038 154.271C476.585 154.362 476.169 154.584 475.842 154.911C475.516 155.237 475.293 155.653 475.203 156.106C475.113 156.559 475.159 157.029 475.336 157.456C475.513 157.882 475.812 158.247 476.196 158.504C476.58 158.76 477.032 158.897 477.494 158.897C477.8 158.897 478.104 158.837 478.387 158.719C478.671 158.602 478.928 158.43 479.145 158.213C479.362 157.996 479.534 157.739 479.651 157.456C479.769 157.172 479.829 156.869 479.829 156.562Z" fill="white"/>
<path d="M472.495 156.562C472.495 156.1 472.358 155.647 472.1 155.263C471.843 154.878 471.477 154.579 471.049 154.403C470.621 154.227 470.151 154.182 469.697 154.273C469.243 154.365 468.827 154.589 468.502 154.918C468.176 155.246 467.955 155.664 467.867 156.119C467.779 156.573 467.828 157.043 468.008 157.469C468.188 157.896 468.49 158.259 468.876 158.513C469.263 158.768 469.716 158.901 470.179 158.898C470.485 158.898 470.788 158.837 471.07 158.719C471.352 158.602 471.608 158.43 471.824 158.212C472.039 157.995 472.209 157.738 472.324 157.455C472.44 157.171 472.498 156.868 472.495 156.562Z" fill="white"/>
<path d="M465.161 156.562C465.161 156.1 465.024 155.647 464.766 155.263C464.509 154.878 464.143 154.579 463.715 154.403C463.287 154.227 462.817 154.182 462.363 154.273C461.909 154.365 461.493 154.589 461.168 154.918C460.842 155.246 460.621 155.664 460.533 156.119C460.445 156.573 460.494 157.043 460.674 157.469C460.853 157.896 461.156 158.259 461.542 158.513C461.929 158.768 462.382 158.901 462.845 158.898C463.151 158.898 463.454 158.837 463.736 158.719C464.018 158.602 464.274 158.43 464.49 158.212C464.705 157.995 464.875 157.738 464.99 157.455C465.106 157.171 465.164 156.868 465.161 156.562Z" fill="white"/>
<path d="M457.846 156.562C457.846 156.1 457.709 155.648 457.453 155.264C457.196 154.88 456.831 154.581 456.405 154.404C455.978 154.228 455.508 154.181 455.055 154.271C454.602 154.362 454.186 154.584 453.86 154.911C453.533 155.237 453.311 155.653 453.221 156.106C453.13 156.559 453.177 157.029 453.353 157.456C453.53 157.882 453.83 158.247 454.214 158.504C454.598 158.76 455.049 158.897 455.511 158.897C456.13 158.897 456.724 158.651 457.162 158.213C457.6 157.775 457.846 157.181 457.846 156.562Z" fill="white"/>
<path d="M185.311 161.637H204.264V152.875H185.311V161.637ZM203.299 160.672H186.276V153.84H203.26L203.299 160.672Z" fill="white"/>
<path d="M190.464 154.361H202.681V160.151H190.464V154.361Z" fill="white"/>
<path d="M183.632 154.92H185.311V159.61H183.632V154.92Z" fill="white"/>
<path d="M456.708 797.766H459.371V810.021H464.35V803.768H473.19V810.021H478.169V797.766H480.852L468.77 785.298L456.708 797.766Z" fill="#EBEBEB"/>
<path d="M188.148 785.298H217.253V789.447H188.148V785.298Z" fill="#EBEBEB"/>
<path d="M188.148 795.584H217.253V799.734H188.148V795.584Z" fill="#EBEBEB"/>
<path d="M188.148 805.871H217.253V810.021H188.148V805.871Z" fill="#EBEBEB"/>
<path d="M457.267 286.644C459.013 287.733 460.922 288.535 462.922 289.018C467.719 290.195 472.784 289.519 477.105 287.127C481.427 284.735 484.687 280.801 486.237 276.111C487.786 271.421 487.51 266.319 485.463 261.823C483.417 257.327 479.751 253.769 475.196 251.857C470.642 249.945 465.534 249.82 460.892 251.508C456.25 253.196 452.415 256.572 450.152 260.963C447.889 265.353 447.365 270.436 448.683 275.196C450.002 279.956 453.067 284.044 457.267 286.644Z" fill="#DBDBDB"/>
<path d="M461.61 267.748C461.61 268.928 461.96 270.081 462.615 271.062C463.27 272.042 464.202 272.807 465.291 273.258C466.381 273.71 467.58 273.828 468.737 273.597C469.894 273.367 470.956 272.799 471.791 271.965C472.625 271.131 473.193 270.069 473.423 268.912C473.653 267.755 473.535 266.556 473.083 265.466C472.632 264.376 471.868 263.445 470.887 262.79C469.906 262.134 468.753 261.785 467.574 261.785C465.992 261.785 464.475 262.413 463.357 263.531C462.238 264.65 461.61 266.167 461.61 267.748Z" fill="white"/>
<path d="M457.267 284.193V286.644C459.013 287.733 460.922 288.535 462.922 289.018C465.445 289.636 468.066 289.745 470.631 289.337C473.196 288.929 475.654 288.014 477.86 286.644V284.193C477.921 282.803 477.699 281.415 477.209 280.114C476.718 278.812 475.97 277.623 475.008 276.618C474.045 275.614 472.89 274.814 471.611 274.268C470.331 273.722 468.955 273.44 467.564 273.44C466.173 273.44 464.796 273.722 463.517 274.268C462.238 274.814 461.082 275.614 460.12 276.618C459.158 277.623 458.41 278.812 457.919 280.114C457.429 281.415 457.207 282.803 457.267 284.193Z" fill="white"/>
<path d="M298.911 251.518H423.415V261.786H298.911V251.518Z" fill="#EBEBEB"/>
<path d="M314.737 268.636H423.415V275.429H314.737V268.636Z" fill="#EBEBEB"/>
<path d="M243.713 281.741H423.415V288.535H243.713V281.741Z" fill="#EBEBEB"/>
<path d="M510.053 551.594H159.044L159.044 305.789L510.053 305.789L510.053 551.594Z" fill="#EBEBEB"/>
<path d="M469.021 375.674C469.021 381.426 467.315 387.05 464.119 391.833C460.923 396.616 456.381 400.344 451.066 402.545C445.752 404.746 439.904 405.322 434.262 404.2C428.62 403.078 423.437 400.308 419.37 396.24C415.302 392.173 412.532 386.99 411.41 381.348C410.287 375.706 410.863 369.858 413.065 364.544C415.266 359.229 418.994 354.686 423.777 351.491C428.56 348.295 434.183 346.589 439.936 346.589C447.65 346.589 455.048 349.653 460.502 355.108C465.957 360.562 469.021 367.96 469.021 375.674Z" fill="#DBDBDB"/>
<path d="M354.186 498.133H158.986L256.586 365.851L354.186 498.133Z" fill="#C7C7C7"/>
<path d="M430.691 498.769H269.536L350.114 412.614L430.691 498.769Z" fill="#DBDBDB"/>
<path d="M159.024 498.654H510.034V551.614H159.024V498.654Z" fill="#DBDBDB"/>
<path d="M457.267 681.289C459.018 682.364 460.926 683.159 462.922 683.643C466.682 684.556 470.629 684.333 474.262 683.003C477.896 681.673 481.054 679.296 483.337 676.172C485.62 673.047 486.925 669.317 487.089 665.451C487.252 661.585 486.266 657.757 484.254 654.452C482.243 651.147 479.297 648.511 475.788 646.88C472.28 645.248 468.366 644.693 464.543 645.285C460.719 645.877 457.156 647.589 454.305 650.205C451.454 652.821 449.442 656.223 448.524 659.982C447.551 664.001 447.872 668.226 449.442 672.052C451.012 675.879 453.751 679.111 457.267 681.289Z" fill="#DBDBDB"/>
<path d="M461.61 662.319C461.61 663.499 461.96 664.652 462.615 665.632C463.27 666.613 464.202 667.377 465.291 667.829C466.381 668.28 467.58 668.398 468.737 668.168C469.894 667.938 470.956 667.37 471.791 666.536C472.625 665.702 473.193 664.639 473.423 663.483C473.653 662.326 473.535 661.127 473.083 660.037C472.632 658.947 471.868 658.016 470.887 657.361C469.906 656.705 468.753 656.355 467.574 656.355C465.992 656.355 464.475 656.984 463.357 658.102C462.238 659.221 461.61 660.738 461.61 662.319Z" fill="white"/>
<path d="M457.267 678.762V681.29C459.018 682.365 460.926 683.16 462.922 683.644C465.444 684.267 468.066 684.378 470.632 683.97C473.198 683.563 475.656 682.645 477.86 681.271V678.819C477.921 677.43 477.699 676.042 477.209 674.741C476.718 673.439 475.97 672.25 475.008 671.245C474.045 670.241 472.89 669.441 471.611 668.895C470.331 668.349 468.955 668.067 467.564 668.067C466.173 668.067 464.796 668.349 463.517 668.895C462.238 669.441 461.082 670.241 460.12 671.245C459.158 672.25 458.41 673.439 457.919 674.741C457.429 676.042 457.207 677.43 457.267 678.819V678.762Z" fill="white"/>
<path d="M263.283 646.087H423.415V656.354H263.283V646.087Z" fill="#EBEBEB"/>
<path d="M219.009 663.206H423.415V670H219.009V663.206Z" fill="#EBEBEB"/>
<path d="M353.781 676.311H423.415V683.104H353.781V676.311Z" fill="#EBEBEB"/>
<path d="M159.024 700.378H510.034V760.42H159.024V700.378Z" fill="#EBEBEB"/>
<path d="M412.569 760.421H467.303C465.276 754.787 461.56 749.916 456.662 746.473C451.764 743.03 445.923 741.183 439.936 741.183C433.949 741.183 428.108 743.03 423.21 746.473C418.312 749.916 414.596 754.787 412.569 760.421Z" fill="#DBDBDB"/>
<path d="M475.178 589.268C468.761 589.268 463.559 584.066 463.559 577.649C463.559 571.232 468.761 566.03 475.178 566.03C481.595 566.03 486.796 571.232 486.796 577.649C486.796 584.066 481.595 589.268 475.178 589.268Z" fill="#EBEBEB"/>
<path fill-rule="evenodd" clip-rule="evenodd" d="M476.76 582.28C477.069 582.087 477.339 581.798 477.745 581.836C478.15 581.875 477.86 581.74 477.86 581.643C477.86 580.099 477.86 578.555 477.86 577.011C477.87 576.958 477.862 576.902 477.838 576.854C477.814 576.805 477.774 576.765 477.725 576.741C476.548 576.143 476.027 574.965 475.294 573.962C474.925 573.463 474.66 572.895 474.514 572.291C474.368 571.688 474.344 571.062 474.444 570.449C474.444 570.102 474.328 569.947 474.02 569.87C473.86 569.818 473.688 569.818 473.529 569.87C473.369 569.922 473.23 570.024 473.132 570.16C472.793 570.792 472.564 571.477 472.456 572.186C472.47 572.771 472.541 573.353 472.669 573.923C472.669 574.348 472.823 574.772 472.9 575.197C472.804 575.197 472.688 575.197 472.572 575.197H468.712C468.153 575.197 467.882 575.351 467.805 575.718C467.762 575.945 467.795 576.18 467.9 576.387C468.005 576.593 468.175 576.758 468.384 576.857C468.481 576.857 468.654 576.857 468.674 577.011C468.693 577.166 468.5 577.146 468.403 577.224C467.94 577.532 468.017 578.208 468.577 578.594C468.693 578.69 468.963 578.594 468.963 578.845C468.963 579.096 468.732 578.999 468.616 579.096C468.531 579.205 468.474 579.333 468.448 579.469C468.422 579.605 468.427 579.745 468.465 579.878C468.502 580.011 468.57 580.133 468.664 580.235C468.757 580.338 468.873 580.417 469.002 580.466C469.082 580.49 469.16 580.522 469.233 580.562C469.233 580.562 469.349 580.562 469.233 580.736C469.103 580.799 468.993 580.898 468.916 581.021C468.839 581.144 468.798 581.286 468.798 581.431C468.798 581.576 468.839 581.718 468.916 581.841C468.993 581.964 469.103 582.063 469.233 582.126L469.388 582.242C469.596 582.367 469.84 582.421 470.083 582.396H476.239C476.421 582.421 476.606 582.38 476.76 582.28Z" fill="white"/>
<path fill-rule="evenodd" clip-rule="evenodd" d="M482.589 579.559V576.606C482.589 576.393 482.589 576.297 482.319 576.297H478.729C478.497 576.297 478.459 576.297 478.459 576.586V582.531C478.459 582.782 478.459 582.859 478.768 582.84H482.261C482.55 582.84 482.589 582.743 482.589 582.473C482.57 581.508 482.589 580.543 482.589 579.559Z" fill="white"/>
<path d="M462.054 580.409C462.588 578.186 462.453 575.854 461.664 573.708C460.876 571.561 459.469 569.696 457.623 568.348C455.776 567 453.571 566.229 451.286 566.132C449.002 566.034 446.74 566.616 444.785 567.803C442.83 568.989 441.271 570.728 440.303 572.8C439.335 574.872 439.003 577.184 439.347 579.444C439.691 581.705 440.697 583.813 442.237 585.503C443.778 587.193 445.784 588.388 448.003 588.94C449.486 589.308 451.027 589.379 452.538 589.149C454.048 588.919 455.498 588.393 456.805 587.6C458.111 586.807 459.247 585.763 460.148 584.529C461.049 583.295 461.696 581.895 462.054 580.409Z" fill="#FF3242"/>
<path d="M444.838 579.115C446.251 581.508 448.303 583.46 450.763 584.751C453.232 583.464 455.291 581.512 456.708 579.115C458.155 576.162 457.229 572.959 454.932 572.264C451.612 571.26 450.763 577.031 450.763 577.031C450.763 577.031 449.914 571.241 446.614 572.264C444.298 572.959 443.371 576.162 444.838 579.115Z" fill="white"/>
<path d="M256.567 576.143H421.485V582.859H256.567V576.143Z" fill="#EBEBEB"/>
<path d="M510.053 616.191L466.165 615.843L422.296 615.708L334.539 615.477L246.782 615.708L202.913 615.843L159.024 616.191L202.913 616.538L246.782 616.673L334.539 616.924L422.296 616.673L466.165 616.538L510.053 616.191Z" fill="#EBEBEB"/>
<path d="M578.385 494.85L696.803 526.425L665.228 644.842L546.81 613.268L578.385 494.85Z" fill="#455A64"/>
<path d="M629.481 585.31L645.346 589.537C647.006 583.341 648.569 577.494 650.209 571.317L634.634 567.168C634.943 565.759 635.136 564.659 635.406 563.578C636.584 558.753 638.05 553.928 638.88 549.122C640.675 538.392 636.236 529.301 626.258 525.113C620.043 522.488 613.173 521.446 606.437 519.651C604.912 525.306 603.542 530.459 601.998 536.23C604.41 536.867 606.823 537.465 609.197 538.16C611.352 538.67 613.453 539.388 615.469 540.302C616.802 540.877 617.887 541.907 618.531 543.208C619.174 544.509 619.334 545.997 618.982 547.405C617.94 552.114 616.55 556.746 615.122 561.803L597.019 556.958C596.208 563.134 595.378 568.847 594.76 574.579C594.76 575.139 595.899 576.181 596.69 576.509C601.033 577.802 605.414 578.902 610.201 580.157C606.032 595.848 601.921 611.269 597.733 626.94L617.033 632.074C621.144 616.518 625.274 601.097 629.481 585.31Z" fill="white"/>
<path d="M-6.4368 635.025L115.847 622.905L127.967 745.189L5.68256 757.309L-6.4368 635.025Z" fill="#FF3242"/>
<path d="M13.2708 669.71C12.1128 657.474 19.0607 648.789 31.104 647.477C47.8306 645.637 64.6216 643.97 81.477 642.478C93.3658 641.436 101.838 648.538 103.189 660.369C104.135 668.745 104.869 677.141 105.698 685.459C106.528 693.777 107.378 701.864 108.13 710.066C109.269 722.592 102.34 731.296 90.0462 732.705C73.4482 734.52 56.8373 736.166 40.2135 737.646C28.0546 738.708 19.4661 731.489 18.2116 719.408C16.4746 702.848 14.8276 686.282 13.2708 669.71ZM26.2597 718.809C27.1089 726.529 31.7023 730.389 39.4416 729.695C56.0653 728.151 72.6762 726.504 89.2742 724.754C96.9942 723.943 100.854 719.253 100.121 711.553C98.5382 694.826 96.8784 678.067 95.1414 661.276C94.3501 653.556 89.6216 649.696 81.9402 650.333C65.3165 651.864 48.7056 653.505 32.1076 655.254C24.3876 656.084 20.5275 660.89 21.2803 668.552C22.0137 676.928 22.9015 685.305 23.7314 693.642C24.5613 701.98 25.3333 710.395 26.2597 718.771V718.809Z" fill="white"/>
<path d="M58.317 666.468C62.9541 665.987 67.6298 666.89 71.7552 669.061C75.8805 671.233 79.2711 674.576 81.4999 678.671C83.7288 682.766 84.6962 687.428 84.2805 692.072C83.8647 696.715 82.0843 701.132 79.1635 704.765C76.2427 708.399 72.3121 711.087 67.8666 712.491C63.4211 713.895 58.6595 713.953 54.1815 712.656C49.7034 711.36 45.7091 708.767 42.7015 705.205C39.694 701.643 37.8076 697.27 37.28 692.638C36.924 689.536 37.1873 686.393 38.0547 683.393C38.9221 680.392 40.3762 677.594 42.3329 675.16C44.2897 672.725 46.7101 670.704 49.4538 669.212C52.1976 667.72 55.2101 666.787 58.317 666.468ZM62.5051 705.589C66.5538 705.067 70.2485 703.013 72.8295 699.851C75.4106 696.688 76.6819 692.657 76.3818 688.585C76.1778 686.525 75.5698 684.525 74.5928 682.699C73.6158 680.873 72.2888 679.258 70.6875 677.945C69.0862 676.633 67.2419 675.648 65.2602 675.048C63.2784 674.448 61.1978 674.244 59.1373 674.448C57.0767 674.652 55.0765 675.26 53.2509 676.237C51.4252 677.214 49.8099 678.541 48.4972 680.143C47.1844 681.744 46.1999 683.588 45.5998 685.57C44.9998 687.552 44.796 689.632 45 691.693C45.5131 695.842 47.6353 699.623 50.9096 702.222C54.1838 704.821 58.348 706.03 62.5051 705.589Z" fill="white"/>
<path d="M27.7651 668.918C27.8301 669.625 28.0474 670.31 28.402 670.925C28.7567 671.541 29.2404 672.072 29.8199 672.483C30.3993 672.893 31.0607 673.174 31.7588 673.305C32.4569 673.436 33.1751 673.414 33.8639 673.241C34.6169 673.208 35.3525 673.003 36.0146 672.643C36.6768 672.283 37.2482 671.777 37.6854 671.163C38.1226 670.549 38.4142 669.844 38.5379 669.1C38.6616 668.357 38.6142 667.595 38.3994 666.872C37.8204 663.611 35.5237 662.298 32.2234 662.433C28.9424 663.321 27.1668 665.425 27.7651 668.918Z" fill="white"/>
<path d="M9.84713 367.896L95.9429 337.256L126.583 423.352L40.4875 453.992L9.84713 367.896Z" fill="#455A64"/>
<path d="M108.555 405.3C101.798 408.055 94.2926 408.376 87.3249 406.207C94.3887 400.996 96.6854 397.444 96.2415 392.542L90.8375 394.163C96.2222 389.551 98.4031 384.05 96.4538 377.025L91.4937 380.403C94.6589 371.158 93.829 365.156 88.5601 361.103C86.5495 366.477 83.4564 371.381 79.4725 375.511C75.4886 379.641 70.6988 382.909 65.4001 385.112C65.1299 384.205 64.9562 383.51 64.7439 382.834C64.0547 380.079 62.5284 377.604 60.3752 375.752C58.222 373.899 55.5476 372.76 52.72 372.49C49.8982 372.064 47.0137 372.517 44.4585 373.788C41.9032 375.058 39.8012 377.085 38.438 379.592C38.1986 380.121 37.8055 380.566 37.3099 380.869C36.8142 381.172 36.2389 381.319 35.6588 381.29C33.227 381.29 30.8145 381.29 28.1703 381.29C30.1198 383.666 32.7773 385.356 35.7552 386.115C35.7452 386.263 35.7452 386.411 35.7552 386.559L28.595 387.196L28.4213 387.563C30.718 388.663 32.9954 389.86 35.35 390.825C35.9208 391.007 36.4412 391.32 36.87 391.739C37.2988 392.158 37.6241 392.671 37.8204 393.237C41.1818 402.889 48.0477 410.924 57.0566 415.75C66.0655 420.577 76.5592 421.841 86.4564 419.292C94.6358 417.291 102.009 412.84 107.59 406.535C107.899 406.091 108.227 405.666 108.555 405.3Z" fill="white"/>
<path d="M52.2419 192.313L127.584 217.434L102.462 292.776L27.1206 267.655L52.2419 192.313Z" fill="#FF3242"/>
<path d="M96.145 279.849C96.3959 275.12 96.6661 270.739 96.8012 266.339C96.8044 265.689 96.9414 265.047 97.2037 264.452C97.4661 263.858 97.8481 263.324 98.3259 262.884C101.369 259.691 103.655 255.854 105.012 251.658C106.37 247.461 106.765 243.013 106.169 238.643C105.572 234.273 103.999 230.093 101.566 226.414C99.1334 222.735 95.9034 219.651 92.1158 217.391C88.3282 215.131 84.0802 213.752 79.6872 213.359C75.2941 212.965 70.8688 213.565 66.7396 215.115C62.6103 216.666 58.8831 219.126 55.8347 222.313C52.7862 225.501 50.4947 229.334 49.1302 233.529C47.109 240.564 47.7656 248.098 50.9734 254.678C54.1812 261.258 59.7128 266.416 66.5002 269.156C71.173 270.958 76.2079 271.62 81.1875 271.086C82.1423 271.029 83.0918 271.264 83.9088 271.762C87.9425 274.406 91.8604 276.992 96.145 279.849ZM91.5709 271.028C89.0619 269.407 86.9582 267.96 84.758 266.667C83.9735 266.242 83.0779 266.067 82.1911 266.165C78.1183 266.863 73.9381 266.585 69.9935 265.354C55.5571 260.819 48.4547 243.642 55.8466 230.614C57.9693 226.34 61.3739 222.835 65.5848 220.59C69.7957 218.344 74.6028 217.47 79.3347 218.089C84.2218 218.345 88.9037 220.135 92.7149 223.205C96.5262 226.275 99.2729 230.468 100.565 235.188C103.73 245.089 101.028 253.697 93.3851 260.78C92.6866 261.483 92.2448 262.401 92.1306 263.386C91.7639 265.798 91.7253 268.269 91.5709 270.951V271.028Z" fill="white"/>
<path d="M93.25 235.131C92.2078 231.947 89.4865 231.599 87.2284 233.973C86.3406 234.9 86.0897 235.228 85.1633 236.328C84.5107 236.892 84.0818 237.672 83.9543 238.525C83.8268 239.378 84.0093 240.249 84.4685 240.979C85.1826 242.195 84.8159 242.909 83.793 243.739C80.6735 246.189 76.9149 247.69 72.9657 248.062C72.7159 248.129 72.4554 248.144 72.1997 248.107C71.9439 248.071 71.698 247.984 71.4766 247.85C71.2552 247.717 71.0628 247.541 70.9108 247.332C70.7588 247.123 70.6504 246.886 70.5918 246.634C69.125 242.909 69.0671 242.929 65.072 243.392L63.7017 243.565C63.0608 243.55 62.4284 243.715 61.8769 244.042C61.3253 244.369 60.877 244.845 60.583 245.414C60.2891 245.984 60.1614 246.625 60.2146 247.264C60.2678 247.903 60.4998 248.514 60.8839 249.027C61.5566 250.356 62.5785 251.477 63.84 252.27C65.1015 253.062 66.5549 253.496 68.0442 253.524C75.7902 253.97 83.4052 251.381 89.2742 246.306C91.2406 244.935 92.7207 242.975 93.5009 240.709C93.9519 238.864 93.8649 236.928 93.25 235.131Z" fill="white"/>
<path d="M356.888 542.041C356.888 542.041 370.533 585.273 387.768 641.552C406.914 704.103 430.498 782.731 444.664 835.98H315.74C313.579 827.411 311.224 818.147 308.734 808.304L297.849 765.844C287.543 725.719 276.195 681.85 266.294 643.694C251.452 586.508 239.872 542.099 239.872 542.099L356.888 542.041Z" fill="#455A64"/>
<path d="M264.866 573.423C267.645 583.324 271.138 593.052 274.207 602.837C277.276 612.622 280.441 622.889 283.529 632.925C289.653 652.804 295.726 672.69 301.748 692.582C313.83 732.352 325.873 772.149 337.878 811.971C340.29 819.981 342.818 827.971 345.308 835.981H341.448C336.829 820.644 332.21 805.294 327.591 789.931C315.47 749.517 303.395 709.083 291.365 668.63C285.343 648.314 279.354 627.978 273.396 607.623C270.405 597.336 267.606 587.03 264.615 576.743C263.09 571.609 263.746 569.351 264.866 573.423Z" fill="#263238"/>
<path d="M343.59 542.041C335.465 604.901 319.986 722.785 308.696 808.381C282.274 704.759 239.833 542.041 239.833 542.041H343.59Z" fill="#263238"/>
<path d="M297.83 765.786C297.193 789.448 296.556 814.21 296.054 835.98H177.591C180.004 782.172 184.153 706.226 187.627 645.007C190.908 586.856 193.61 542.041 193.61 542.041H353.105C353.105 542.041 350.403 598.011 337.665 642.401C336.642 646.068 335.523 649.677 334.307 653.132C322.557 657.885 311.265 663.699 300.571 670.502C300.571 670.502 299.142 715.529 297.83 765.786Z" fill="#455A64"/>
<path d="M196.293 835.98H194.363C195.148 821.724 195.868 807.474 196.524 793.231C199.96 716.224 202.662 639.159 205.209 562.133C205.209 561.515 206.174 561.457 206.155 562.133C204.862 605.693 203.723 649.272 202.295 692.832C200.635 740.465 198.635 788.181 196.293 835.98Z" fill="#263238"/>
<path d="M339.981 649.793C326.245 655.534 313.032 662.456 300.493 670.483C300.405 670.549 300.343 670.644 300.318 670.752C300.294 670.859 300.308 670.972 300.359 671.07C300.411 671.167 300.495 671.244 300.597 671.285C300.7 671.326 300.814 671.329 300.918 671.294C314.235 664.809 327.842 658.575 340.792 651.395C340.97 651.27 341.097 651.084 341.15 650.873C341.203 650.662 341.178 650.438 341.079 650.244C340.981 650.049 340.816 649.897 340.614 649.814C340.413 649.731 340.188 649.724 339.981 649.793Z" fill="#263238"/>
<path d="M348.242 587.84C347.141 593.765 345.713 599.632 344.382 605.519C343.185 611.038 342.316 616.674 340.85 622.117C339.67 627.407 336.99 632.245 333.13 636.051C330.968 637.981 328.575 639.911 326.259 641.687C325.024 642.671 323.673 643.617 322.399 644.64C322.573 643.868 322.708 643.057 322.843 642.266C323.248 640.008 323.615 637.769 324.001 635.53C324.831 630.531 325.641 625.533 326.394 620.534C327.899 610.71 329.289 600.79 331.335 591.063C331.335 590.99 331.31 590.919 331.265 590.861C331.22 590.803 331.157 590.762 331.086 590.745C331.015 590.727 330.94 590.733 330.874 590.763C330.807 590.793 330.752 590.844 330.717 590.908C328.266 600.558 325.564 610.093 323.441 619.858C322.399 624.626 318.655 648.172 318.5 649.831C318.346 651.491 318.192 653.267 318.114 655.004C317.892 656.759 317.892 658.536 318.114 660.292C318.211 660.716 318.732 660.639 318.925 660.292C319.635 658.655 320.141 656.938 320.43 655.177C320.855 653.498 321.241 651.8 321.53 650.082C321.646 649.465 321.723 648.847 321.82 648.152C324.136 646.743 326.298 644.891 328.459 643.308C330.621 641.725 333.168 639.969 335.388 638.116C339.465 634.663 342.41 630.063 343.841 624.915C345.262 619.366 346.185 613.702 346.601 607.989C347.354 601.311 347.894 594.575 348.84 587.917C348.917 587.608 348.319 587.434 348.242 587.84Z" fill="#263238"/>
<path d="M327.127 386.465C335.04 449.537 348.859 555.32 371.228 563.87C375.088 565.356 391.57 568.618 402.822 555.957C421.794 534.611 454.604 462.584 463.81 439.405C467.882 429.137 400.911 395.632 395.179 405.958C387.15 420.413 378.716 442.184 377.134 441.45C374.451 440.234 369.896 413.388 352.044 375.676C329.752 328.816 324.174 363.015 327.127 386.465Z" fill="#AD6359"/>
<path d="M483.226 414.507C476.625 428.673 451.805 452.354 443.622 455.77C435.439 459.186 393.77 418.347 394.832 409.296C395.893 400.244 421.852 354.31 436.076 347.227C450.3 340.144 490.039 399.839 483.226 414.507Z" fill="#AD6359"/>
<path d="M397.862 400.708C397.862 400.708 399.232 380.423 394.427 363.188C390.374 348.694 382.711 327.619 390.431 325.148C406.257 320.072 425.326 372.626 425.326 372.626C425.326 372.626 430.035 397.156 414.788 403.506C411.983 404.645 408.918 404.986 405.931 404.492C402.944 403.999 400.151 402.689 397.862 400.708Z" fill="#AD6359"/>
<path d="M440.283 417.46L463.771 413.329L451.786 345.297L422.064 350.527L440.283 417.46Z" fill="#FF3242"/>
<path d="M422.064 350.527L429.012 376.061L440.283 417.479L463.791 413.329L451.786 345.297L422.064 350.527Z" fill="#FF3242"/>
<path opacity="0.1" d="M422.064 350.527L429.012 376.061L456.36 371.236L451.786 345.297L422.064 350.527Z" fill="black"/>
<path d="M416.146 332.999L453.133 326.478L458.087 354.57L421.099 361.091L416.146 332.999Z" fill="#FF3242"/>
<path d="M389.524 327.058L418.764 324.858L410.754 279.387L382.538 287.338L389.524 327.058Z" fill="#FF3242"/>
<path d="M423.956 267.789L435.767 334.895L485.001 332.174L604.372 353.655L575.962 192.5L471.144 253.526L423.956 267.789Z" fill="#FF3242"/>
<path d="M566.758 277.245C558.873 232.527 564.131 194.222 578.502 191.688C592.872 189.154 610.914 223.351 618.799 268.069C626.684 312.787 621.426 351.092 607.056 353.626C592.685 356.16 574.643 321.963 566.758 277.245Z" fill="#FF3242"/>
<path opacity="0.2" d="M572.565 274.784C565.565 235.084 569.429 201.219 581.197 199.144C592.964 197.069 608.178 227.57 615.178 267.271C622.178 306.971 618.314 340.836 606.547 342.911C594.779 344.986 579.565 314.485 572.565 274.784Z" fill="black"/>
<path d="M576.04 274.06C576.985 279.348 577.97 284.463 579.263 289.365C581.959 290.862 585.024 291.566 588.104 291.393C591.183 291.221 594.15 290.18 596.663 288.39C599.175 286.601 601.129 284.137 602.298 281.283C603.468 278.43 603.806 275.303 603.272 272.265L601.94 264.661C601.412 261.631 600.039 258.813 597.978 256.531C595.917 254.248 593.253 252.595 590.293 251.762C587.333 250.928 584.198 250.949 581.249 251.821C578.3 252.693 575.658 254.381 573.627 256.69C574.187 262.364 574.997 268.27 576.04 274.06Z" fill="#FF3242"/>
<path d="M410.426 343.194L466.975 338.948L451.477 251.017L396.878 266.361L410.426 343.194Z" fill="#FF3242"/>
<path opacity="0.2" d="M410.426 343.194L466.975 338.948L451.477 251.017L396.878 266.361L410.426 343.194Z" fill="black"/>
<path opacity="0.2" d="M570.365 204.869C567.396 210.301 565.435 216.225 564.575 222.355C563.601 228.457 563.117 234.627 563.128 240.806C563.128 243.894 563.224 246.982 563.321 250.05C563.417 253.119 563.726 256.207 564.054 259.276C564.382 262.345 564.71 265.413 565.174 268.463C565.637 271.512 566.081 274.561 566.621 277.592C568.741 289.757 571.971 301.702 576.271 313.277C578.448 319.062 581.135 324.643 584.3 329.952C587.373 335.333 591.549 340.003 596.555 343.655C591.77 339.787 587.829 334.979 584.975 329.528C581.985 324.189 579.473 318.596 577.468 312.814C573.423 301.25 570.369 289.364 568.339 277.283C566.042 265.252 564.751 253.051 564.479 240.806C564.311 234.685 564.627 228.561 565.425 222.49C566.041 216.375 567.713 210.413 570.365 204.869Z" fill="black"/>
<path d="M629.153 190.877C625.814 193.522 622.591 196.339 619.503 199.157C616.415 201.975 613.211 204.947 610.123 207.804C607.035 210.66 604.005 213.709 601.033 216.778L596.613 221.371C595.185 222.954 593.699 224.498 592.309 226.119C594.008 224.807 595.61 223.417 597.27 222.066L602.075 217.84C605.26 215.041 608.367 212.05 611.455 209.193C614.543 206.337 617.573 203.287 620.526 200.219C623.479 197.15 626.355 194.101 629.153 190.877Z" fill="#263238"/>
<path d="M605.414 315.4C610.065 316.616 614.775 317.62 619.464 318.585C624.154 319.55 628.883 320.515 633.611 321.268C638.34 322.02 643.068 322.869 647.835 323.526L654.977 324.491C657.35 324.742 659.744 325.05 662.137 325.243C659.821 324.626 657.466 324.124 655.131 323.545L648.086 322.059C643.397 321.055 638.668 320.129 633.939 319.376C629.211 318.623 624.482 317.774 619.715 317.137C614.948 316.501 610.2 315.825 605.414 315.4Z" fill="#263238"/>
<path d="M693.808 298.668C686.764 298.128 679.719 297.78 672.578 297.472C665.437 297.163 658.489 296.95 651.445 296.777C644.4 296.603 637.336 296.507 630.215 296.526H619.638C616.106 296.526 612.574 296.526 609.043 296.777C612.574 297.066 616.087 297.24 619.619 297.472L630.195 297.993C637.24 298.321 644.284 298.494 651.425 298.687C658.566 298.88 665.534 298.938 672.655 298.919C679.777 298.9 686.744 298.919 693.808 298.668Z" fill="#263238"/>
<path d="M668.544 192.287C662.523 196.147 656.617 200.2 650.731 204.272C644.844 208.344 639.015 212.494 633.206 216.663C627.397 220.831 621.626 225.077 615.952 229.42L607.421 235.924C604.623 238.163 601.786 240.324 599.007 242.602C602.037 240.672 604.99 238.742 607.981 236.696L616.82 230.616C622.726 226.563 628.536 222.395 634.345 218.226C640.154 214.057 645.925 209.792 651.599 205.469C657.273 201.145 662.986 196.861 668.544 192.287Z" fill="#263238"/>
<path d="M606.36 269.583C614.543 268.464 622.707 267.132 630.852 265.723C638.996 264.315 647.121 262.828 655.247 261.4C663.372 259.972 671.478 258.293 679.565 256.614L691.704 254.086C695.719 253.159 699.772 252.31 703.786 251.326C699.695 251.885 695.603 252.542 691.531 253.14L679.295 255.07C671.15 256.421 663.025 257.965 654.899 259.393C646.774 260.821 638.668 262.5 630.581 264.18C622.495 265.859 614.35 267.673 606.36 269.583Z" fill="#263238"/>
<path d="M416.274 362.532C417.181 370.753 426.368 365.002 426.368 365.002C426.368 365.002 415.135 376.466 419.343 384.611C423.415 392.427 434.262 385.074 435.053 384.611C434.455 385.228 424.419 396.036 429.475 403.776C434.532 411.515 444.375 402.56 444.915 401.961C444.549 402.714 439.762 412.75 444.915 417.749C453.832 426.337 466.744 400.996 476.394 398.314C476.394 398.314 482.821 414.14 483.11 414.564C483.11 414.564 495.887 390.729 491.525 377.894C490.923 376.021 489.699 374.409 488.057 373.324C486.415 372.24 484.452 371.748 482.492 371.931C482.492 371.931 487.453 364.712 483.67 358.421C481.74 355.236 474.869 355.526 474.869 355.526C474.869 355.526 478.613 349.562 474.869 344.254C471.916 340.008 465.528 340.954 465.528 340.954C465.528 340.954 466.473 333.582 462.034 330.204C453.253 323.449 414.383 344.911 416.274 362.532Z" fill="#AD6359"/>
<path d="M464.621 340.993C464.641 340.984 464.659 340.969 464.671 340.95C464.683 340.931 464.69 340.909 464.69 340.886C464.69 340.864 464.683 340.842 464.671 340.823C464.659 340.804 464.641 340.789 464.621 340.78C450.107 344.64 435.381 353.48 425.885 365.253C425.577 365.639 426.078 366.314 426.503 365.947C437.939 355.834 450.778 347.429 464.621 340.993Z" fill="#263238"/>
<path d="M475.139 355.372C475.294 355.372 475.139 355.044 475.004 355.102C460.085 359.232 443.777 369.577 434.474 384.418C434.165 384.939 434.378 385.711 434.802 385.152C441.692 375.753 462.034 361.22 475.139 355.372Z" fill="#263238"/>
<path d="M444.703 403.158C454.218 389.262 467.226 379.805 481.971 372.027C482.164 372.027 481.971 371.66 481.817 371.718C473.576 373.648 464.679 379.438 458.155 384.707C452.001 389.421 447.196 395.671 444.221 402.83C444.105 403.119 444.51 403.37 444.703 403.158Z" fill="#263238"/>
<path d="M426.079 364.982C425.712 365.446 426.793 365.484 426.445 365.947C424.921 367.877 416.892 380.77 420.404 384.861C423.222 388.142 429.591 386.618 431.791 385.074L437.369 381.214L433.509 386.791C431.787 389.256 430.482 391.989 429.649 394.878C429.171 396.192 428.977 397.592 429.08 398.986C429.184 400.38 429.581 401.736 430.247 402.965C430.876 404.103 431.877 404.99 433.082 405.478C434.287 405.967 435.623 406.027 436.867 405.648C439.63 404.734 442.118 403.141 444.105 401.016L449.76 395.226L446.305 402.444C445.334 404.449 444.621 406.57 444.182 408.755C443.691 410.808 443.805 412.96 444.51 414.95C444.883 415.827 445.491 416.584 446.268 417.136C447.045 417.688 447.96 418.013 448.91 418.077C451.047 417.897 453.088 417.114 454.797 415.819C458.547 413.054 462.077 410.002 465.354 406.69C467.052 405.069 468.77 403.447 470.565 401.903C472.283 400.26 474.328 398.997 476.567 398.198C474.461 399.222 472.574 400.644 471.009 402.386C469.349 404.046 467.786 405.783 466.203 407.52C463.093 411.13 459.649 414.439 455.916 417.401C453.922 419.053 451.485 420.08 448.91 420.354C447.499 420.345 446.12 419.926 444.941 419.148C443.763 418.37 442.835 417.267 442.271 415.973C441.283 413.524 441.054 410.834 441.615 408.253C442.052 405.811 442.805 403.437 443.854 401.189L446.054 402.695C443.751 405.259 440.817 407.176 437.543 408.253C435.71 408.796 433.746 408.687 431.984 407.944C430.287 407.155 428.863 405.878 427.893 404.277C427.05 402.719 426.547 401 426.417 399.234C426.287 397.467 426.534 395.693 427.14 394.029C428.127 390.862 429.633 387.881 431.598 385.209L433.297 386.907C430.402 388.837 423.492 391.25 418.474 386.714C412.742 379.959 423.878 367.163 426.079 364.982Z" fill="#263238"/>
<path d="M426.368 365.002C424.772 365.608 423.093 365.966 421.389 366.063C420.707 366.12 420.022 365.994 419.405 365.699C418.788 365.404 418.26 364.95 417.876 364.384C417.221 363.023 416.973 361.502 417.162 360.003C417.278 358.343 417.49 356.606 417.779 354.812C416.632 356.26 415.81 357.939 415.367 359.733C415.069 360.703 414.965 361.722 415.061 362.732C415.157 363.742 415.451 364.723 415.927 365.62C416.545 366.56 417.443 367.282 418.494 367.685C419.494 368.025 420.569 368.085 421.601 367.858C423.453 367.437 425.123 366.437 426.368 365.002Z" fill="#263238"/>
<path d="M469.021 462.14L395.816 403.372C395.816 403.372 378.079 440.042 377.037 439.887C375.995 439.733 364.376 391.078 345.115 360.757C325.854 330.437 321.222 363.343 325.313 388.356C329.405 413.369 348.666 552.001 365.978 564.7C383.29 577.4 399.56 561.497 406.508 554.761C416.216 545.362 469.021 462.14 469.021 462.14Z" fill="#FF3242"/>
<path d="M454.932 468.759C452.635 466.405 429.63 448.456 424.554 444.673L409.268 433.325C404.019 429.465 398.827 425.199 393.268 421.745C393.244 421.726 393.217 421.711 393.187 421.703C393.158 421.695 393.127 421.692 393.096 421.696C393.066 421.7 393.037 421.709 393.01 421.724C392.983 421.739 392.959 421.759 392.94 421.783C392.921 421.807 392.907 421.835 392.899 421.864C392.891 421.894 392.888 421.925 392.892 421.955C392.895 421.986 392.905 422.015 392.92 422.042C392.935 422.069 392.955 422.092 392.979 422.111C397.804 426.55 403.247 430.41 408.419 434.444C413.591 438.478 418.59 442.434 423.685 446.391C428.781 450.347 451.94 467.621 454.72 469.145C454.951 469.261 455.086 468.991 454.932 468.759Z" fill="#263238"/>
<path d="M376.96 439.789C375.03 444.112 373.1 448.551 371.479 452.99C369.858 457.429 368.236 461.965 366.789 466.5C365.341 471.036 364.029 475.629 362.929 480.28C361.777 484.915 360.894 489.613 360.285 494.35C360.999 492.053 361.578 489.757 362.215 487.499C362.852 485.241 363.566 482.944 364.28 480.666L368.526 467.156L372.772 453.646L375.03 446.66C375.686 444.363 376.4 442.086 376.96 439.789Z" fill="#263238"/>
<path d="M376.69 590.793C373.525 593.939 178.884 583.633 177.9 582.379C175.333 578.943 244.948 371.796 290.573 339.025C300.378 331.981 326.741 341.418 333.516 348.212C337.762 352.477 347.026 379.401 353.047 401.654C365.206 446.236 379.45 588.034 376.69 590.793Z" fill="white"/>
<path d="M329.559 339.468C337.279 345.258 343.185 374.806 325.545 378.802C307.905 382.797 291.538 354.947 289.126 345.992C286.713 337.036 312.865 327.078 329.559 339.468Z" fill="#FF3242"/>
<path d="M324.271 374.748C313.328 376.157 296.711 357.919 290.863 343.868C290.457 342.903 292.793 333.504 295.224 321.924C296.633 314.899 298.023 307.044 298.795 299.768L343.185 315.613C343.185 315.613 337.105 330.377 335.851 343.058C335.754 344.059 335.754 345.067 335.851 346.068C335.851 346.203 335.851 346.377 335.851 346.57C336.218 352.379 334.847 373.397 324.271 374.748Z" fill="#AD6359"/>
<path d="M300.899 300.579C301.362 309.805 304.855 343.039 331.18 346.397C332.742 346.594 334.316 346.671 335.89 346.629C335.92 346.463 335.92 346.293 335.89 346.127C335.812 345.125 335.812 344.118 335.89 343.116C337.163 330.456 343.243 315.691 343.243 315.691L300.899 300.579Z" fill="#263238"/>
<path d="M298.042 245.381C291.577 261.091 295.669 308.607 306.168 320.13C321.415 336.824 348.628 340.858 363.315 322.06C377.597 303.821 371.17 241.965 359.223 231.35C341.641 215.504 307.615 222.182 298.042 245.381Z" fill="#AD6359"/>
<path d="M340.02 278.209C340.02 278.094 339.769 278.383 339.788 278.518C340.155 281.722 340.02 285.428 337.221 286.721C337.221 286.721 337.221 286.933 337.221 286.914C340.753 286.122 340.869 281.182 340.02 278.209Z" fill="#263238"/>
<path d="M336.874 275.104C331.701 275.104 332.126 285.487 336.874 285.468C341.622 285.448 341.216 275.084 336.874 275.104Z" fill="#263238"/>
<path d="M357.988 277.554C357.988 277.438 358.239 277.708 358.239 277.824C358.239 281.047 358.857 284.714 361.81 285.66V285.853C358.22 285.505 357.506 280.603 357.988 277.554Z" fill="#263238"/>
<path d="M360.709 274.06C365.863 273.462 366.692 283.71 361.925 284.367C357.158 285.023 356.406 274.601 360.709 274.06Z" fill="#263238"/>
<path d="M332.57 270.529C333.918 270.078 335.239 269.55 336.527 268.946C337.995 268.585 339.304 267.751 340.251 266.572C340.477 266.142 340.554 265.65 340.47 265.171C340.386 264.693 340.146 264.256 339.788 263.928C338.984 263.389 338.049 263.074 337.083 263.016C336.116 262.959 335.151 263.16 334.288 263.6C332.402 264.223 330.813 265.522 329.829 267.248C329.628 267.654 329.549 268.11 329.602 268.56C329.656 269.01 329.839 269.434 330.129 269.782C330.42 270.13 330.805 270.386 331.239 270.518C331.672 270.651 332.135 270.654 332.57 270.529Z" fill="#263238"/>
<path d="M364.492 268.695C363.064 268.521 361.752 268.116 360.343 267.807C358.829 267.701 357.395 267.089 356.27 266.07C355.976 265.689 355.817 265.22 355.817 264.738C355.817 264.257 355.976 263.788 356.27 263.407C356.974 262.736 357.845 262.265 358.792 262.045C359.739 261.824 360.727 261.861 361.655 262.152C363.614 262.449 365.395 263.459 366.654 264.989C366.916 265.358 367.066 265.795 367.086 266.247C367.107 266.7 366.996 267.148 366.768 267.539C366.54 267.93 366.204 268.247 365.8 268.452C365.397 268.657 364.942 268.741 364.492 268.695Z" fill="#263238"/>
<path d="M335.909 308.279C336.7 308.993 337.511 309.997 338.688 310.036C339.882 309.972 341.048 309.649 342.104 309.09C342.125 309.085 342.146 309.086 342.166 309.092C342.187 309.099 342.205 309.11 342.218 309.126C342.232 309.142 342.242 309.162 342.245 309.182C342.249 309.203 342.247 309.225 342.239 309.244C341.816 309.903 341.219 310.432 340.514 310.773C339.809 311.113 339.023 311.252 338.244 311.174C337.583 311.035 336.978 310.702 336.507 310.217C336.036 309.733 335.72 309.118 335.6 308.453C335.542 308.241 335.793 308.164 335.909 308.279Z" fill="#263238"/>
<path d="M338.881 298.514C339.744 299.753 340.855 300.798 342.145 301.582C343.434 302.366 344.873 302.873 346.369 303.069C347.649 303.254 348.949 303.254 350.229 303.069C350.483 303.052 350.735 303.014 350.982 302.953L351.677 302.818C351.849 302.78 352.003 302.685 352.115 302.548C352.227 302.412 352.29 302.242 352.295 302.066C352.304 301.956 352.304 301.847 352.295 301.737V301.448C352.295 298.978 351.851 295.233 351.851 295.233C352.777 295.639 357.467 297.53 357.351 296.237C356.251 285.564 355.054 273.714 351.716 263.427C351.619 263.08 351.079 263.176 351.137 263.427C351.773 273.733 354.225 283.827 354.997 294.153C353.332 293.462 351.577 293.014 349.786 292.821C349.438 292.937 350.673 300.039 350.596 301.158C350.6 301.197 350.6 301.236 350.596 301.274C346.466 301.988 343.281 300.85 339.151 298.244C338.92 298.051 338.669 298.263 338.881 298.514Z" fill="#263238"/>
<path d="M348.473 302.471C347.052 304.164 345.217 305.461 343.146 306.235C341.998 306.603 340.763 306.603 339.614 306.235C337.105 305.444 337.163 303.108 337.684 301.14C337.999 300.09 338.433 299.08 338.978 298.129C341.595 300.558 344.924 302.08 348.473 302.471Z" fill="#263238"/>
<path d="M343.146 306.234C341.998 306.602 340.763 306.602 339.614 306.234C337.105 305.443 337.163 303.107 337.684 301.139C339.038 301.242 340.316 301.803 341.308 302.729C342.301 303.655 342.949 304.891 343.146 306.234Z" fill="#F392B9"/>
<path d="M297.019 284.791C295.861 280.642 285.15 235.904 286.327 231.021C287.408 226.582 292.272 228.396 292.33 228.146C292.387 227.895 292.561 223.842 295.07 222.356C295.926 221.984 296.849 221.793 297.782 221.793C298.715 221.793 299.638 221.984 300.493 222.356C300.493 222.356 301.246 218.09 303.929 216.932C304.827 216.648 305.784 216.603 306.705 216.803C307.626 217.003 308.479 217.44 309.178 218.071C309.425 216.938 309.944 215.881 310.691 214.994C311.437 214.106 312.389 213.413 313.463 212.976C314.421 212.698 315.443 212.736 316.378 213.084C317.312 213.431 318.111 214.07 318.655 214.906C318.655 214.906 319.793 210.833 322.515 210.042C325.236 209.251 327.726 212.281 327.726 212.281C328.128 211.254 328.799 210.354 329.668 209.675C330.537 208.996 331.573 208.563 332.667 208.421C333.73 208.493 334.747 208.881 335.589 209.534C336.432 210.187 337.06 211.076 337.395 212.088C337.395 212.088 339.325 208.498 342.606 208.402C345.887 208.305 346.891 212.262 346.891 212.262C346.891 212.262 348.203 208.71 351.214 208.942C354.225 209.174 354.919 213.381 354.919 213.381C354.919 213.381 356.599 209.521 360.15 210.621C365.573 212.377 366.249 238.317 367.484 249.588C367.484 249.588 365.978 244.203 363.624 244.01C361.269 243.817 359.609 247.465 355.305 248.43C349.187 249.781 338.997 242.64 330.563 244.396C322.129 246.152 316.3 254.76 313.347 267.556C310.124 282.398 299.76 294.634 297.019 284.791Z" fill="#263238"/>
<path d="M338.013 294.094C341.475 293.461 344.543 291.479 346.545 288.583C348.546 285.688 349.316 282.117 348.686 278.654C348.242 276.221 347.126 273.961 345.462 272.131C343.799 270.301 341.655 268.974 339.275 268.302C336.895 267.629 334.375 267.637 331.999 268.326C329.624 269.014 327.489 270.355 325.838 272.196C324.186 274.037 323.084 276.304 322.657 278.74C322.23 281.176 322.495 283.683 323.421 285.976C324.347 288.269 325.898 290.256 327.898 291.712C329.897 293.167 332.265 294.033 334.732 294.21C335.826 294.305 336.928 294.266 338.013 294.094ZM346.949 279.04C347.352 281.272 347.084 283.573 346.179 285.652C345.274 287.731 343.773 289.495 341.866 290.721C339.959 291.948 337.73 292.58 335.463 292.54C333.196 292.5 330.992 291.788 329.129 290.495C327.266 289.202 325.829 287.386 324.999 285.276C324.168 283.166 323.982 280.857 324.464 278.641C324.946 276.426 326.075 274.403 327.706 272.828C329.338 271.254 331.4 270.198 333.631 269.796C334.566 269.621 335.52 269.569 336.469 269.641C339.013 269.816 341.426 270.836 343.325 272.539C345.223 274.242 346.499 276.53 346.949 279.04Z" fill="#FF3242"/>
<path d="M365.92 292.705C371.344 292.454 375.474 286.316 375.146 279.04C375.049 275.742 373.922 272.556 371.923 269.931C371.133 268.753 370.053 267.798 368.786 267.16C367.52 266.521 366.11 266.22 364.693 266.286C363.276 266.352 361.901 266.783 360.699 267.536C359.497 268.29 358.51 269.34 357.834 270.587C356.088 273.384 355.265 276.658 355.479 279.947C355.788 286.857 360.015 292.338 365.129 292.705H365.92ZM370.552 271.031C372.314 273.366 373.299 276.194 373.37 279.118C373.66 285.429 370.282 290.698 365.843 290.948C361.404 291.199 357.525 286.181 357.235 279.87C357.052 276.951 357.773 274.046 359.301 271.552C359.868 270.573 360.662 269.745 361.615 269.137C362.569 268.53 363.655 268.16 364.782 268.059H365.38C366.402 268.166 367.39 268.486 368.28 268.998C369.171 269.51 369.945 270.202 370.552 271.031Z" fill="#FF3242"/>
<path d="M348.319 280.275L347.122 278.963C349.052 277.187 353.568 274.717 356.965 278.017L355.73 279.271C352.7 276.319 348.492 280.101 348.319 280.275Z" fill="#FF3242"/>
<path d="M289.608 286.393L287.987 285.66C288.334 284.907 291.48 278.307 295.379 277.496C299.278 276.685 322.824 277.843 323.846 277.901V279.658C317.034 279.329 298.756 278.635 295.842 279.214C292.928 279.793 290.438 284.579 289.608 286.393Z" fill="#FF3242"/>
<path d="M307.48 283.151C307.48 283.151 298.023 267.229 290.882 270.49C283.741 273.752 290.052 296.275 297.888 299.884C298.861 300.417 299.931 300.747 301.035 300.855C302.139 300.962 303.254 300.844 304.311 300.509C305.368 300.173 306.346 299.627 307.186 298.902C308.026 298.178 308.71 297.291 309.198 296.294L307.48 283.151Z" fill="#AD6359"/>
<path d="M292.928 276.898C292.907 276.907 292.89 276.922 292.877 276.941C292.865 276.96 292.858 276.982 292.858 277.005C292.858 277.027 292.865 277.049 292.877 277.068C292.89 277.087 292.907 277.102 292.928 277.111C298.409 279.832 300.995 285.294 302.674 290.891C301.15 288.671 298.949 287.34 295.997 289.135C295.968 289.158 295.948 289.189 295.938 289.224C295.928 289.259 295.93 289.297 295.943 289.331C295.956 289.365 295.979 289.394 296.009 289.415C296.04 289.435 296.076 289.445 296.112 289.443C297.131 289.206 298.198 289.289 299.168 289.679C300.138 290.069 300.965 290.748 301.536 291.624C302.476 293.099 303.252 294.671 303.852 296.314C304.083 296.835 305.01 296.642 304.875 296.044C304.866 295.999 304.866 295.954 304.875 295.909C305.454 288.71 300.609 278.211 292.928 276.898Z" fill="#263238"/>
<path d="M263.09 352.573C200.114 395.883 154.663 463.78 150.281 478.023C139.686 512.763 123.879 573.944 121.447 601.428C120.54 611.599 198.86 609.707 200.172 598.88C204.244 564.951 218.835 491.147 219.202 489.893C221.807 480.957 244.041 442.299 266.892 400.244C289.743 358.19 289.647 334.335 263.09 352.573Z" fill="#AD6359"/>
<path d="M193.957 706.071C185.967 708.812 180.776 701.748 180.776 701.748C178.113 705.011 174.391 707.237 170.257 708.04C162.904 709.121 158.002 698.062 158.002 698.062C154.526 700.863 150.291 702.557 145.843 702.925C138.702 703.234 132.178 692.793 132.178 692.793C127.562 693.584 122.814 692.709 118.784 690.323C112.01 685.961 108.671 664.364 108.787 652.205C108.902 640.046 120.618 605.692 122.181 598.898H200.211C200.211 598.898 215.207 653.537 213.026 667.819C211.212 679.92 202.932 703.003 193.957 706.071Z" fill="#AD6359"/>
<path d="M182.03 701.227C187.029 688.895 188.129 675.771 189.962 662.724C189.962 662.662 189.938 662.603 189.894 662.56C189.851 662.517 189.792 662.492 189.731 662.492C189.669 662.492 189.61 662.517 189.567 662.56C189.523 662.603 189.499 662.662 189.499 662.724C187.839 675.713 183.613 688.219 181.412 701.112C181.42 701.182 181.45 701.248 181.498 701.299C181.546 701.351 181.609 701.386 181.678 701.399C181.747 701.412 181.819 701.402 181.882 701.371C181.946 701.341 181.998 701.29 182.03 701.227Z" fill="#263238"/>
<path d="M159.024 697.811C159.887 694.901 160.367 691.891 160.453 688.856C160.749 685.652 160.98 682.436 161.147 679.206C161.514 672.779 161.746 666.352 161.765 659.906C161.765 659.617 161.34 659.539 161.321 659.906C160.935 666.314 160.472 672.702 159.835 679.071C159.507 682.275 159.159 685.459 158.793 688.721C158.244 691.705 158.03 694.741 158.156 697.773C158.185 697.863 158.24 697.942 158.316 698C158.391 698.058 158.482 698.091 158.577 698.095C158.671 698.099 158.765 698.074 158.845 698.023C158.925 697.973 158.988 697.899 159.024 697.811Z" fill="#263238"/>
<path d="M132.197 692.523C132.944 689.876 133.232 687.122 133.047 684.378C133.162 681.464 133.278 678.588 133.413 675.597C133.683 669.807 133.973 663.901 134.455 658.053C134.455 657.991 134.431 657.933 134.388 657.889C134.344 657.846 134.285 657.821 134.224 657.821C134.162 657.821 134.104 657.846 134.06 657.889C134.017 657.933 133.992 657.991 133.992 658.053C133.49 663.978 132.892 669.903 132.41 675.847L131.773 684.59C131.344 687.234 131.39 689.933 131.908 692.561C131.922 692.59 131.945 692.614 131.974 692.629C132.002 692.644 132.035 692.65 132.066 692.645C132.098 692.641 132.128 692.627 132.152 692.605C132.175 692.583 132.191 692.554 132.197 692.523Z" fill="#263238"/>
<path d="M203.936 599.825L118.34 592.916C118.34 592.916 137.196 500.72 147.425 475.804C157.654 450.887 208.587 389.417 261.7 352.978C297.83 328.216 295.591 349.331 278.897 382.141C262.202 414.951 222.927 490.047 220.997 496.011C219.067 501.974 203.936 599.825 203.936 599.825Z" fill="#FF3242"/>
<path d="M202.43 582.166C199.226 581.413 170.18 578.75 163.83 578.306L144.858 576.993C138.316 576.549 131.676 575.797 125.114 575.874C125.08 575.864 125.043 575.862 125.008 575.868C124.972 575.874 124.939 575.889 124.91 575.91C124.881 575.932 124.857 575.96 124.841 575.992C124.825 576.024 124.817 576.06 124.817 576.096C124.817 576.132 124.825 576.168 124.841 576.2C124.857 576.232 124.881 576.26 124.91 576.282C124.939 576.303 124.972 576.318 125.008 576.324C125.043 576.33 125.08 576.328 125.114 576.318C131.561 577.456 138.238 577.785 144.742 578.402L164.042 580.216C170.489 580.795 199.265 582.803 202.449 582.59C202.7 582.571 202.643 582.224 202.43 582.166Z" fill="#263238"/>
</svg>
